<svg width="3460" height="237" viewBox="0 0 3460 237" fill="none" xmlns="http://www.w3.org/2000/svg">
<path d="M60 91.974H0V235.336H148.5H431.5C623.5 235.336 734 235.836 926 235.836H1330.5L1730 236.336L2129.5 235.836H2534C2726 235.836 2836.5 235.336 3028.5 235.336H3311.5H3460V91.974H3400C3304 122.356 3377.5 253.712 3185.5 215.288C2993.5 176.864 2801.5 37.4654 2609.5 7.08362C2417.5 -24.1918 2326 56.1119 2129.5 91.974C1933 127.836 1730 134.836 1730 134.836C1730 134.836 1527 127.836 1330.5 91.974C1134 56.1119 1042.5 -24.1918 850.5 7.08362C658.5 37.4654 466.5 176.864 274.5 215.288C82.5 253.712 156 122.356 60 91.974Z" fill="#32CBFF"/>
</svg>
