<svg width="3458" height="222" viewBox="0 0 3458 222" fill="none" xmlns="http://www.w3.org/2000/svg">
<path d="M1632.94 84.6483C1661.89 88.2971 1729 93.4995 1729 93.4995C1729 93.4995 1796.11 88.2971 1825.06 84.6483C1854 80.9995 2113.22 25.4586 2305.33 38.3589C2497.44 52.0181 2689.56 117.279 2881.67 117.279C3073.78 117.279 3309.41 37.2585 3361.94 18.629C3414.47 -0.000488281 3458 -0.000488281 3458 -0.000488281V221.999H3361.94H2881.67H2305.33H1825.06H1729H1632.94H1152.67H576.333H96.0555H0V-0.000488281C0 -0.000488281 43.5252 -0.000488281 96.0555 18.629C148.586 37.2585 384.222 117.279 576.333 117.279C768.444 117.279 960.556 52.0181 1152.67 38.3589C1344.78 25.4586 1604 80.9995 1632.94 84.6483Z" fill="#1EB7FF"/>
</svg>
