<svg width="3458" height="236" viewBox="0 0 3458 236" fill="none" xmlns="http://www.w3.org/2000/svg">
<path d="M72 11.702L0 -0.000488281V236H72H432H864H1296H1656H1729L1802 236H2162H2594H3026H3386H3458V0L3386 11.7025C3314 22.7548 3170 44.8595 3026 73.4656C2882 101.421 2738 135.229 2594 123.526C2450 112.474 2306 56.562 2162 39.6584C2018 22.7548 1804 68 1729 68C1654 68 1440 22.7543 1296 39.6579C1152 56.5615 1008 112.473 864 123.526C720 135.228 576 101.421 432 73.4651C288 44.859 144 22.7544 72.0002 11.702L72 11.702Z" fill="#0099FF"/>
</svg>
