<svg width="1728" height="212" viewBox="0 0 1728 212" fill="none" xmlns="http://www.w3.org/2000/svg">
<path fill-rule="evenodd" clip-rule="evenodd" d="M0 19.6318L72 31.3342C144 42.3866 288 20.4913 432 49.0973C576 77.0532 720 110.86 864 99.1579C1008 88.1056 1152 32.1937 1296 15.2902C1440 -1.61341 1584 -3.50873 1656 8.19375L1728 19.2461V211.632H1656C1584 211.632 1440 211.632 1296 211.632C1152 211.632 1008 211.632 864 211.632C720 211.632 576 211.632 432 211.632C288 211.632 144 211.632 72 211.632H0V19.6318Z" fill="#0099FF"/>
</svg>
