<svg width="321" height="353" viewBox="0 0 321 353" fill="none" xmlns="http://www.w3.org/2000/svg">
<path d="M60 9.81504C60 9.33833 58.0932 7.90821 57.1398 7.90821H56.1861C55.5505 8.54382 54.0886 9.81504 53.3259 9.81504C52.3725 9.81504 52.3725 15.0588 51.8958 17.4424C51.4191 19.8259 44.7451 20.7793 42.3616 21.7327C39.9781 22.6862 42.3616 26.4998 42.3616 27.4532C42.3616 28.4067 37.5945 29.3601 37.1178 31.7436C36.6411 34.1272 39.5014 37.4641 39.9781 39.8477C40.4548 42.2312 35.6877 44.6147 33.3041 46.9983C30.9206 49.3818 27.5837 46.9983 25.2001 46.9983C22.8166 46.9983 21.8632 51.7654 21.3864 54.1489C20.9097 56.5324 19.0029 54.1489 17.5728 54.1489C16.4287 54.1489 15.1892 57.327 14.7125 58.916L13.7591 65.5899C12.6468 66.2255 10.5175 68.0688 10.8989 70.357C11.3756 73.2172 5.17829 75.6008 3.27154 77.9843C1.36478 80.3679 6.60842 82.2747 7.56191 84.6582C8.32471 86.5651 7.87974 98.4828 7.56191 104.203C5.81398 105.792 2.12744 109.161 1.3647 109.924C0.411289 110.877 2.31812 113.737 3.27154 114.214C4.22495 114.691 4.22495 122.795 4.22495 124.702C4.22495 126.609 6.13179 125.178 7.56191 125.655C8.70601 126.036 11.2167 128.356 12.329 129.469V134.713C13.4413 134.871 15.952 135.094 17.0961 134.713C18.5262 134.236 20.433 137.096 21.8632 138.05C23.2933 139.003 21.8632 140.433 21.8632 141.863C21.8632 143.293 23.2933 146.63 26.1535 148.537C29.0138 150.444 31.3973 151.397 34.2576 155.688C37.1178 159.978 47.1287 163.315 48.5588 163.792C49.7029 164.173 50.6245 161.726 50.9424 160.455C52.5314 159.819 55.9001 158.262 56.6628 157.118C57.6163 155.688 63.8135 159.501 65.2436 158.548C66.6737 157.595 67.6271 156.641 68.5806 157.118C69.534 157.595 71.4408 159.501 72.8709 159.501C74.3011 159.501 76.2079 160.932 77.638 161.408C79.0681 161.885 80.975 158.548 82.8818 156.641C84.4073 155.116 85.4242 154.734 85.7421 154.734C86.5366 155.211 88.2209 155.878 88.6023 154.734C89.079 153.304 94.3228 151.397 97.6598 151.397C100.997 151.397 104.334 159.025 105.764 161.885C107.194 164.745 116.728 162.362 119.588 161.885C122.449 161.408 123.879 161.885 126.739 167.605C129.599 173.326 125.309 172.373 125.309 173.326C125.309 174.279 122.925 176.186 121.972 178.093C121.018 180 123.879 180.477 125.309 180.477C126.739 180.477 125.309 183.814 122.925 185.244C120.542 186.674 120.542 193.348 123.879 195.255C127.216 197.161 138.18 208.602 139.61 210.986C140.754 212.893 140.087 215.594 139.61 216.706C140.246 216.865 141.517 217.469 141.517 218.613C141.517 220.043 139.61 222.904 139.61 225.764C139.61 228.624 142.947 232.914 144.377 237.205C145.807 241.495 134.366 251.506 133.89 253.89C133.413 256.273 130.553 267.714 135.32 271.528C140.087 275.342 146.761 296.317 146.284 301.084C145.807 305.851 147.237 313.001 149.621 315.862C152.004 318.722 159.155 327.303 160.109 329.686C161.062 332.07 161.062 341.127 161.062 342.557C161.062 343.987 160.109 353.998 165.352 351.615C170.596 349.231 172.026 351.615 173.933 351.615C175.84 351.615 179.654 347.801 182.037 347.801C184.421 347.801 185.851 348.755 187.758 350.185C189.664 351.615 192.525 347.801 194.432 347.801C196.338 347.801 198.245 345.894 200.629 343.987C203.012 342.081 207.303 342.557 209.209 342.557C211.116 342.557 214.93 342.081 214.93 337.314C214.93 332.546 217.313 330.163 218.267 326.349C219.22 322.536 225.894 317.769 227.324 315.862C228.754 313.955 230.185 311.095 230.185 307.758C230.185 304.421 232.091 304.421 234.475 302.991C236.859 301.56 239.242 302.037 241.149 301.084C243.056 300.13 241.149 294.887 242.102 291.55C243.056 288.213 243.056 286.783 241.149 285.352C239.242 283.922 239.242 278.202 241.149 274.865C243.056 271.528 247.346 272.958 250.206 272.005C253.067 271.051 251.636 268.668 253.067 267.237C254.497 265.807 258.31 263.901 260.694 263.424C263.077 262.947 265.461 257.703 266.414 256.273C267.368 254.843 269.751 252.46 269.751 250.553C269.751 248.646 268.321 246.739 267.368 243.879C266.414 241.019 269.275 239.112 269.751 238.158C270.228 237.205 268.798 232.914 267.368 231.961C265.938 231.008 261.171 225.764 262.124 224.334C263.077 222.904 263.077 216.23 263.077 214.323C263.077 212.416 260.217 213.369 260.217 211.463C260.217 209.556 262.124 205.742 264.031 204.312C265.938 202.882 266.891 197.638 267.845 195.731C268.798 193.824 273.088 193.824 276.425 188.104C279.762 182.383 290.727 175.709 292.633 174.279C294.54 172.849 302.644 168.082 303.598 164.745C304.551 161.408 312.178 150.444 315.992 148.537C319.806 146.63 316.945 138.05 316.945 136.619C316.945 135.189 319.806 128.992 319.806 127.562C319.806 126.132 315.515 126.609 315.039 128.039C314.562 129.469 308.841 129.946 306.458 129.946C304.074 129.946 297.877 132.806 296.924 133.759C295.97 134.713 293.587 133.282 292.633 132.806C291.68 132.329 289.773 133.759 288.82 134.236C287.866 134.713 285.483 132.806 283.576 131.376C281.669 129.946 278.809 121.841 277.379 119.935C275.949 118.028 262.601 107.54 262.601 106.11C262.601 104.68 262.601 98.0061 259.741 96.5759C256.88 95.1458 252.113 90.3787 251.636 89.4253C251.16 88.4719 251.16 79.4144 251.16 78.461C251.16 77.5076 245.916 76.0775 244.486 75.1241C243.056 74.1706 243.056 67.4967 243.056 66.5433C243.056 65.5899 237.335 56.5324 236.382 55.1023C235.428 53.6722 236.859 49.3818 237.335 48.9051C237.717 48.5237 239.083 47.475 239.719 46.9983L236.382 35.0806L235.428 33.1737H226.371C223.511 33.1737 221.127 30.3135 218.267 29.8368C215.407 29.3601 209.686 34.6039 206.349 34.6039C203.012 34.6039 194.908 28.8834 193.478 28.4067C192.048 27.9299 185.374 27.4532 182.514 27.4532C179.654 27.4532 178.223 24.1163 176.317 23.6396C174.41 23.1629 171.073 26.0231 168.689 27.4532C166.306 28.8834 170.119 33.1737 171.073 34.6039C172.026 36.034 168.213 39.8477 165.352 39.8477C162.492 39.8477 160.585 35.0806 159.155 33.1737C157.725 31.2669 152.004 33.6504 149.621 33.1737C147.237 32.697 149.144 26.4998 148.668 25.0697C148.191 23.6396 140.563 25.0697 138.18 25.0697C135.796 25.0697 134.843 23.6396 133.413 22.6862C131.983 21.7327 127.692 17.9191 127.692 16.0122C127.692 14.1054 129.599 15.5356 131.029 13.6287C132.173 12.1032 129.917 10.4506 128.646 9.81504C128.487 8.22601 127.692 5.04796 125.786 5.04796C123.879 5.04796 122.766 2.82331 122.449 1.711L119.112 5.04796C117.681 6.47807 114.345 3.61783 111.484 3.61783C108.624 3.61783 107.671 5.04796 105.764 5.04796C103.857 5.04796 100.52 3.61783 98.6132 3.61783C96.7063 3.61783 96.2296 6.00137 94.7995 6.47808C93.3694 6.95479 91.9393 5.52466 89.5557 5.04796C87.1722 4.57125 86.6955 6.00137 84.7886 7.90821C82.8818 9.81504 80.0216 9.33833 77.638 8.38491C75.2545 7.4315 74.3011 13.152 73.8243 13.6287C73.3476 14.1054 69.534 12.6753 67.6271 11.7219C65.7203 10.7685 64.2902 11.2452 62.3834 11.7219C60.4765 12.1986 60 10.2917 60 9.81504Z" fill="#A23636"/>
<path d="M283.576 270.574C282.146 268.668 281.669 266.284 281.669 262.47C282.781 261.676 285.483 259.61 287.39 257.703C289.773 255.32 294.064 256.75 296.447 256.75C298.831 256.75 302.168 253.89 303.598 252.46C305.028 251.029 304.551 249.123 304.551 245.786C304.551 242.449 305.505 241.972 309.318 241.495C313.132 241.019 311.225 244.832 312.178 248.169C313.132 251.506 314.085 253.413 314.085 256.75C314.085 260.087 310.272 257.227 309.318 257.703C308.365 258.18 309.318 264.377 309.318 267.237C309.318 270.098 305.505 272.958 304.551 277.248C303.598 281.539 299.784 288.213 297.4 292.98C295.017 297.747 295.97 301.084 295.494 302.991C295.017 304.897 292.157 304.421 288.343 302.991C284.529 301.56 283.576 305.374 281.669 305.851C279.762 306.328 279.286 301.084 278.332 296.793C277.379 292.503 279.286 285.352 279.286 283.446C279.286 281.539 285.006 279.155 285.959 277.248C286.913 275.342 285.006 272.481 283.576 270.574Z" fill="#A23636"/>
<path d="M60 9.81504C60 9.33833 58.0932 7.90821 57.1398 7.90821H56.1861C55.5505 8.54382 54.0886 9.81504 53.3259 9.81504C52.3725 9.81504 52.3725 15.0588 51.8958 17.4424C51.4191 19.8259 44.7451 20.7793 42.3616 21.7327C39.9781 22.6862 42.3616 26.4998 42.3616 27.4532C42.3616 28.4067 37.5945 29.3601 37.1178 31.7436C36.6411 34.1272 39.5014 37.4641 39.9781 39.8477C40.4548 42.2312 35.6877 44.6147 33.3041 46.9983C30.9206 49.3818 27.5837 46.9983 25.2001 46.9983C22.8166 46.9983 21.8632 51.7654 21.3864 54.1489C20.9097 56.5324 19.0029 54.1489 17.5728 54.1489C16.4287 54.1489 15.1892 57.327 14.7125 58.916L13.7591 65.5899C12.6468 66.2255 10.5175 68.0688 10.8989 70.357C11.3756 73.2172 5.17829 75.6008 3.27154 77.9843C1.36478 80.3679 6.60842 82.2747 7.56191 84.6582C8.32471 86.5651 7.87974 98.4828 7.56191 104.203C5.81398 105.792 2.12744 109.161 1.3647 109.924C0.411289 110.877 2.31812 113.737 3.27154 114.214C4.22495 114.691 4.22495 122.795 4.22495 124.702C4.22495 126.609 6.13179 125.178 7.56191 125.655C8.70601 126.036 11.2167 128.356 12.329 129.469V134.713C13.4413 134.871 15.952 135.094 17.0961 134.713C18.5262 134.236 20.433 137.096 21.8632 138.05C23.2933 139.003 21.8632 140.433 21.8632 141.863C21.8632 143.293 23.2933 146.63 26.1535 148.537C29.0138 150.444 31.3973 151.397 34.2576 155.688C37.1178 159.978 47.1287 163.315 48.5588 163.792C49.7029 164.173 50.6245 161.726 50.9424 160.455C52.5314 159.819 55.9001 158.262 56.6628 157.118C57.6163 155.688 63.8135 159.501 65.2436 158.548C66.6737 157.595 67.6271 156.641 68.5806 157.118C69.534 157.595 71.4408 159.501 72.8709 159.501C74.3011 159.501 76.2079 160.932 77.638 161.408C79.0681 161.885 80.975 158.548 82.8818 156.641C84.4073 155.116 85.4242 154.734 85.7421 154.734C86.5366 155.211 88.2209 155.878 88.6023 154.734C89.079 153.304 94.3228 151.397 97.6598 151.397C100.997 151.397 104.334 159.025 105.764 161.885C107.194 164.745 116.728 162.362 119.588 161.885C122.449 161.408 123.879 161.885 126.739 167.605C129.599 173.326 125.309 172.373 125.309 173.326C125.309 174.279 122.925 176.186 121.972 178.093C121.018 180 123.879 180.477 125.309 180.477C126.739 180.477 125.309 183.814 122.925 185.244C120.542 186.674 120.542 193.348 123.879 195.255C127.216 197.161 138.18 208.602 139.61 210.986C140.754 212.893 140.087 215.594 139.61 216.706C140.246 216.865 141.517 217.469 141.517 218.613C141.517 220.043 139.61 222.904 139.61 225.764C139.61 228.624 142.947 232.914 144.377 237.205C145.807 241.495 134.366 251.506 133.89 253.89C133.413 256.273 130.553 267.714 135.32 271.528C140.087 275.342 146.761 296.317 146.284 301.084C145.807 305.851 147.237 313.001 149.621 315.862C152.004 318.722 159.155 327.303 160.109 329.686C161.062 332.07 161.062 341.127 161.062 342.557C161.062 343.987 160.109 353.998 165.352 351.615C170.596 349.231 172.026 351.615 173.933 351.615C175.84 351.615 179.654 347.801 182.037 347.801C184.421 347.801 185.851 348.755 187.758 350.185C189.664 351.615 192.525 347.801 194.432 347.801C196.338 347.801 198.245 345.894 200.629 343.987C203.012 342.081 207.303 342.557 209.209 342.557C211.116 342.557 214.93 342.081 214.93 337.314C214.93 332.546 217.313 330.163 218.267 326.349C219.22 322.536 225.894 317.769 227.324 315.862C228.754 313.955 230.185 311.095 230.185 307.758C230.185 304.421 232.091 304.421 234.475 302.991C236.859 301.56 239.242 302.037 241.149 301.084C243.056 300.13 241.149 294.887 242.102 291.55C243.056 288.213 243.056 286.783 241.149 285.352C239.242 283.922 239.242 278.202 241.149 274.865C243.056 271.528 247.346 272.958 250.206 272.005C253.067 271.051 251.636 268.668 253.067 267.237C254.497 265.807 258.31 263.901 260.694 263.424C263.077 262.947 265.461 257.703 266.414 256.273C267.368 254.843 269.751 252.46 269.751 250.553C269.751 248.646 268.321 246.739 267.368 243.879C266.414 241.019 269.275 239.112 269.751 238.158C270.228 237.205 268.798 232.914 267.368 231.961C265.938 231.008 261.171 225.764 262.124 224.334C263.077 222.904 263.077 216.23 263.077 214.323C263.077 212.416 260.217 213.369 260.217 211.463C260.217 209.556 262.124 205.742 264.031 204.312C265.938 202.882 266.891 197.638 267.845 195.731C268.798 193.824 273.088 193.824 276.425 188.104C279.762 182.383 290.727 175.709 292.633 174.279C294.54 172.849 302.644 168.082 303.598 164.745C304.551 161.408 312.178 150.444 315.992 148.537C319.806 146.63 316.945 138.05 316.945 136.619C316.945 135.189 319.806 128.992 319.806 127.562C319.806 126.132 315.515 126.609 315.039 128.039C314.562 129.469 308.841 129.946 306.458 129.946C304.074 129.946 297.877 132.806 296.924 133.759C295.97 134.713 293.587 133.282 292.633 132.806C291.68 132.329 289.773 133.759 288.82 134.236C287.866 134.713 285.483 132.806 283.576 131.376C281.669 129.946 278.809 121.841 277.379 119.935C275.949 118.028 262.601 107.54 262.601 106.11C262.601 104.68 262.601 98.0061 259.741 96.5759C256.88 95.1458 252.113 90.3787 251.636 89.4253C251.16 88.4719 251.16 79.4144 251.16 78.461C251.16 77.5076 245.916 76.0775 244.486 75.1241C243.056 74.1706 243.056 67.4967 243.056 66.5433C243.056 65.5899 237.335 56.5324 236.382 55.1023C235.428 53.6722 236.859 49.3818 237.335 48.9051C237.717 48.5237 239.083 47.475 239.719 46.9983L236.382 35.0806L235.428 33.1737H226.371C223.511 33.1737 221.127 30.3135 218.267 29.8368C215.407 29.3601 209.686 34.6039 206.349 34.6039C203.012 34.6039 194.908 28.8834 193.478 28.4067C192.048 27.9299 185.374 27.4532 182.514 27.4532C179.654 27.4532 178.223 24.1163 176.317 23.6396C174.41 23.1629 171.073 26.0231 168.689 27.4532C166.306 28.8834 170.119 33.1737 171.073 34.6039C172.026 36.034 168.213 39.8477 165.352 39.8477C162.492 39.8477 160.585 35.0806 159.155 33.1737C157.725 31.2669 152.004 33.6504 149.621 33.1737C147.237 32.697 149.144 26.4998 148.668 25.0697C148.191 23.6396 140.563 25.0697 138.18 25.0697C135.796 25.0697 134.843 23.6396 133.413 22.6862C131.983 21.7327 127.692 17.9191 127.692 16.0122C127.692 14.1054 129.599 15.5356 131.029 13.6287C132.173 12.1032 129.917 10.4506 128.646 9.81504C128.487 8.22601 127.692 5.04796 125.786 5.04796C123.879 5.04796 122.766 2.82331 122.449 1.711L119.112 5.04796C117.681 6.47807 114.345 3.61783 111.484 3.61783C108.624 3.61783 107.671 5.04796 105.764 5.04796C103.857 5.04796 100.52 3.61783 98.6132 3.61783C96.7063 3.61783 96.2296 6.00137 94.7995 6.47808C93.3694 6.95479 91.9393 5.52466 89.5557 5.04796C87.1722 4.57125 86.6955 6.00137 84.7886 7.90821C82.8818 9.81504 80.0216 9.33833 77.638 8.38491C75.2545 7.4315 74.3011 13.152 73.8243 13.6287C73.3476 14.1054 69.534 12.6753 67.6271 11.7219C65.7203 10.7685 64.2902 11.2452 62.3834 11.7219C60.4765 12.1986 60 10.2917 60 9.81504Z" stroke="black"/>
<path d="M283.576 270.574C282.146 268.668 281.669 266.284 281.669 262.47C282.781 261.676 285.483 259.61 287.39 257.703C289.773 255.32 294.064 256.75 296.447 256.75C298.831 256.75 302.168 253.89 303.598 252.46C305.028 251.029 304.551 249.123 304.551 245.786C304.551 242.449 305.505 241.972 309.318 241.495C313.132 241.019 311.225 244.832 312.178 248.169C313.132 251.506 314.085 253.413 314.085 256.75C314.085 260.087 310.272 257.227 309.318 257.703C308.365 258.18 309.318 264.377 309.318 267.237C309.318 270.098 305.505 272.958 304.551 277.248C303.598 281.539 299.784 288.213 297.4 292.98C295.017 297.747 295.97 301.084 295.494 302.991C295.017 304.897 292.157 304.421 288.343 302.991C284.529 301.56 283.576 305.374 281.669 305.851C279.762 306.328 279.286 301.084 278.332 296.793C277.379 292.503 279.286 285.352 279.286 283.446C279.286 281.539 285.006 279.155 285.959 277.248C286.913 275.342 285.006 272.481 283.576 270.574Z" stroke="black"/>
</svg>
