<svg width="600" height="629" viewBox="0 0 600 629" fill="none" xmlns="http://www.w3.org/2000/svg">
<path d="M115.748 237.874C124.806 227.386 100.97 174.949 102.877 171.612C105.261 172.565 109.933 173.9 109.551 171.612C109.074 168.751 105.261 171.612 106.214 167.798C107.168 163.984 104.784 162.077 109.551 162.554C114.318 163.031 120.039 167.798 121.946 167.798H127.666C130.526 167.798 134.817 177.332 136.247 175.425C137.677 173.518 136.723 164.938 133.863 164.938C131.575 164.938 128.778 163.349 127.666 162.554C128.778 160.965 130.336 157.12 127.666 154.45C124.329 151.113 121.946 150.16 121.946 148.253C121.946 146.346 126.713 140.149 125.283 134.905L125.207 134.629C123.82 129.544 122.941 126.324 125.283 126.324C127.666 126.324 136.247 127.754 136.247 129.661C136.247 131.568 135.77 139.195 138.154 141.579C140.537 143.963 144.828 145.869 144.828 148.253C144.828 150.636 143.397 156.834 144.828 158.74C146.258 160.647 156.745 170.181 156.269 175.425C155.792 180.669 153.885 185.436 151.978 185.436H144.828C143.715 186.548 142.158 189.059 144.828 190.203C147.497 191.347 154.838 192.269 158.175 192.587C158.334 190.044 158.938 184.673 160.082 183.529C161.512 182.099 160.082 172.088 160.082 169.228C160.082 166.368 167.233 163.508 168.186 166.368C169.14 169.228 176.767 181.622 176.767 175.425C176.767 169.228 173.907 174.472 172.477 167.798C171.047 161.124 171.047 162.554 167.233 162.077C163.419 161.601 160.082 155.404 160.082 156.357C160.082 157.31 158.652 166.368 156.269 162.554C153.885 158.74 150.548 153.973 150.548 151.113C150.548 148.253 149.118 142.532 144.828 141.579C140.537 140.626 144.351 135.382 146.258 132.522C148.164 129.661 147.688 141.579 151.978 141.579C156.269 141.579 164.849 144.439 165.326 143.009C165.803 141.579 161.989 139.195 158.175 138.719C154.362 138.242 148.641 130.138 153.408 132.522C158.175 134.905 161.989 132.522 159.129 130.138C156.269 127.754 154.838 125.848 161.512 127.754C168.186 129.661 168.663 133.475 172 133.475C175.337 133.475 176.767 130.138 176.767 132.522C176.767 134.905 175.337 142.532 178.674 145.393C182.011 148.253 184.394 147.299 185.824 150.16C187.255 153.02 190.592 153.973 192.022 152.543C193.452 151.113 192.022 152.067 189.638 150.16C187.255 148.253 183.441 144.439 185.824 143.009C188.208 141.579 182.011 139.672 181.057 137.289C180.104 134.905 182.488 127.754 178.674 127.754C174.86 127.754 172.477 130.615 172.477 127.754C172.477 124.894 173.907 122.987 169.616 123.464C165.326 123.941 164.373 122.034 162.942 118.697C161.512 115.36 157.699 111.546 161.512 111.07C165.326 110.593 168.186 110.593 169.616 109.64C171.047 108.686 176.767 106.779 176.767 108.209C176.767 109.64 179.627 112.5 181.057 111.07C182.488 109.64 186.778 104.396 179.627 102.012C172.477 99.6286 173.907 97.2451 175.337 94.8616C176.767 92.478 174.86 90.5712 176.767 88.6644C178.674 86.7575 179.151 80.5603 181.057 80.5603C182.964 80.5603 187.255 81.9904 187.255 80.5603C187.255 79.1302 185.824 73.4097 187.255 73.4097C188.685 73.4097 197.265 67.6892 197.265 70.5495C197.265 73.4097 194.882 76.7467 197.265 75.7932C199.649 74.8398 202.033 72.4563 202.986 71.5029C203.939 70.5495 208.706 68.6426 209.183 71.5029C209.637 74.2234 210.09 66.5933 206.441 65.021C204.949 64.7085 204.267 64.4779 205.846 64.8289C206.056 64.8755 206.254 64.9403 206.441 65.021C209.003 65.5573 213.95 66.3349 213.95 64.8289C213.95 62.4454 212.52 61.0153 209.183 61.0153C205.846 61.0153 204.893 57.6783 203.939 53.8647C202.986 50.051 208.23 41.4703 211.09 42.9004C213.95 44.3305 212.997 51.9578 215.38 51.9578C217.764 51.9578 223.008 47.1908 223.961 49.5743C224.915 51.9578 223.008 60.5386 226.821 59.5852C230.635 58.6318 229.205 54.3414 230.635 51.9578C232.065 49.5743 236.356 47.1908 239.692 47.1908C243.029 47.1908 255.901 54.3414 255.901 55.7715C255.901 56.9156 254.312 59.7441 253.517 61.0153L259.237 64.8289C259.237 66.2591 258.57 69.9774 255.901 73.4097C252.564 77.7001 253.517 87.2342 253.517 90.0945C253.517 92.9547 248.273 96.2917 249.703 99.1519C250.847 101.44 252.722 102.012 253.517 102.012C252.087 100.105 250.085 96.0057 253.517 94.8616C257.807 93.4314 261.621 93.9082 261.621 90.0945C261.621 87.0436 262.892 83.4206 263.528 81.9904C265.753 84.2151 270.678 88.6644 272.585 88.6644C274.969 88.6644 276.399 80.5603 281.643 80.5603C286.887 80.5603 291.177 88.6644 293.084 88.6644C294.991 88.6644 298.328 88.6644 301.188 85.3274C304.048 81.9904 306.908 85.3274 308.338 85.3274C309.769 85.3274 312.152 85.8041 311.675 83.8973C311.199 81.9904 305.478 78.1768 306.908 75.7932C308.338 73.4097 314.059 73.8864 315.489 74.8398C316.919 75.7932 319.303 70.5495 322.163 70.5495C325.023 70.5495 338.371 80.5603 337.894 83.8973C337.418 87.2342 332.651 82.4672 332.174 83.8973C331.697 85.3274 334.081 91.5246 337.894 92.0013C341.708 92.478 348.859 95.3383 348.859 97.2451C348.859 99.1519 353.626 99.1519 355.056 99.1519C356.486 99.1519 353.149 92.0013 348.859 88.6644C344.568 85.3274 354.102 85.8041 355.056 88.6644C356.009 91.5246 362.206 90.5712 362.206 87.2342C362.206 83.8973 369.357 85.8041 371.741 87.2342C374.124 88.6644 380.798 82.4672 378.891 79.1302C376.984 75.7932 374.601 77.7001 375.078 74.8398C375.84 71.0262 371.582 70.3906 369.357 70.5495C369.993 69.2782 371.645 66.7358 373.171 66.7358C374.696 66.7358 374.442 63.5577 374.124 61.9687H390.332L390.809 65.7824L393.669 66.7358V68.6426C393.669 70.5494 397.483 74.3631 398.436 72.4563C399.199 70.9308 397.483 64.1933 396.529 61.0153C399.866 59.1085 406.54 55.9622 406.54 58.6318C406.54 61.3013 407.494 64.5112 407.97 65.7824L412.738 64.8289V70.5495C413.691 71.1851 415.884 72.0749 417.028 70.5495C418.458 68.6426 418.935 62.9221 421.795 66.7358C424.083 69.7867 425.609 73.4097 426.085 74.8398C427.357 74.9987 429.899 75.0305 429.899 73.8864C429.899 72.4563 432.283 60.0619 444.677 61.0153C457.071 61.9687 459.455 70.0727 459.455 72.4563C459.455 74.8398 464.699 68.6426 466.129 70.5495C467.559 72.4563 470.419 79.6069 471.849 77.2234C473.279 74.8398 472.803 64.8289 475.186 64.8289C477.57 64.8289 484.72 71.0261 486.627 64.8289C488.534 58.6318 492.348 54.8181 493.301 56.7249C494.255 58.6318 496.638 64.8289 498.068 64.8289C499.498 64.8289 502.359 62.9221 502.835 65.7824C503.312 68.6426 512.846 65.3057 510.939 61.9687C509.033 58.6318 499.498 56.2482 499.498 52.9113C499.498 49.5743 509.509 51.4811 510.939 49.5743C512.37 47.6675 519.52 50.051 519.52 51.4811C519.52 52.9113 550.506 56.7249 553.843 56.7249C557.18 56.7249 560.04 60.0619 561.947 60.0619C563.854 60.0619 567.191 54.8181 568.621 56.7249C570.051 58.6318 565.761 61.9687 568.621 61.9687C570.909 61.9687 574.659 66.418 576.248 68.6426C577.996 69.9138 581.492 71.6936 581.492 68.6426C581.492 64.8289 573.388 52.9113 576.248 52.9113C579.109 52.9113 579.585 58.6318 584.352 58.6318C589.12 58.6318 593.41 61.9687 592.933 63.8755C592.457 65.7824 584.829 72.4563 587.689 72.4563C590.55 72.4563 594.84 72.933 593.887 76.27C592.933 79.6069 598.654 80.5603 599.13 82.4672C599.607 84.374 595.317 81.9904 591.503 85.3274C587.689 88.6644 589.12 81.037 581.492 82.4672C573.865 83.8973 581.016 92.0013 576.248 89.6178C571.481 87.2342 569.098 77.2234 566.238 82.4672C563.377 87.711 576.248 92.478 576.248 97.2451C576.248 102.012 575.295 107.733 570.051 106.779C564.807 105.826 570.528 103.442 566.238 104.396C561.947 105.349 562.424 113.453 571.958 114.883C581.492 116.313 584.352 115.36 584.352 118.22C584.352 121.081 591.98 125.848 592.933 128.231C593.887 130.615 595.317 136.812 591.503 134.905C587.689 132.998 583.399 132.045 580.539 135.382C577.679 138.719 576.725 142.532 575.295 148.253C573.865 153.973 571.958 154.45 571.958 159.694C571.958 164.938 572.911 170.658 566.238 163.984C559.564 157.31 559.087 161.124 558.134 166.368C557.18 171.612 555.75 171.612 552.89 167.798C550.029 163.984 550.983 172.088 548.123 173.518C545.262 174.949 542.879 171.612 542.879 173.518C542.879 175.425 543.356 193.063 548.123 197.354C552.89 201.644 558.134 202.598 558.134 207.841V221.189C558.134 224.526 564.807 221.666 564.807 224.526C564.807 227.386 560.04 225.48 560.04 230.247C560.04 235.014 561.471 245.978 558.134 250.268C554.797 254.559 554.797 260.756 552.89 257.896C550.983 255.036 553.843 249.792 550.983 246.455C548.123 243.118 545.262 245.501 544.786 240.734C544.309 235.967 542.402 231.677 539.065 231.677C535.728 231.677 531.438 230.247 531.438 224.526C531.438 218.806 530.008 220.713 530.008 216.422C530.008 212.132 534.298 212.609 533.345 209.748C532.391 206.888 529.531 205.458 531.438 202.598C533.345 199.737 536.682 199.737 536.205 195.447C535.728 191.157 536.205 176.379 536.205 173.518C536.205 170.658 543.356 167.798 542.879 166.368C542.402 164.938 536.205 161.124 536.205 157.787C536.205 154.45 539.065 148.253 539.065 146.823C539.065 145.393 536.682 142.532 533.345 145.393C530.008 148.253 530.008 150.16 530.008 152.067C530.008 153.973 533.345 157.31 532.391 160.647C531.438 163.984 529.531 164.938 528.578 167.798C527.624 170.658 521.904 163.508 521.904 161.601C521.904 159.694 519.043 159.217 515.706 161.601C512.37 163.984 509.509 166.368 510.463 169.228C511.416 172.088 509.986 178.762 509.033 179.716C508.079 180.669 506.172 187.343 509.033 188.296C511.893 189.25 518.567 187.82 515.706 191.633C512.846 195.447 510.939 190.68 507.602 194.017C504.933 196.686 501.087 192.269 499.498 189.727C497.115 188.296 491.68 186.294 489.011 189.727C485.674 194.017 486.151 197.354 483.29 197.354C480.43 197.354 473.279 193.54 467.559 199.737C461.838 205.935 456.118 236.921 453.258 238.827C450.397 240.734 447.537 246.455 450.397 246.455C453.258 246.455 458.502 239.304 458.502 243.595C458.502 247.885 458.025 255.512 460.885 255.512C463.745 255.512 468.989 249.315 467.559 247.885C466.129 246.455 474.233 247.408 474.71 250.268C475.186 253.129 481.86 249.792 481.86 252.652C481.86 255.512 480.43 256.942 481.86 259.803C483.29 262.663 486.627 264.57 486.627 267.43C486.627 270.29 483.29 274.581 484.244 277.441C485.197 280.301 491.871 282.208 491.871 288.882C491.871 295.556 486.627 303.183 486.627 306.52C486.627 309.857 488.534 316.531 485.197 321.298C481.86 326.065 481.384 336.553 478.047 336.553C474.71 336.553 473.279 332.262 469.466 332.739C465.652 333.216 459.455 343.227 460.885 348.47C462.315 353.714 461.838 354.191 459.455 354.668C457.071 355.144 453.734 355.621 453.734 358.004C453.734 360.388 459.455 366.585 462.315 369.445C465.175 372.306 469.466 382.317 469.466 386.13C469.466 389.944 465.175 387.56 462.315 389.467C459.455 391.374 458.502 398.048 456.118 395.188C453.734 392.327 456.118 385.177 456.118 384.223C456.118 383.27 453.258 381.84 450.874 380.41C448.967 379.266 451.987 377.708 453.734 377.073C454.052 374.848 453.925 370.399 450.874 370.399C447.061 370.399 443.724 378.98 443.247 374.689C442.77 370.399 445.63 372.306 445.63 369.445C445.63 367.157 444.041 364.678 443.247 363.725V358.004C442.293 356.733 439.91 354.954 438.003 358.004C435.62 361.818 432.283 370.399 429.899 368.015C427.516 365.632 427.039 363.725 427.039 360.865C427.039 358.004 430.852 348.947 424.179 351.807C417.505 354.668 426.085 360.865 422.748 360.865C419.411 360.865 415.121 360.865 415.121 362.295C415.121 363.725 418.458 369.445 416.074 369.922C413.691 370.399 409.877 366.109 410.831 370.399C411.784 374.689 414.644 374.213 417.028 375.643C419.411 377.073 416.551 380.41 418.935 380.41C421.318 380.41 423.225 371.829 425.132 373.736C427.039 375.643 437.05 376.596 437.05 378.503C437.05 380.41 435.62 379.933 432.283 380.41C428.946 380.886 425.132 386.607 425.132 390.897C425.132 395.188 432.283 394.711 432.283 397.571C432.283 400.432 437.05 408.059 441.34 409.966C444.772 411.491 441.499 414.415 439.433 415.686C440.704 416.163 442.865 417.498 441.34 419.023C439.433 420.93 437.05 421.883 437.05 422.837C437.05 423.79 441.34 428.081 441.34 429.987C441.34 431.894 436.096 430.941 435.62 434.755C435.143 438.568 433.713 440.952 432.283 443.335C430.852 445.719 432.759 456.206 429.899 457.16C427.039 458.113 421.795 460.973 418.935 464.31C416.074 467.647 412.738 469.078 410.831 466.694C408.924 464.31 405.587 466.217 403.68 468.601C402.155 470.508 397.006 470.984 394.623 470.984C394.623 471.938 395.004 474.131 396.529 475.275C398.436 476.705 390.332 478.135 390.332 475.275C390.332 472.414 390.809 466.217 386.042 468.601C381.275 470.984 380.798 475.275 377.938 473.845C375.078 472.414 377.938 475.751 377.938 477.182C377.938 478.612 377.461 479.088 376.031 480.042C374.601 480.995 375.554 484.332 377.938 484.809C380.321 485.286 377.938 487.669 377.938 489.576C377.938 491.483 391.762 499.11 392.239 501.494C392.716 503.877 398.913 511.981 394.623 516.748C390.332 521.515 395.576 525.329 392.239 525.329C388.902 525.329 384.612 528.189 383.182 529.619C381.751 531.05 375.078 538.2 374.124 535.34C373.171 532.48 374.601 527.236 372.217 526.283C369.834 525.329 365.067 526.759 365.067 523.899C365.067 521.039 363.637 516.748 360.3 516.748C356.963 516.748 355.056 518.655 355.056 514.842C355.056 511.028 353.626 509.121 351.242 510.551C348.859 511.981 350.765 513.411 350.289 517.702C349.812 521.992 347.905 522.946 348.382 526.283C348.859 529.619 352.672 531.526 352.672 533.433C352.672 535.34 356.486 537.247 355.056 539.63C353.626 542.014 353.149 543.921 356.009 546.781C358.87 549.641 361.73 544.874 361.73 551.071C361.73 557.269 360.3 560.129 361.73 561.559C362.874 562.703 365.385 565.531 366.497 566.803C366.656 569.663 366.592 574.907 365.067 573C363.16 570.616 362.683 565.849 359.346 566.326C356.009 566.803 352.672 566.326 352.672 563.942C352.672 561.559 352.196 558.699 350.289 557.269C348.382 555.838 349.812 550.595 348.382 546.781C347.238 543.73 345.681 539.789 345.045 538.2C344.727 535.181 344.187 528.761 344.568 527.236C345.045 525.329 343.138 511.505 338.371 508.644C334.557 506.356 335.511 499.11 336.464 495.773C335.829 494.661 333.699 493.104 330.267 495.773C325.977 499.11 320.733 503.4 320.733 499.587C320.733 495.773 325.023 489.576 322.163 484.809C319.303 480.042 312.629 480.518 311.675 477.182C310.722 473.845 308.815 466.694 306.908 466.694C305.001 466.694 295.944 472.414 293.084 472.414C290.224 472.414 289.27 470.984 287.363 470.984C285.456 470.984 287.84 480.042 285.456 480.042C283.073 480.042 279.736 476.228 279.259 478.135C278.783 480.042 282.596 486.239 279.259 487.192C275.922 488.146 268.772 499.587 265.911 499.587C263.051 499.587 263.528 495.296 261.144 499.587C258.761 503.877 262.574 515.795 259.714 516.748C256.854 517.702 258.284 523.422 258.284 525.329C258.284 527.236 255.424 533.433 252.564 533.433C250.275 533.433 249.703 536.611 249.703 538.2C247.32 537.882 242.553 536.484 242.553 533.433C242.553 529.619 242.076 528.666 239.216 526.283C236.356 523.899 233.495 522.946 233.495 516.748C233.495 510.551 234.925 510.074 232.065 506.737C229.205 503.4 221.578 484.809 221.578 480.042C221.578 475.275 221.578 468.601 218.241 468.601C214.904 468.601 219.194 474.798 217.287 475.275C215.38 475.751 212.997 472.414 210.137 472.414C207.276 472.414 203.939 470.508 206.323 468.601C208.706 466.694 209.183 463.834 203.939 465.264C199.744 466.408 199.967 462.562 200.602 460.497C198.219 460.973 193.452 461.45 193.452 459.543C193.452 457.16 193.928 450.486 190.115 450.486C186.301 450.486 184.871 456.683 179.627 455.73C174.383 454.776 166.279 453.346 161.036 453.823C155.792 454.3 148.164 454.776 147.211 451.916C146.258 449.056 147.688 444.765 143.874 443.335C140.06 441.905 135.293 449.532 131.956 448.579C128.619 447.626 120.515 441.905 119.562 440.952C118.609 439.998 116.702 430.941 112.888 429.987C109.074 429.034 98.5869 429.511 99.0636 433.801C99.5403 438.091 104.307 435.708 105.737 437.615C107.168 439.522 108.598 442.382 110.981 443.335C113.365 444.289 115.748 451.916 115.748 453.823C115.748 455.73 128.619 463.357 132.433 461.45C136.247 459.543 136.247 453.823 140.06 453.823C143.874 453.823 143.874 455.73 143.874 457.637C143.874 459.543 152.455 462.404 154.838 461.45C157.222 460.497 161.036 468.124 161.036 470.984C161.036 473.845 155.315 474.321 153.885 475.751C152.455 477.182 155.792 484.809 152.455 485.762C149.118 486.716 145.781 487.192 143.874 489.099C141.967 491.006 145.781 494.82 141.491 495.296C137.2 495.773 134.34 495.296 131.956 497.203C129.573 499.11 130.526 503.4 127.189 503.877C123.852 504.354 122.422 504.354 120.039 504.831C117.655 505.307 112.411 511.505 110.028 511.981C107.644 512.458 106.691 511.505 104.784 512.935C102.877 514.365 98.1101 512.935 93.8198 512.935C89.5294 512.935 87.1459 512.458 87.1459 508.168C87.1459 503.877 85.7157 497.68 83.8089 495.296C81.9021 492.913 76.6583 494.82 75.7049 491.96C74.7514 489.099 75.7049 482.425 70.9378 480.042C66.1707 477.658 67.1241 479.088 66.6474 475.751C66.1707 472.414 66.6474 464.31 64.2639 462.404C61.8803 460.497 57.5899 459.543 56.1598 455.73C54.7297 451.916 47.5791 441.905 45.6722 440.952C43.7654 439.998 41.8586 428.081 40.9052 426.65C40.1424 425.506 40.5873 420.453 40.9052 418.07C42.4942 416.957 45.6722 414.351 45.6722 412.826C45.6722 410.919 43.7655 403.768 45.6722 401.385C47.579 399.001 47.5791 391.851 45.6722 394.711C43.7653 397.571 40.9052 399.478 40.9052 398.048C40.9052 396.618 39.9517 391.374 38.0448 394.711C36.138 398.048 34.7079 403.292 31.3709 401.385C28.034 399.478 26.6038 395.664 24.2203 396.141C21.8368 396.618 20.8833 403.292 18.4998 401.385C16.1163 399.478 15.6396 396.141 12.3026 396.141C8.96564 396.141 4.67527 395.664 4.67527 393.281C4.67527 390.897 4.19856 389.467 1.81502 386.13C-0.091817 383.461 2.92733 383.111 4.67527 383.27L1.81502 379.933C3.2452 379.615 5.81951 378.598 4.67527 377.073C3.53102 375.547 5.15179 374.53 6.1052 374.213L9.91887 370.399C11.8257 371.511 16.0207 373.641 17.5462 373.259C19.453 372.782 25.1735 366.585 27.5571 366.109C29.9406 365.632 31.3706 364.678 34.7077 364.678C38.0448 364.678 42.3355 371.829 45.6722 371.829C49.0089 371.829 64.2636 373.259 65.6937 371.829C66.8378 370.685 67.1239 369.128 67.1239 368.492C69.0307 369.128 73.035 370.304 73.7978 369.922C74.7512 369.445 81.4251 368.015 83.3319 368.015C85.2388 368.015 95.7263 369.922 96.2031 368.969C96.6798 368.015 98.1099 366.109 98.5866 366.585C99.0633 367.062 105.261 370.399 105.261 371.829C105.261 373.259 101.447 379.456 101.447 380.41V383.747C101.447 384.223 100.017 390.897 102.877 390.897C105.737 390.897 107.167 388.514 109.074 390.897C110.981 393.281 115.271 396.141 119.562 395.188C123.852 394.234 125.282 393.758 125.282 392.327C125.282 390.897 123.852 389.944 124.329 386.607C124.806 383.27 124.806 374.689 121.945 376.119C119.085 377.55 117.655 378.503 117.655 375.166C117.655 371.829 119.085 370.876 116.702 368.015C114.318 365.155 115.748 361.341 115.748 360.388C115.748 359.435 108.597 358.004 107.644 355.621C106.691 353.237 108.597 347.994 107.644 346.564C106.691 345.133 106.691 343.703 110.504 344.18C114.318 344.657 114.795 344.18 114.795 341.32C114.795 338.459 114.795 332.739 111.458 334.169C108.121 335.599 110.981 337.506 109.074 337.029C107.167 336.553 108.597 333.216 106.214 333.216C103.83 333.216 103.83 331.786 101.924 333.692L96.6797 338.936C95.2496 337.347 92.3893 333.692 92.3893 331.786C92.3893 329.879 88.2579 328.766 86.1921 328.449C84.762 325.271 82.3785 318.056 84.2853 314.624C86.6688 310.334 85.7154 317.961 89.5291 318.914C93.3428 319.868 92.3893 316.054 92.3893 311.764C92.3893 307.473 94.7729 308.904 96.6797 306.52C98.5866 304.136 107.167 311.764 105.26 304.613C103.354 297.463 102.877 276.964 99.0633 270.767C95.2496 264.57 106.691 248.362 115.748 237.874Z" fill="#E84456"/>
<path d="M264.958 545.351C267.818 544.397 268.295 542.491 267.818 538.2C267.182 536.611 265.435 532.766 263.528 530.096C261.144 526.759 258.284 534.863 258.284 537.247C258.284 539.63 257.33 541.537 256.854 546.304C256.377 551.071 262.098 546.304 264.958 545.351Z" fill="#E84456"/>
<path d="M399.866 480.042C400.82 478.135 397.959 478.612 396.053 477.658L393.669 479.088C392.557 479.724 390.237 481.472 389.855 483.379C389.378 485.762 391.762 486.239 393.669 487.192C395.576 488.146 397.006 485.762 397.006 484.332C397.006 482.902 398.913 481.949 399.866 480.042Z" fill="#E84456"/>
<path d="M446.107 454.3C445.153 456.683 446.107 460.02 446.107 461.927C445.312 463.039 443.437 465.264 442.293 465.264C440.863 465.264 438.956 463.357 438.48 461.45C438.003 459.543 439.91 455.73 440.863 455.253C441.816 454.776 442.77 448.579 445.153 448.102C447.537 447.626 447.06 451.916 446.107 454.3Z" fill="#E84456"/>
<path d="M483.29 399.478C482.813 398.525 479.953 398.048 479.476 397.095C478.523 397.412 476.521 398.334 476.139 399.478C475.663 400.908 473.279 400.432 472.803 401.385C472.326 402.338 477.093 404.722 478.523 406.152C479.953 407.582 478.523 413.779 480.43 412.826C482.337 411.873 481.86 409.489 483.29 408.059C484.72 406.629 483.767 400.432 483.29 399.478Z" fill="#E84456"/>
<path d="M483.29 396.141C483.29 397.095 479.476 396.141 478.523 395.188C479.635 393.917 481.86 391.183 481.86 390.421C481.86 389.467 485.674 385.654 487.104 384.7C488.534 383.747 490.917 384.7 492.824 384.223C494.731 383.747 496.161 384.223 498.068 384.223C499.975 384.223 499.021 381.84 499.021 379.933C499.021 378.026 499.498 377.073 499.021 374.213C498.64 371.924 501.087 371.67 502.358 371.829C501.882 372.624 501.024 374.594 501.405 376.119C501.882 378.026 502.835 376.119 505.695 375.166C508.556 374.213 511.416 363.725 511.893 360.865C512.369 358.004 509.509 352.761 509.032 351.807C508.556 350.854 509.986 345.61 511.893 345.61C513.799 345.61 520.473 353.237 520.473 355.621C520.473 358.004 519.043 365.632 518.09 367.539C517.136 369.445 519.997 369.445 519.997 371.352C519.997 373.259 518.567 375.166 519.997 378.503C521.427 381.84 521.427 383.747 520.473 384.7C519.52 385.654 519.52 388.514 518.09 389.467C516.66 390.421 516.66 385.177 516.183 383.747C515.706 382.317 514.276 385.177 514.276 386.13C514.276 387.084 511.416 389.467 510.462 390.421C509.509 391.374 505.695 389.467 504.742 388.514C503.789 387.56 500.928 387.56 501.405 389.467C501.882 391.374 502.835 394.711 502.835 396.141C502.835 397.571 499.498 397.095 498.068 395.188C496.638 393.281 497.115 390.421 496.161 389.467C495.398 388.704 493.619 391.374 492.824 392.804H485.674C484.244 392.804 483.29 395.188 483.29 396.141Z" fill="#E84456"/>
<path d="M492.348 394.234C491.871 394.711 489.487 396.141 488.057 396.141C487.58 396.618 486.532 397.762 486.15 398.525C485.674 399.478 487.104 402.338 489.011 402.338C490.917 402.338 489.964 401.385 489.964 399.478C489.964 397.571 492.348 399.478 494.254 399.478C496.161 399.478 494.731 398.048 495.208 396.141C495.685 394.234 492.824 393.758 492.348 394.234Z" fill="#E84456"/>
<path d="M508.556 326.542C509.032 323.681 507.126 319.391 505.695 318.438C505.536 317.802 505.409 316.34 506.172 315.577C507.126 314.624 508.556 315.577 509.986 316.054C511.416 316.531 516.66 321.298 518.567 323.205C520.473 325.112 520.473 324.158 523.334 321.298C526.194 318.438 525.717 322.728 524.287 324.158C522.857 325.588 524.287 325.588 527.624 326.542C530.961 327.495 529.531 328.925 529.531 329.879C529.531 330.832 525.24 331.309 522.38 331.786C519.52 332.262 523.334 337.506 523.334 338.936C523.334 340.366 519.043 339.413 518.09 338.936C517.136 338.459 511.893 335.122 509.509 335.599C507.126 336.076 509.986 338.936 511.893 340.366C513.799 341.796 510.939 342.273 509.032 342.75C507.126 343.227 506.172 341.796 504.742 338.936C503.312 336.076 506.172 333.216 506.172 331.786C506.172 330.355 508.079 329.402 508.556 326.542Z" fill="#E84456"/>
<path d="M534.775 310.81C533.344 311.287 530.961 316.054 530.961 318.438C530.961 318.756 531.247 319.677 532.391 320.821C533.821 322.251 533.821 319.391 534.298 316.531C534.775 313.671 536.205 316.054 536.681 314.147C537.158 312.241 536.205 310.334 534.775 310.81Z" fill="#E84456"/>
<path d="M493.778 252.175C493.778 249.792 489.964 247.408 487.104 246.931C486.468 247.249 485.388 248.362 486.15 250.268C487.104 252.652 487.58 252.652 486.15 255.036C484.72 257.419 486.15 261.233 487.104 263.616C488.057 266 492.824 270.29 494.731 272.197C496.638 274.104 497.115 283.161 496.638 286.498C496.161 289.835 498.545 292.219 499.975 294.602C501.405 296.986 503.312 303.66 502.835 305.567C502.358 307.473 502.358 309.857 503.312 310.334C504.265 310.81 506.649 310.334 506.649 307.473C506.649 304.613 508.079 304.613 509.032 302.706C509.986 300.799 509.986 299.846 509.032 298.893C508.079 297.939 502.358 289.835 502.835 287.452C503.312 285.068 508.556 287.928 509.032 287.452C509.509 286.975 507.602 281.254 506.172 279.824C504.742 278.394 499.975 270.29 498.068 268.86C496.161 267.43 493.778 264.093 493.778 260.756V252.175Z" fill="#E84456"/>
<path d="M567.667 217.852C569.193 217.852 568.939 215.628 568.621 214.515C567.868 213.612 566.145 211.168 564.993 208.318C564.296 207.683 562.805 206.697 562.424 207.841C561.947 209.272 560.994 210.702 560.517 212.132C560.04 213.562 565.761 217.852 567.667 217.852Z" fill="#E84456"/>
<path d="M555.75 187.82C556.703 186.39 556.226 182.576 555.273 181.622C554.479 181.305 552.89 180.955 552.89 182.099C552.89 183.529 550.983 186.39 551.459 189.25C551.936 192.11 554.796 189.25 555.75 187.82Z" fill="#E84456"/>
<path d="M373.171 52.4346C373.171 50.051 369.357 47.6675 366.497 47.6675C365.384 47.8264 363.064 48.3349 362.683 49.0976C362.206 50.051 362.206 54.3414 365.066 54.3414C367.926 54.3414 373.171 54.8181 373.171 52.4346Z" fill="#E84456"/>
<path d="M360.299 45.7606C360.299 44.9979 358.71 44.4894 357.916 44.3305C357.439 45.125 356.581 46.8094 356.962 47.1908C357.439 47.6675 356.962 50.051 358.869 50.051C360.776 50.051 360.299 46.714 360.299 45.7606Z" fill="#E84456"/>
<path d="M339.324 26.2156C338.848 25.2622 336.464 21.9252 333.604 21.9252C332.491 21.9252 330.076 22.0206 329.313 22.4019C328.36 22.8786 328.36 25.2622 328.36 27.6457C328.36 30.0293 330.743 31.4594 332.65 33.8429C334.557 36.2265 333.127 38.1333 334.08 40.5168C335.034 42.9004 340.278 43.8538 345.045 43.8538C349.812 43.8538 346.475 42.4237 345.998 40.5168C345.521 38.61 346.952 37.1799 349.812 36.7032C352.672 36.2265 355.056 36.2265 355.056 35.2731C355.056 34.3196 355.532 32.4128 357.916 32.4128C360.299 32.4128 361.253 27.6457 360.299 27.6457C359.346 27.6457 357.916 23.3553 357.916 21.9252C357.916 20.4951 353.625 20.4951 352.195 20.4951C350.765 20.4951 348.858 20.4951 347.905 21.9252C346.952 23.3553 349.335 25.7389 351.242 27.6457C353.149 29.5526 352.672 30.506 351.719 31.4594C350.765 32.4128 346.952 27.169 346.475 25.2622C345.998 23.3553 344.091 20.0184 342.661 19.5417C341.231 19.065 340.278 20.9718 339.324 22.4019C338.371 23.8321 341.231 23.8321 341.708 25.7389C342.184 27.6457 339.801 27.169 339.324 26.2156Z" fill="#E84456"/>
<path d="M374.601 21.9252C373.171 21.4485 367.45 21.4485 366.973 21.9252C366.656 22.5608 366.02 24.0227 366.02 24.7855C366.02 25.7389 366.973 26.2156 370.31 26.6923C373.647 27.169 373.647 28.5991 377.461 28.5991C381.275 28.5991 380.321 23.8321 380.321 21.9252C380.321 20.0184 376.031 22.4019 374.601 21.9252Z" fill="#E84456"/>
<path d="M192.021 26.2156C192.021 25.2622 190.591 22.4019 189.161 22.4019C188.526 22.8786 187.254 24.0227 187.254 24.7855C187.254 25.7389 188.208 28.5991 189.638 30.0293C191.068 31.4594 191.068 34.3196 190.591 36.2265C190.115 38.1333 191.068 42.9004 192.498 43.3771C193.928 43.8538 194.882 42.9004 195.835 40.5168C196.788 38.1333 198.695 37.6566 201.556 36.2265C204.416 34.7963 203.939 32.4128 203.939 30.0293C203.939 27.6457 201.556 29.0758 200.602 29.0758C199.649 29.0758 197.265 27.169 196.788 24.7855C196.312 22.4019 193.928 23.3553 193.928 24.3088C193.928 25.2622 192.021 27.169 192.021 26.2156Z" fill="#E84456"/>
<path d="M172.476 19.065C172.953 19.5417 172 23.3553 170.093 23.3553C169.775 23.1964 169.235 22.5926 169.616 21.4485C170.093 20.0184 169.139 16.2047 167.233 16.2047C165.326 16.2047 162.465 20.4951 161.512 21.4485C160.559 22.4019 160.082 29.0758 160.559 31.4594C161.035 33.8429 163.896 31.4594 165.802 31.4594C167.709 31.4594 167.233 33.8429 168.186 35.2731C169.139 36.7032 171.046 34.7963 172 33.8429C172.953 32.8895 173.906 31.9361 176.767 31.4594C179.627 30.9827 179.15 32.8895 182.011 34.3196C184.871 35.7498 184.394 31.9361 184.394 30.0293C184.394 28.1224 181.057 26.2156 179.627 24.7855C178.197 23.3553 178.197 20.9718 178.197 19.5417C178.197 18.1116 176.29 17.1581 173.906 15.728C171.523 14.2979 172 18.5883 172.476 19.065Z" fill="#E84456"/>
<path d="M157.698 24.7855C157.698 23.8321 155.315 23.3553 153.408 23.3553C152.931 23.3553 151.787 23.546 151.024 24.3088C150.071 25.2622 150.071 26.6923 151.501 27.169C152.931 27.6457 152.455 28.5991 153.408 30.0293C154.361 31.4594 155.792 29.0758 157.222 28.5991C158.652 28.1224 157.698 25.7389 157.698 24.7855Z" fill="#E84456"/>
<path d="M154.361 5.71714C152.931 5.24043 151.978 1.90347 150.548 1.90347C149.912 1.58567 148.641 1.14074 148.641 1.90347C148.641 2.85689 148.164 5.71714 147.688 7.14726C147.211 8.57739 145.781 9.53081 146.734 11.4376C147.688 13.3445 147.688 13.8212 146.734 16.2047C145.781 18.5883 149.118 20.0184 151.024 20.0184C152.931 20.0184 153.885 20.4951 156.268 21.4485C158.652 22.4019 159.129 19.5417 159.605 18.1116C160.082 16.6814 161.512 16.6814 162.465 13.8212C163.419 10.9609 161.035 8.57739 160.559 6.67056C160.082 4.76372 155.792 6.19385 154.361 5.71714Z" fill="#E84456"/>
<path d="M39.4748 50.5277C39.4748 47.1908 30.894 51.9578 29.9406 53.8647C29.6228 55.1359 29.4639 57.583 31.3707 57.2016C33.7543 56.7249 35.1844 57.2016 35.1844 56.2482C35.1844 55.2948 33.2776 55.7715 33.2776 53.8647C33.2776 51.9578 36.1378 52.4345 36.1378 53.8647C36.1378 55.2948 39.4748 53.8647 39.4748 50.5277Z" fill="#E84456"/>
<path d="M38.0447 59.1085C38.9981 59.1085 38.9981 57.2016 38.9981 56.2482C39.157 56.0893 39.4748 55.3901 39.4748 53.8647C39.4748 51.9578 39.4748 52.9113 41.3816 51.9578C43.2884 51.0044 41.3816 48.6209 41.8583 46.714C42.335 44.8072 44.2419 45.2839 44.2419 46.2373C44.2419 47.1908 44.2419 48.1442 46.1487 49.0976C48.0555 50.051 48.0555 51.9578 47.5788 52.9113C47.1021 53.8647 46.1487 53.388 46.1487 54.8181C46.1487 56.2482 43.7652 56.7249 42.8117 56.2482C41.8583 55.7715 41.8583 58.6317 42.8117 59.5852C43.7652 60.5386 42.8117 61.9687 41.8583 62.9221C40.9049 63.8755 39.4748 63.3988 37.0912 61.492C34.7077 59.5852 37.0912 59.1085 38.0447 59.1085Z" fill="#E84456"/>
<path d="M63.7869 40.0401C63.7869 37.6566 63.7869 38.1333 61.8801 37.6566C61.5623 37.4977 60.736 37.1799 59.9732 37.1799C59.0198 37.1799 59.4965 40.0401 60.4499 40.9935C61.4034 41.947 61.4034 41.4703 62.8335 43.8538C64.2636 46.2373 64.7403 44.3305 64.7403 43.8538C64.7403 43.3771 63.7869 42.4237 63.7869 40.0401Z" fill="#E84456"/>
<path d="M61.8801 45.7606C60.4499 44.3305 60.4499 43.8538 57.113 42.4237C56.7952 42.2648 56.0642 42.3283 55.6829 43.8538C55.2062 45.7606 55.6829 47.6675 57.5897 47.1908C59.4965 46.714 60.4499 48.1442 64.2636 48.6209C68.0773 49.0976 63.3102 47.1908 61.8801 45.7606Z" fill="#E84456"/>
<path d="M62.3568 49.0976C62.3568 47.6675 59.4965 49.0976 59.0198 49.0976C59.0198 49.4154 58.9245 50.2417 58.5431 51.0044C58.0664 51.9578 59.0198 51.9578 61.4034 51.4811C63.7869 51.0044 62.3568 50.5277 62.3568 49.0976Z" fill="#E84456"/>
<path d="M71.8909 51.4811C71.8909 50.5277 69.9841 51.4811 67.6006 50.5277C67.2828 50.3688 66.4565 50.051 65.6937 50.051C64.7403 50.051 64.7403 51.9578 64.7403 52.9113C64.7403 53.8647 64.2636 53.8647 63.3102 56.2482C62.3568 58.6317 63.7869 57.2016 65.217 56.7249C66.6471 56.2482 67.6006 57.6783 69.9841 57.6783C72.3676 57.6783 69.9841 56.2482 70.9375 54.8181C71.8909 53.388 71.8909 52.4345 71.8909 51.4811Z" fill="#E84456"/>
<path d="M76.1813 56.7249C76.658 54.8181 74.7512 55.2948 73.7978 55.2948C73.7097 55.7715 73.3957 57.0109 72.8444 58.155C72.1552 59.5852 73.7978 61.0153 73.7978 60.0619C73.7978 59.1085 75.7046 58.6317 76.1813 56.7249Z" fill="#E84456"/>
<path d="M72.3676 41.947C71.8909 41.947 70.4608 40.5168 70.4608 38.61C70.6197 38.2922 71.1282 37.5612 71.8909 37.1799C72.8444 36.7032 73.3211 38.1333 75.2279 39.0867C77.1347 40.0401 75.9573 40.9935 77.1347 41.947C78.3122 42.9004 79.0416 42.9004 79.5183 43.8538C79.995 44.8072 77.6114 44.8072 76.1813 45.2839C74.7512 45.7606 75.2279 47.1908 76.1813 47.6675C77.1347 48.1442 79.0416 51.0044 78.0881 51.4811C77.1347 51.9578 76.1813 51.4811 74.2745 51.4811C72.3676 51.4811 70.4608 46.2373 70.4608 44.8072C70.4608 43.3771 71.8909 45.2839 72.3676 44.3305C72.8444 43.3771 72.8444 41.947 72.3676 41.947Z" fill="#E84456"/>
<path d="M82.3785 33.3662C81.4251 32.4128 79.5183 33.3662 78.0881 34.3196C77.6114 34.9552 76.658 36.4171 76.658 37.1799C76.658 38.1333 76.658 39.0867 77.6114 40.0401C78.5648 40.9935 79.0416 41.4703 79.995 41.947C80.9484 42.4237 82.8552 41.947 83.3319 40.5168C83.8086 39.0867 84.7621 38.61 84.976 37.6566C85.1899 36.7032 83.3319 34.3196 82.3785 33.3662Z" fill="#E84456"/>
<path d="M103.83 86.2808C103.83 84.374 100.493 81.037 99.0633 81.5137C98.1099 81.5137 96.0124 81.6091 95.2496 81.9904C94.2962 82.4672 94.2962 85.3274 94.2962 86.7575C94.2962 88.1877 90.0058 92.478 89.5291 92.478C89.0524 92.478 88.099 92.478 86.6689 91.5246C85.2388 90.5712 83.3319 92.9547 82.8552 93.9082C82.3785 94.8616 79.995 93.9082 78.0881 92.9547C76.1813 92.0013 75.2279 94.8616 76.658 95.3383C78.0881 95.815 74.7512 106.779 74.7512 107.256C74.7512 107.733 70.9375 108.686 69.9841 108.209C69.0307 107.733 68.554 109.64 68.554 112.023C68.554 114.407 70.4608 114.883 70.9375 116.313C71.4142 117.744 68.554 116.313 68.554 117.744C68.554 119.174 69.5074 122.034 69.5074 122.511C69.5074 122.987 66.1704 125.371 66.1704 127.278C66.1704 129.185 70.9375 128.708 70.9375 129.661C70.9375 130.615 67.1239 131.568 65.6937 132.522C64.2636 133.475 67.1239 133.952 68.0773 134.905C69.0307 135.858 67.1239 136.335 65.217 136.812C63.3102 137.289 65.217 138.242 65.217 139.672C65.217 141.102 68.0773 140.149 68.554 141.579C69.0307 143.009 68.554 143.963 65.6937 144.439C62.8335 144.916 65.217 149.206 65.6937 151.113C66.1704 153.02 69.5074 151.59 72.3676 151.59C75.2279 151.59 72.8444 152.543 73.3211 154.45C73.7978 156.357 76.658 156.834 79.995 157.787C83.3319 158.74 80.9484 155.88 82.3785 155.88C83.8086 155.88 83.3319 155.88 85.2388 157.787C87.1456 159.694 88.5757 158.74 89.5291 156.357C90.4826 153.973 79.5183 146.823 78.5648 145.869C77.6114 144.916 78.0881 132.998 78.0881 131.568C78.0881 130.138 73.7978 130.615 73.3211 129.661C72.8444 128.708 74.7512 129.185 77.1347 129.661C79.5183 130.138 79.5183 130.138 79.995 126.324C80.4717 122.511 81.4251 121.557 81.4251 117.267C81.4251 112.976 81.9018 112.976 84.2853 113.453C86.6689 113.93 87.1456 114.407 87.1456 111.546C87.1456 108.686 92.3894 100.582 95.2496 97.2451C98.1099 93.9082 100.97 94.3849 103.354 92.478C105.737 90.5712 103.83 88.1877 103.83 86.2808Z" fill="#E84456"/>
<path d="M98.1099 159.217C96.2031 158.264 98.1099 157.31 96.2031 156.357H94.7729C93.8195 156.357 93.8195 157.787 93.8195 159.217C93.8195 160.647 95.2496 160.647 97.1565 161.601C99.0633 162.554 99.0633 166.368 100.493 167.321C101.924 168.275 101.924 163.031 101.924 161.601C101.924 160.171 100.017 160.171 98.1099 159.217Z" fill="#E84456"/>
<path d="M537.158 619.241V590.638C536.681 589.685 535.251 587.778 533.344 587.778C530.961 587.778 527.147 586.824 523.334 585.394C519.52 583.964 520.95 586.348 519.997 587.778C519.043 589.208 515.23 589.208 512.846 590.638C510.462 592.068 510.939 594.452 510.462 594.452C509.986 594.452 507.126 589.208 506.172 589.685C505.219 590.161 499.975 590.638 498.068 591.592C496.161 592.545 500.928 593.498 500.928 594.928C500.928 596.359 503.312 594.928 504.265 594.452C505.219 593.975 506.649 596.359 508.556 597.789C510.462 599.219 516.183 599.219 519.997 599.696C523.711 600.16 523.356 603.337 522.894 607.465L522.857 607.8C522.38 612.09 525.24 607.8 526.671 607.8C528.101 607.8 533.344 608.753 530.961 610.183C528.577 611.613 528.101 614.473 525.24 616.38C522.38 618.287 529.054 616.38 530.961 614.473C532.868 612.567 532.868 619.241 533.344 620.671C533.726 621.815 536.046 620.194 537.158 619.241Z" fill="#E84456"/>
<path d="M508.079 609.23C509.986 608.276 509.032 603.986 507.126 603.986C506.808 604.304 505.981 604.939 505.219 604.939C504.265 604.939 502.358 606.369 504.265 607.8C506.172 609.23 506.172 610.183 508.079 609.23Z" fill="#E84456"/>
<path d="M500.928 581.581C499.975 581.581 500.928 578.72 499.021 578.244C498.227 578.879 496.161 580.151 494.254 580.151C491.871 580.15 490.917 582.057 492.348 583.011C493.778 583.964 495.685 583.011 495.685 585.394C495.685 587.778 497.591 588.731 498.068 587.778C498.545 586.824 500.452 585.871 500.928 587.301C501.405 588.731 505.219 587.778 505.219 585.871C505.219 583.964 507.126 582.057 507.126 581.104C507.126 580.15 501.882 581.581 500.928 581.581Z" fill="#E84456"/>
<path d="M478.046 569.663L476.139 567.756C475.822 567.756 474.995 567.851 474.233 568.233C473.279 568.71 473.756 575.86 474.233 573.953C474.709 572.046 476.139 574.43 477.093 576.337C478.046 578.244 479.476 578.244 479.476 576.337C479.476 574.43 480.907 573 481.86 571.093C482.813 569.186 480.907 567.756 479.953 567.756C479.19 567.756 478.364 569.027 478.046 569.663Z" fill="#E84456"/>
<path d="M448.967 573C448.014 573.953 447.06 571.57 444.677 571.093L440.863 573.477C439.274 573.477 436.382 574.049 437.526 576.337C438.956 579.197 436.096 583.487 436.096 587.301C436.096 591.115 433.236 593.975 435.143 597.312C437.049 600.649 439.91 598.265 439.91 597.312C439.91 596.359 438.956 592.545 441.816 591.592C444.677 590.638 441.816 593.975 444.677 595.882C447.537 597.789 448.967 596.359 449.921 594.452C450.874 592.545 447.537 586.824 448.014 586.348C448.49 585.871 450.874 585.871 450.874 584.918C450.874 583.964 451.351 582.057 453.258 583.011C455.164 583.964 456.118 580.151 456.118 579.197C456.118 578.244 453.734 576.814 451.827 578.244C449.921 579.674 448.49 581.581 445.63 581.581C442.77 581.581 444.677 583.487 443.247 584.918C441.816 586.348 441.816 583.964 439.91 581.104C438.003 578.244 441.816 577.29 443.247 575.383C444.677 573.477 446.107 576.337 448.014 574.907C449.921 573.477 451.351 575.86 453.734 575.383C456.118 574.907 455.641 575.383 461.838 574.907C465.175 573.477 462.315 571.57 461.838 571.093C461.362 570.616 458.501 572.523 458.025 573C457.548 573.477 455.164 572.046 453.258 571.093C451.351 570.14 449.921 572.046 448.967 573Z" fill="#E84456"/>
<path d="M330.267 552.501C329.313 552.501 329.313 551.071 327.407 550.118C326.135 549.8 323.593 549.546 323.593 551.071C323.593 552.978 326.93 556.792 328.36 559.175C329.79 561.559 335.034 560.605 336.464 562.512C337.894 564.419 337.417 566.803 339.801 569.186C342.184 571.57 343.615 573 343.615 574.43C343.615 575.86 345.998 579.197 346.952 580.151C347.905 581.104 350.289 587.301 350.289 589.208C350.289 591.115 355.056 593.498 357.439 593.975C359.823 594.452 363.636 603.509 364.113 603.986C364.59 604.463 370.31 603.033 373.171 603.509C376.031 603.986 375.077 599.696 375.077 597.789C375.077 595.882 374.124 593.022 376.984 591.592C379.844 590.161 376.031 585.871 375.077 585.871C374.124 585.871 372.217 587.301 371.264 588.255C370.31 589.208 368.88 588.255 368.403 588.255C367.927 588.255 367.45 583.964 367.45 582.534C367.45 581.104 365.067 583.011 363.16 582.534C361.253 582.057 361.73 580.151 361.73 579.197C361.73 578.244 361.73 575.86 359.346 574.43C357.439 573.286 355.691 573 355.056 573V571.093C353.943 569.663 351.719 566.517 351.719 565.373C351.719 563.942 345.998 565.373 345.998 564.419C345.998 563.466 343.615 559.652 342.184 559.175C340.754 558.699 337.417 555.362 336.464 553.932C335.511 552.501 331.22 552.501 330.267 552.501Z" fill="#E84456"/>
<path d="M337.417 573.477C337.894 572.046 335.511 569.186 334.557 568.233C333.127 568.551 330.457 569.377 331.22 570.14C332.174 571.093 333.604 571.093 334.557 574.43C335.511 577.767 336.941 574.907 337.417 573.477Z" fill="#E84456"/>
<path d="M342.184 578.244C341.708 576.814 340.754 575.383 339.801 574.43L337.894 576.337C337.417 576.814 338.848 578.244 338.848 579.197C338.848 580.151 336.464 581.104 336.941 581.581C337.417 582.057 339.801 583.964 339.801 585.394C339.801 586.824 343.615 585.871 343.615 585.394C343.615 584.918 344.568 582.534 343.138 582.057C341.708 581.581 342.661 579.674 342.184 578.244Z" fill="#E84456"/>
<path d="M346.952 588.255C347.428 586.824 346.475 586.348 345.521 586.348C344.886 586.824 343.615 587.969 343.615 588.731C343.615 589.685 344.091 590.638 344.568 589.685C345.045 588.731 346.475 589.685 346.952 588.255Z" fill="#E84456"/>
<path d="M383.658 606.846C382.705 605.416 378.414 606.369 375.554 606.846C374.124 607.482 371.645 608.848 373.171 609.23C375.077 609.706 375.554 612.567 376.984 613.997C378.414 615.427 384.135 612.567 386.995 612.567C389.855 612.567 395.576 616.38 397.483 616.38C399.389 616.38 405.587 615.904 407.493 617.81C409.4 619.717 412.261 617.81 412.261 616.857C412.261 615.904 409.4 615.427 406.54 615.427C403.68 615.427 404.157 613.997 404.157 612.567C404.157 611.137 406.54 612.567 409.4 613.52C412.261 614.473 410.83 610.66 409.4 609.706C408.256 608.944 407.017 610.66 406.54 611.613C405.428 610.978 403.108 609.802 402.726 610.183C402.25 610.66 398.913 610.183 397.483 609.706C396.053 609.23 392.716 609.23 392.239 610.183C391.762 611.137 387.472 610.183 386.042 610.183C384.612 610.183 384.612 608.276 383.658 606.846Z" fill="#E84456"/>
<path d="M417.504 617.81C418.458 616.38 417.504 615.427 416.074 616.38L414.167 615.427C413.85 616.698 413.5 619.241 414.644 619.241C416.074 619.241 416.551 619.241 417.504 617.81Z" fill="#E84456"/>
<path d="M430.376 616.857C429.231 618.001 425.45 617.969 423.702 617.81C423.702 617.969 423.511 618.478 422.748 619.241C421.795 620.194 425.132 620.671 427.992 620.671C430.852 620.671 431.806 620.194 432.282 618.287C432.759 616.38 431.806 615.427 430.376 616.857Z" fill="#E84456"/>
<path d="M445.63 618.764C444.677 618.764 442.293 616.38 439.91 616.38H437.049C435.619 616.38 436.096 618.287 437.049 618.287C438.003 618.287 438.48 618.287 440.386 619.717C442.293 621.147 444.2 621.624 446.584 620.671C448.967 619.717 450.397 621.624 451.827 619.717C453.258 617.81 452.304 617.81 450.874 616.857C449.444 615.904 448.49 618.287 448.49 618.764C448.49 619.241 446.584 618.764 445.63 618.764Z" fill="#E84456"/>
<path d="M438.003 621.624C437.049 620.194 437.049 620.671 436.096 620.671C434.984 621.147 432.664 622.387 432.282 623.531C431.806 624.961 434.666 623.531 436.573 623.531C438.48 623.531 438.003 625.915 441.34 626.391C444.677 626.868 443.247 623.531 441.34 623.531C439.433 623.531 438.956 623.054 438.003 621.624Z" fill="#E84456"/>
<path d="M461.838 620.194C461.838 621.147 458.978 622.101 457.071 622.578C456.277 623.69 454.878 626.201 455.641 627.345C456.594 628.775 459.455 627.821 462.315 625.438C465.175 623.054 462.315 623.531 464.222 622.101C466.129 620.671 468.512 623.531 469.942 621.624C471.372 619.717 466.129 619.241 465.652 618.287C465.175 617.334 461.838 619.241 461.838 620.194Z" fill="#E84456"/>
<path d="M461.362 617.81C462.792 616.38 461.838 615.904 459.931 615.427C458.978 615.904 456.976 617.143 456.594 618.287C456.118 619.717 456.118 620.671 457.071 620.194C458.025 619.717 459.931 619.241 461.362 617.81Z" fill="#E84456"/>
<path d="M407.97 563.466C406.54 565.373 404.633 564.896 400.82 565.373C400.82 567.597 400.248 571.76 397.959 570.616C395.099 569.186 390.809 566.326 389.855 569.186C388.902 572.046 386.995 579.197 389.855 580.151C392.716 581.104 395.576 582.534 395.099 585.394C394.622 588.255 395.099 593.498 397.483 593.975C399.866 594.452 405.587 593.022 409.4 593.498C413.214 593.975 412.261 595.882 417.504 595.882C422.748 595.882 421.318 591.592 420.841 587.778C420.365 583.964 422.748 584.918 423.702 582.534C424.655 580.151 426.085 578.244 426.085 574.43C426.085 570.616 429.899 574.43 431.806 573.953C433.712 573.477 431.806 571.093 428.945 569.186C426.085 567.279 430.376 567.756 430.376 564.419C430.376 561.082 427.039 563.942 426.085 560.605C425.132 557.269 425.132 556.315 428.945 556.792C432.759 557.269 432.282 555.838 431.806 553.932C431.329 552.025 433.236 553.932 434.189 550.595C435.143 547.258 432.282 549.641 428.469 549.164C424.655 548.688 428.945 546.781 428.469 544.874C427.992 542.967 420.841 545.351 420.365 546.781C419.888 548.211 419.888 551.071 418.458 551.071C417.028 551.071 417.028 557.269 416.074 558.222C415.121 559.175 414.644 555.362 412.261 553.932C409.877 552.501 409.4 561.559 407.97 563.466Z" fill="#E84456"/>
<path d="M439.91 525.329C439.91 526.283 438.48 528.189 435.619 530.573C434.189 531.844 431.329 534.768 431.329 536.293C431.329 538.2 435.143 534.863 435.619 534.387C436.096 533.91 440.863 531.526 441.816 529.619C442.77 527.713 444.2 525.806 444.2 524.376C444.2 522.946 445.63 520.562 444.2 520.562C442.77 520.562 439.91 524.376 439.91 525.329Z" fill="#E84456"/>
<path d="M449.444 519.609C448.967 517.702 448.49 515.795 447.06 514.842C446.742 513.729 446.298 511.409 447.06 511.028C448.014 510.551 448.49 511.028 449.921 511.028C451.351 511.028 452.781 512.935 453.258 516.272C453.734 519.609 453.258 520.562 452.781 521.992C452.304 523.422 449.921 521.515 449.444 519.609Z" fill="#E84456"/>
<path d="M443.723 485.286C442.77 485.762 443.247 491.483 443.723 493.866C428.945 486.239 444.2 493.866 443.247 495.773C442.293 497.68 441.34 497.203 441.34 499.587C441.34 501.97 443.247 504.831 444.2 506.261C444.963 507.405 450.238 508.009 452.781 508.168C453.416 508.644 455.069 509.693 456.594 510.074C458.12 510.456 458.819 511.822 458.978 512.458C458.66 513.729 457.739 516.558 456.594 517.702C455.164 519.132 455.164 519.609 454.688 521.992C454.211 524.376 455.641 524.852 457.548 525.329C459.455 525.806 459.455 525.329 460.408 527.236C461.171 528.761 463.268 527.554 464.222 526.759C464.54 525.488 465.366 522.755 466.129 521.992C467.082 521.039 467.559 518.178 466.605 516.748C465.652 515.318 462.315 516.272 463.268 515.318C464.222 514.365 462.792 512.935 462.315 512.458C461.838 511.981 460.885 507.691 460.885 506.261C460.885 504.831 458.501 503.877 456.594 503.4C454.688 502.924 452.781 504.831 451.351 504.831C449.921 504.831 449.921 501.017 450.397 499.587C450.779 498.443 451.51 497.839 451.827 497.68C451.668 497.044 451.637 495.201 452.781 492.913C454.211 490.053 451.827 487.192 451.351 487.669C450.874 488.146 448.014 486.716 447.06 485.286C446.107 483.855 444.677 484.809 443.723 485.286Z" fill="#E84456"/>
<path d="M457.071 530.573C456.118 529.143 456.594 528.666 458.501 527.236C459.614 527.871 462.029 529.238 462.792 529.619C463.745 530.096 462.315 531.05 462.315 532.48V536.293C462.315 537.723 465.175 538.2 466.605 538.2C468.035 538.2 469.466 538.2 467.559 536.293C465.652 534.387 470.419 531.526 471.849 530.573C473.279 529.619 475.186 531.526 475.186 533.433C475.186 535.34 475.186 536.293 476.616 538.2C478.046 540.107 477.57 541.537 476.616 543.444C475.853 544.969 472.803 543.444 471.372 542.491C470.737 543.603 469.084 545.828 467.559 545.828C466.033 545.828 466.288 544.238 466.605 543.444C466.446 543.285 465.938 542.872 465.175 542.491C464.222 542.014 463.268 540.584 463.268 539.154C463.268 537.723 460.408 541.537 459.455 541.537H456.118C455.164 541.537 456.594 539.63 457.071 538.2C457.453 537.056 458.819 537.723 459.455 538.2C460.09 537.882 461.171 536.484 460.408 533.433C459.455 529.619 458.025 532.003 457.071 530.573Z" fill="#E84456"/>
<path d="M471.372 525.329C471.372 523.422 471.372 523.899 469.466 523.899C468.353 524.535 466.033 526.378 465.652 528.666C465.175 531.526 469.466 531.05 469.466 529.619C469.466 528.189 471.372 527.236 471.372 525.329Z" fill="#E84456"/>
<path d="M451.827 545.351C449.921 544.874 450.874 542.491 452.781 542.491C453.099 542.173 454.02 541.537 455.164 541.537C456.594 541.537 455.641 543.444 455.164 544.874C454.688 546.304 453.734 545.828 451.827 545.351Z" fill="#E84456"/>
<path d="M465.175 545.828C464.698 544.874 463.268 543.444 462.315 543.444H459.455C458.501 543.444 458.025 547.258 458.978 546.781C459.931 546.304 462.315 546.781 462.315 547.734C462.315 548.688 466.129 550.118 467.082 550.118C468.035 550.118 468.035 547.734 467.082 547.734C466.129 547.734 465.652 546.781 465.175 545.828Z" fill="#E84456"/>
<path d="M564.807 207.841C564.867 208.001 564.929 208.16 564.993 208.318M564.993 208.318C566.145 211.168 567.868 213.612 568.621 214.515C568.939 215.628 569.193 217.852 567.667 217.852C565.761 217.852 560.04 213.562 560.517 212.132C560.994 210.702 561.947 209.272 562.424 207.841C562.805 206.697 564.296 207.683 564.993 208.318ZM102.877 171.612C100.97 174.949 124.806 227.386 115.748 237.874C106.691 248.362 95.2496 264.57 99.0633 270.767C102.877 276.964 103.354 297.463 105.26 304.613C107.167 311.764 98.5866 304.136 96.6797 306.52C94.7729 308.904 92.3893 307.473 92.3893 311.764C92.3893 316.054 93.3428 319.868 89.5291 318.914C85.7154 317.961 86.6688 310.334 84.2853 314.624C82.3785 318.056 84.762 325.271 86.1921 328.449C88.2579 328.766 92.3893 329.879 92.3893 331.786C92.3893 333.692 95.2496 337.347 96.6797 338.936C97.7921 337.824 100.398 335.218 101.924 333.692C103.83 331.786 103.83 333.216 106.214 333.216C108.597 333.216 107.167 336.553 109.074 337.029C110.981 337.506 108.121 335.599 111.458 334.169C114.795 332.739 114.795 338.459 114.795 341.32C114.795 344.18 114.318 344.657 110.504 344.18C106.691 343.703 106.691 345.133 107.644 346.563C108.597 347.994 106.691 353.237 107.644 355.621C108.597 358.004 115.748 359.435 115.748 360.388C115.748 361.341 114.318 365.155 116.702 368.015C119.085 370.876 117.655 371.829 117.655 375.166C117.655 378.503 119.085 377.55 121.945 376.119C124.806 374.689 124.806 383.27 124.329 386.607C123.852 389.944 125.282 390.897 125.282 392.327C125.282 393.758 123.852 394.234 119.562 395.188C115.271 396.141 110.981 393.281 109.074 390.897C107.167 388.514 105.737 390.897 102.877 390.897C100.017 390.897 101.447 384.223 101.447 383.747C101.447 383.27 101.447 381.363 101.447 380.41C101.447 379.456 105.261 373.259 105.261 371.829C105.261 370.399 99.0633 367.062 98.5866 366.585C98.1099 366.109 96.6798 368.015 96.2031 368.969C95.7263 369.922 85.2388 368.015 83.3319 368.015C81.4251 368.015 74.7512 369.445 73.7978 369.922C73.035 370.304 69.0307 369.128 67.1239 368.492C67.1239 369.128 66.8378 370.685 65.6937 371.829C64.2636 373.259 49.0089 371.829 45.6722 371.829C42.3355 371.829 38.0448 364.678 34.7077 364.678C31.3706 364.678 29.9406 365.632 27.5571 366.109C25.1735 366.585 19.453 372.782 17.5462 373.259C16.0207 373.641 11.8257 371.511 9.91887 370.399L6.1052 374.213C5.15179 374.53 3.53102 375.547 4.67527 377.073C5.81951 378.598 3.2452 379.615 1.81502 379.933L4.67527 383.27C2.92733 383.111 -0.091817 383.461 1.81502 386.13C4.19856 389.467 4.67527 390.897 4.67527 393.281C4.67527 395.664 8.96564 396.141 12.3026 396.141C15.6396 396.141 16.1163 399.478 18.4998 401.385C20.8833 403.292 21.8368 396.618 24.2203 396.141C26.6038 395.664 28.034 399.478 31.3709 401.385C34.7079 403.292 36.138 398.048 38.0448 394.711C39.9517 391.374 40.9052 396.618 40.9052 398.048C40.9052 399.478 43.7653 397.571 45.6722 394.711C47.5791 391.851 47.579 399.001 45.6722 401.385C43.7655 403.768 45.6722 410.919 45.6722 412.826C45.6722 414.351 42.4942 416.957 40.9052 418.07C40.5873 420.453 40.1424 425.506 40.9052 426.65C41.8586 428.081 43.7654 439.998 45.6722 440.952C47.5791 441.905 54.7297 451.916 56.1598 455.73C57.5899 459.543 61.8803 460.497 64.2639 462.404C66.6474 464.31 66.1707 472.414 66.6474 475.751C67.1241 479.088 66.1707 477.658 70.9378 480.042C75.7049 482.425 74.7514 489.099 75.7049 491.959C76.6583 494.82 81.9021 492.913 83.8089 495.296C85.7157 497.68 87.1459 503.877 87.1459 508.168C87.1459 512.458 89.5294 512.935 93.8198 512.935C98.1101 512.935 102.877 514.365 104.784 512.935C106.691 511.505 107.644 512.458 110.028 511.981C112.411 511.505 117.655 505.307 120.039 504.831C122.422 504.354 123.852 504.354 127.189 503.877C130.526 503.4 129.573 499.11 131.956 497.203C134.34 495.296 137.2 495.773 141.491 495.296C145.781 494.82 141.967 491.006 143.874 489.099C145.781 487.192 149.118 486.716 152.455 485.762C155.792 484.809 152.455 477.182 153.885 475.751C155.315 474.321 161.036 473.845 161.036 470.984C161.036 468.124 157.222 460.497 154.838 461.45C152.455 462.404 143.874 459.543 143.874 457.637C143.874 455.73 143.874 453.823 140.06 453.823C136.247 453.823 136.247 459.543 132.433 461.45C128.619 463.357 115.748 455.73 115.748 453.823C115.748 451.916 113.365 444.289 110.981 443.335C108.598 442.382 107.168 439.522 105.737 437.615C104.307 435.708 99.5403 438.091 99.0636 433.801C98.5869 429.511 109.074 429.034 112.888 429.987C116.702 430.941 118.609 439.998 119.562 440.952C120.515 441.905 128.619 447.626 131.956 448.579C135.293 449.532 140.06 441.905 143.874 443.335C147.688 444.765 146.258 449.056 147.211 451.916C148.164 454.776 155.792 454.3 161.036 453.823C166.279 453.346 174.383 454.776 179.627 455.73C184.871 456.683 186.301 450.486 190.115 450.486C193.928 450.486 193.452 457.16 193.452 459.543C193.452 461.45 198.219 460.973 200.602 460.497C199.967 462.562 199.744 466.408 203.939 465.264C209.183 463.834 208.706 466.694 206.323 468.601C203.939 470.508 207.276 472.414 210.137 472.414C212.997 472.414 215.38 475.751 217.287 475.275C219.194 474.798 214.904 468.601 218.241 468.601C221.578 468.601 221.578 475.275 221.578 480.042C221.578 484.809 229.205 503.4 232.065 506.737C234.925 510.074 233.495 510.551 233.495 516.748C233.495 522.946 236.356 523.899 239.216 526.282C242.076 528.666 242.553 529.619 242.553 533.433C242.553 536.484 247.32 537.882 249.703 538.2C249.703 536.611 250.275 533.433 252.564 533.433C255.424 533.433 258.284 527.236 258.284 525.329C258.284 523.422 256.854 517.702 259.714 516.748C262.574 515.795 258.761 503.877 261.144 499.587C263.528 495.296 263.051 499.587 265.911 499.587C268.772 499.587 275.922 488.146 279.259 487.192C282.596 486.239 278.783 480.042 279.259 478.135C279.736 476.228 283.073 480.042 285.456 480.042C287.84 480.042 285.456 470.984 287.363 470.984C289.27 470.984 290.224 472.414 293.084 472.414C295.944 472.414 305.001 466.694 306.908 466.694C308.815 466.694 310.722 473.845 311.675 477.182C312.629 480.519 319.303 480.042 322.163 484.809C325.023 489.576 320.733 495.773 320.733 499.587C320.733 503.4 325.977 499.11 330.267 495.773C333.699 493.104 335.829 494.661 336.464 495.773C335.511 499.11 334.557 506.356 338.371 508.644C343.138 511.505 345.045 525.329 344.568 527.236C344.187 528.761 344.727 535.181 345.045 538.2C345.681 539.789 347.238 543.73 348.382 546.781C349.812 550.595 348.382 555.838 350.289 557.269C352.196 558.699 352.672 561.559 352.672 563.942C352.672 566.326 356.009 566.803 359.346 566.326C362.683 565.849 363.16 570.616 365.067 573C366.592 574.907 366.656 569.663 366.497 566.803C365.385 565.531 362.874 562.703 361.73 561.559C360.3 560.129 361.73 557.269 361.73 551.071C361.73 544.874 358.87 549.641 356.009 546.781C353.149 543.921 353.626 542.014 355.056 539.63C356.486 537.247 352.672 535.34 352.672 533.433C352.672 531.526 348.859 529.619 348.382 526.282C347.905 522.946 349.812 521.992 350.289 517.702C350.765 513.411 348.859 511.981 351.242 510.551C353.626 509.121 355.056 511.028 355.056 514.841C355.056 518.655 356.963 516.748 360.3 516.748C363.637 516.748 365.067 521.039 365.067 523.899C365.067 526.759 369.834 525.329 372.217 526.282C374.601 527.236 373.171 532.48 374.124 535.34C375.078 538.2 381.752 531.05 383.182 529.619C384.612 528.189 388.902 525.329 392.239 525.329C395.576 525.329 390.332 521.515 394.623 516.748C398.913 511.981 392.716 503.877 392.239 501.494C391.762 499.11 377.938 491.483 377.938 489.576C377.938 487.669 380.321 485.286 377.938 484.809C375.554 484.332 374.601 480.995 376.031 480.042C377.461 479.088 377.938 478.612 377.938 477.182C377.938 475.751 375.078 472.414 377.938 473.845C380.798 475.275 381.275 470.984 386.042 468.601C390.809 466.217 390.332 472.414 390.332 475.275C390.332 478.135 398.436 476.705 396.529 475.275C395.004 474.131 394.623 471.938 394.623 470.984C397.006 470.984 402.155 470.508 403.68 468.601C405.587 466.217 408.924 464.31 410.831 466.694C412.738 469.078 416.074 467.647 418.935 464.31C421.795 460.973 427.039 458.113 429.899 457.16C432.759 456.206 430.852 445.719 432.283 443.335C433.713 440.952 435.143 438.568 435.62 434.755C436.096 430.941 441.34 431.894 441.34 429.987C441.34 428.081 437.05 423.79 437.05 422.837C437.05 421.883 439.433 420.93 441.34 419.023C442.865 417.498 440.704 416.163 439.433 415.686C441.499 414.415 444.772 411.491 441.34 409.966C437.05 408.059 432.283 400.432 432.283 397.571C432.283 394.711 425.132 395.188 425.132 390.897C425.132 386.607 428.946 380.886 432.283 380.41C435.62 379.933 437.05 380.41 437.05 378.503C437.05 376.596 427.039 375.643 425.132 373.736C423.225 371.829 421.318 380.41 418.935 380.41C416.551 380.41 419.411 377.073 417.028 375.643C414.644 374.213 411.784 374.689 410.831 370.399C409.877 366.109 413.691 370.399 416.074 369.922C418.458 369.445 415.121 363.725 415.121 362.295C415.121 360.865 419.411 360.865 422.748 360.865C426.085 360.865 417.505 354.668 424.179 351.807C430.852 348.947 427.039 358.004 427.039 360.865C427.039 363.725 427.515 365.632 429.899 368.015C432.283 370.399 435.62 361.818 438.003 358.004C439.91 354.954 442.293 356.733 443.247 358.004V363.725C444.041 364.678 445.63 367.157 445.63 369.445C445.63 372.306 442.77 370.399 443.247 374.689C443.724 378.98 447.061 370.399 450.874 370.399C453.925 370.399 454.052 374.848 453.734 377.073C451.987 377.708 448.967 379.266 450.874 380.41C453.258 381.84 456.118 383.27 456.118 384.223C456.118 385.177 453.734 392.327 456.118 395.188C458.502 398.048 459.455 391.374 462.315 389.467C465.175 387.56 469.466 389.944 469.466 386.13C469.466 382.317 465.175 372.306 462.315 369.445C459.455 366.585 453.734 360.388 453.734 358.004C453.734 355.621 457.071 355.144 459.455 354.668C461.838 354.191 462.315 353.714 460.885 348.47C459.455 343.227 465.652 333.216 469.466 332.739C473.279 332.262 474.71 336.553 478.047 336.553C481.384 336.553 481.86 326.065 485.197 321.298C488.534 316.531 486.627 309.857 486.627 306.52C486.627 303.183 491.871 295.556 491.871 288.882C491.871 282.208 485.197 280.301 484.244 277.441C483.29 274.581 486.627 270.29 486.627 267.43C486.627 264.57 483.29 262.663 481.86 259.803C480.43 256.942 481.86 255.512 481.86 252.652C481.86 249.792 475.186 253.129 474.71 250.268C474.233 247.408 466.129 246.455 467.559 247.885C468.989 249.315 463.745 255.512 460.885 255.512C458.025 255.512 458.502 247.885 458.502 243.595C458.502 239.304 453.258 246.455 450.397 246.455C447.537 246.455 450.397 240.734 453.258 238.827C456.118 236.921 461.838 205.935 467.559 199.737C473.279 193.54 480.43 197.354 483.29 197.354C486.151 197.354 485.674 194.017 489.011 189.727C491.68 186.294 497.115 188.296 499.498 189.727C501.087 192.269 504.933 196.686 507.602 194.017C510.939 190.68 512.846 195.447 515.707 191.633C518.567 187.82 511.893 189.25 509.033 188.296C506.172 187.343 508.079 180.669 509.033 179.716C509.986 178.762 511.416 172.088 510.463 169.228C509.509 166.368 512.37 163.984 515.707 161.601C519.043 159.217 521.904 159.694 521.904 161.601C521.904 163.508 527.624 170.658 528.578 167.798C529.531 164.938 531.438 163.984 532.391 160.647C533.345 157.31 530.008 153.973 530.008 152.067C530.008 150.16 530.008 148.253 533.345 145.393C536.682 142.532 539.065 145.393 539.065 146.823C539.065 148.253 536.205 154.45 536.205 157.787C536.205 161.124 542.402 164.938 542.879 166.368C543.356 167.798 536.205 170.658 536.205 173.518C536.205 176.379 535.728 191.157 536.205 195.447C536.682 199.737 533.345 199.737 531.438 202.598C529.531 205.458 532.391 206.888 533.345 209.748C534.298 212.609 530.008 212.132 530.008 216.422C530.008 220.713 531.438 218.806 531.438 224.526C531.438 230.247 535.728 231.677 539.065 231.677C542.402 231.677 544.309 235.967 544.786 240.734C545.262 245.501 548.123 243.118 550.983 246.455C553.843 249.792 550.983 255.036 552.89 257.896C554.797 260.756 554.797 254.559 558.134 250.268C561.47 245.978 560.04 235.014 560.04 230.247C560.04 225.48 564.807 227.386 564.807 224.526C564.807 221.666 558.134 224.526 558.134 221.189C558.134 217.852 558.134 213.085 558.134 207.841C558.134 202.598 552.89 201.644 548.123 197.354C543.356 193.063 542.879 175.425 542.879 173.518C542.879 171.612 545.262 174.949 548.123 173.518C550.983 172.088 550.029 163.984 552.89 167.798C555.75 171.612 557.18 171.612 558.134 166.368C559.087 161.124 559.564 157.31 566.238 163.984C572.911 170.658 571.958 164.938 571.958 159.694C571.958 154.45 573.865 153.973 575.295 148.253C576.725 142.532 577.679 138.719 580.539 135.382C583.399 132.045 587.689 132.998 591.503 134.905C595.317 136.812 593.887 130.615 592.933 128.231C591.98 125.848 584.352 121.081 584.352 118.22C584.352 115.36 581.492 116.313 571.958 114.883C562.424 113.453 561.947 105.349 566.238 104.396C570.528 103.442 564.807 105.826 570.051 106.779C575.295 107.733 576.248 102.012 576.248 97.2451C576.248 92.478 563.377 87.7109 566.238 82.4672C569.098 77.2234 571.481 87.2342 576.248 89.6178C581.016 92.0013 573.865 83.8973 581.492 82.4672C589.12 81.037 587.689 88.6644 591.503 85.3274C595.317 81.9905 599.607 84.374 599.13 82.4672C598.654 80.5603 592.933 79.6069 593.887 76.27C594.84 72.933 590.55 72.4563 587.689 72.4563C584.829 72.4563 592.457 65.7824 592.933 63.8755C593.41 61.9687 589.12 58.6318 584.352 58.6318C579.585 58.6318 579.109 52.9113 576.248 52.9113C573.388 52.9113 581.492 64.8289 581.492 68.6426C581.492 71.6936 577.996 69.9138 576.248 68.6426C574.659 66.418 570.909 61.9687 568.621 61.9687C565.761 61.9687 570.051 58.6318 568.621 56.7249C567.191 54.8181 563.854 60.0619 561.947 60.0619C560.04 60.0619 557.18 56.7249 553.843 56.7249C550.506 56.7249 519.52 52.9113 519.52 51.4811C519.52 50.051 512.37 47.6675 510.939 49.5743C509.509 51.4811 499.498 49.5743 499.498 52.9113C499.498 56.2482 509.033 58.6318 510.939 61.9687C512.846 65.3057 503.312 68.6426 502.835 65.7824C502.359 62.9221 499.498 64.8289 498.068 64.8289C496.638 64.8289 494.255 58.6318 493.301 56.7249C492.348 54.8181 488.534 58.6318 486.627 64.8289C484.72 71.0261 477.57 64.8289 475.186 64.8289C472.803 64.8289 473.279 74.8398 471.849 77.2234C470.419 79.6069 467.559 72.4563 466.129 70.5495C464.699 68.6426 459.455 74.8398 459.455 72.4563C459.455 70.0727 457.071 61.9687 444.677 61.0153C432.283 60.0619 429.899 72.4563 429.899 73.8864C429.899 75.0305 427.357 74.9987 426.085 74.8398C425.609 73.4097 424.083 69.7867 421.795 66.7358C418.935 62.9221 418.458 68.6426 417.028 70.5495C415.884 72.0749 413.691 71.1851 412.738 70.5495V64.8289L407.97 65.7824C407.494 64.5111 406.54 61.3013 406.54 58.6318C406.54 55.9622 399.866 59.1085 396.529 61.0153C397.483 64.1933 399.199 70.9308 398.436 72.4563C397.483 74.3631 393.669 70.5494 393.669 68.6426C393.669 67.1172 393.669 66.7358 393.669 66.7358L390.809 65.7824L390.332 61.9687H374.124C374.442 63.5577 374.696 66.7358 373.171 66.7358C371.645 66.7358 369.993 69.2782 369.357 70.5495C371.582 70.3906 375.84 71.0262 375.078 74.8398C374.601 77.7001 376.984 75.7932 378.891 79.1302C380.798 82.4672 374.124 88.6644 371.741 87.2342C369.357 85.8041 362.206 83.8973 362.206 87.2342C362.206 90.5712 356.009 91.5246 355.056 88.6644C354.102 85.8041 344.568 85.3274 348.859 88.6644C353.149 92.0013 356.486 99.1519 355.056 99.1519C353.626 99.1519 348.859 99.1519 348.859 97.2451C348.859 95.3383 341.708 92.478 337.894 92.0013C334.081 91.5246 331.697 85.3274 332.174 83.8973C332.651 82.4672 337.418 87.2342 337.894 83.8973C338.371 80.5603 325.023 70.5495 322.163 70.5495C319.303 70.5495 316.919 75.7932 315.489 74.8398C314.059 73.8864 308.338 73.4097 306.908 75.7932C305.478 78.1768 311.199 81.9905 311.675 83.8973C312.152 85.8041 309.769 85.3274 308.338 85.3274C306.908 85.3274 304.048 81.9905 301.188 85.3274C298.328 88.6644 294.991 88.6644 293.084 88.6644C291.177 88.6644 286.887 80.5603 281.643 80.5603C276.399 80.5603 274.969 88.6644 272.585 88.6644C270.678 88.6644 265.753 84.2151 263.528 81.9905C262.892 83.4206 261.621 87.0436 261.621 90.0945C261.621 93.9082 257.807 93.4314 253.517 94.8616C250.085 96.0057 252.087 100.105 253.517 102.012C252.722 102.012 250.847 101.44 249.703 99.1519C248.273 96.2917 253.517 92.9547 253.517 90.0945C253.517 87.2342 252.564 77.7001 255.901 73.4097C258.57 69.9774 259.237 66.2591 259.237 64.8289L253.517 61.0153C254.312 59.7441 255.901 56.9156 255.901 55.7715C255.901 54.3414 243.029 47.1908 239.692 47.1908C236.356 47.1908 232.065 49.5743 230.635 51.9578C229.205 54.3414 230.635 58.6318 226.821 59.5852C223.008 60.5386 224.915 51.9578 223.961 49.5743C223.008 47.1908 217.764 51.9578 215.38 51.9578C212.997 51.9578 213.95 44.3305 211.09 42.9004C208.23 41.4703 202.986 50.051 203.939 53.8647C204.893 57.6783 205.846 61.0153 209.183 61.0153C212.52 61.0153 213.95 62.4454 213.95 64.8289C213.95 67.2125 201.556 63.8755 205.846 64.8289C210.137 65.7824 209.66 74.3631 209.183 71.5029C208.706 68.6426 203.939 70.5495 202.986 71.5029C202.033 72.4563 199.649 74.8398 197.265 75.7932C194.882 76.7467 197.265 73.4097 197.265 70.5495C197.265 67.6892 188.685 73.4097 187.255 73.4097C185.824 73.4097 187.255 79.1302 187.255 80.5603C187.255 81.9904 182.964 80.5603 181.057 80.5603C179.151 80.5603 178.674 86.7575 176.767 88.6644C174.86 90.5712 176.767 92.478 175.337 94.8616C173.907 97.2451 172.477 99.6286 179.627 102.012C186.778 104.396 182.488 109.64 181.057 111.07C179.627 112.5 176.767 109.64 176.767 108.209C176.767 106.779 171.047 108.686 169.616 109.64C168.186 110.593 165.326 110.593 161.512 111.07C157.699 111.546 161.512 115.36 162.942 118.697C164.373 122.034 165.326 123.941 169.616 123.464C173.907 122.987 172.477 124.894 172.477 127.754C172.477 130.615 174.86 127.754 178.674 127.754C182.488 127.754 180.104 134.905 181.057 137.289C182.011 139.672 188.208 141.579 185.824 143.009C183.441 144.439 187.255 148.253 189.638 150.16C192.022 152.067 193.452 151.113 192.022 152.543C190.592 153.973 187.255 153.02 185.824 150.16C184.394 147.299 182.011 148.253 178.674 145.393C175.337 142.532 176.767 134.905 176.767 132.522C176.767 130.138 175.337 133.475 172 133.475C168.663 133.475 168.186 129.661 161.512 127.754C154.838 125.848 156.269 127.754 159.129 130.138C161.989 132.522 158.175 134.905 153.408 132.522C148.641 130.138 154.362 138.242 158.175 138.719C161.989 139.195 165.803 141.579 165.326 143.009C164.849 144.439 156.269 141.579 151.978 141.579C147.688 141.579 148.164 129.661 146.258 132.522C144.351 135.382 140.537 140.626 144.828 141.579C149.118 142.532 150.548 148.253 150.548 151.113C150.548 153.973 153.885 158.74 156.269 162.554C158.652 166.368 160.082 157.31 160.082 156.357C160.082 155.404 163.419 161.601 167.233 162.077C171.047 162.554 171.047 161.124 172.477 167.798C173.907 174.472 176.767 169.228 176.767 175.425C176.767 181.622 169.14 169.228 168.186 166.368C167.233 163.508 160.082 166.368 160.082 169.228C160.082 172.088 161.512 182.099 160.082 183.529C158.938 184.673 158.334 190.044 158.175 192.587C154.838 192.269 147.497 191.347 144.828 190.203C142.158 189.059 143.715 186.548 144.828 185.436C146.575 185.436 150.453 185.436 151.978 185.436C153.885 185.436 155.792 180.669 156.269 175.425C156.745 170.181 146.258 160.647 144.828 158.74C143.397 156.834 144.828 150.636 144.828 148.253C144.828 145.869 140.537 143.963 138.154 141.579C135.77 139.195 136.247 131.568 136.247 129.661C136.247 127.754 127.666 126.324 125.283 126.324C122.899 126.324 123.852 129.661 125.283 134.905C126.713 140.149 121.946 146.346 121.946 148.253C121.946 150.16 124.329 151.113 127.666 154.45C130.336 157.12 128.778 160.965 127.666 162.554C128.778 163.349 131.575 164.938 133.863 164.938C136.723 164.938 137.677 173.518 136.247 175.425C134.817 177.332 130.526 167.798 127.666 167.798C124.806 167.798 123.852 167.798 121.946 167.798C120.039 167.798 114.318 163.031 109.551 162.554C104.784 162.077 107.168 163.984 106.214 167.798C105.261 171.612 109.074 168.751 109.551 171.612C109.933 173.9 105.261 172.565 102.877 171.612ZM267.818 538.2C268.295 542.491 267.818 544.397 264.958 545.351C262.098 546.304 256.377 551.071 256.854 546.304C257.33 541.537 258.284 539.63 258.284 537.247C258.284 534.863 261.144 526.759 263.528 530.096C265.435 532.766 267.182 536.611 267.818 538.2ZM396.053 477.658C397.959 478.612 400.82 478.135 399.866 480.042C398.913 481.949 397.006 482.902 397.006 484.332C397.006 485.762 395.576 488.146 393.669 487.192C391.762 486.239 389.378 485.762 389.855 483.379C390.237 481.472 392.557 479.724 393.669 479.088L396.053 477.658ZM446.107 461.927C446.107 460.02 445.153 456.683 446.107 454.3C447.06 451.916 447.537 447.626 445.153 448.102C442.77 448.579 441.817 454.776 440.863 455.253C439.91 455.73 438.003 459.543 438.48 461.45C438.956 463.357 440.863 465.264 442.293 465.264C443.437 465.264 445.312 463.039 446.107 461.927ZM479.476 397.095C479.953 398.048 482.813 398.525 483.29 399.478C483.767 400.432 484.72 406.629 483.29 408.059C481.86 409.489 482.337 411.873 480.43 412.826C478.523 413.779 479.953 407.582 478.523 406.152C477.093 404.722 472.326 402.338 472.803 401.385C473.279 400.432 475.663 400.908 476.139 399.478C476.521 398.334 478.523 397.412 479.476 397.095ZM478.523 395.188C479.476 396.141 483.29 397.095 483.29 396.141C483.29 395.188 484.244 392.804 485.674 392.804C486.818 392.804 490.917 392.804 492.824 392.804C493.619 391.374 495.399 388.705 496.161 389.467C497.115 390.421 496.638 393.281 498.068 395.188C499.498 397.095 502.835 397.571 502.835 396.141C502.835 394.711 501.882 391.374 501.405 389.467C500.928 387.56 503.789 387.56 504.742 388.514C505.695 389.467 509.509 391.374 510.462 390.421C511.416 389.467 514.276 387.084 514.276 386.13C514.276 385.177 515.706 382.317 516.183 383.747C516.66 385.177 516.66 390.421 518.09 389.467C519.52 388.514 519.52 385.654 520.473 384.7C521.427 383.747 521.427 381.84 519.997 378.503C518.567 375.166 519.997 373.259 519.997 371.352C519.997 369.445 517.136 369.445 518.09 367.539C519.043 365.632 520.473 358.004 520.473 355.621C520.473 353.237 513.799 345.61 511.893 345.61C509.986 345.61 508.556 350.854 509.032 351.807C509.509 352.761 512.369 358.004 511.893 360.865C511.416 363.725 508.556 374.213 505.695 375.166C502.835 376.119 501.882 378.026 501.405 376.119C501.024 374.594 501.882 372.624 502.358 371.829C501.087 371.67 498.64 371.924 499.021 374.213C499.498 377.073 499.021 378.026 499.021 379.933C499.021 381.84 499.975 384.223 498.068 384.223C496.161 384.223 494.731 383.747 492.824 384.223C490.917 384.7 488.534 383.747 487.104 384.7C485.674 385.654 481.86 389.467 481.86 390.421C481.86 391.183 479.635 393.917 478.523 395.188ZM488.057 396.141C489.487 396.141 491.871 394.711 492.348 394.234C492.824 393.758 495.685 394.234 495.208 396.141C494.731 398.048 496.161 399.478 494.254 399.478C492.348 399.478 489.964 397.571 489.964 399.478C489.964 401.385 490.917 402.338 489.011 402.338C487.104 402.338 485.674 399.478 486.15 398.525C486.532 397.762 487.58 396.618 488.057 396.141ZM505.695 318.438C507.126 319.391 509.032 323.682 508.556 326.542C508.079 329.402 506.172 330.355 506.172 331.786C506.172 333.216 503.312 336.076 504.742 338.936C506.172 341.796 507.126 343.227 509.032 342.75C510.939 342.273 513.799 341.796 511.893 340.366C509.986 338.936 507.126 336.076 509.509 335.599C511.893 335.122 517.136 338.459 518.09 338.936C519.043 339.413 523.334 340.366 523.334 338.936C523.334 337.506 519.52 332.262 522.38 331.786C525.24 331.309 529.531 330.832 529.531 329.879C529.531 328.925 530.961 327.495 527.624 326.542C524.287 325.588 522.857 325.588 524.287 324.158C525.717 322.728 526.194 318.438 523.334 321.298C520.473 324.158 520.473 325.112 518.567 323.205C516.66 321.298 511.416 316.531 509.986 316.054C508.556 315.577 507.126 314.624 506.172 315.577C505.409 316.34 505.536 317.802 505.695 318.438ZM530.961 318.438C530.961 316.054 533.344 311.287 534.775 310.81C536.205 310.334 537.158 312.241 536.681 314.147C536.205 316.054 534.775 313.671 534.298 316.531C533.821 319.391 533.821 322.251 532.391 320.821C531.247 319.677 530.961 318.756 530.961 318.438ZM487.104 246.931C489.964 247.408 493.778 249.792 493.778 252.175C493.778 254.559 493.778 257.419 493.778 260.756C493.778 264.093 496.161 267.43 498.068 268.86C499.975 270.29 504.742 278.394 506.172 279.824C507.602 281.254 509.509 286.975 509.032 287.452C508.556 287.928 503.312 285.068 502.835 287.452C502.358 289.835 508.079 297.939 509.032 298.893C509.986 299.846 509.986 300.8 509.032 302.706C508.079 304.613 506.649 304.613 506.649 307.473C506.649 310.334 504.265 310.81 503.312 310.334C502.358 309.857 502.358 307.473 502.835 305.567C503.312 303.66 501.405 296.986 499.975 294.602C498.545 292.219 496.161 289.835 496.638 286.498C497.115 283.161 496.638 274.104 494.731 272.197C492.824 270.29 488.057 266 487.104 263.616C486.15 261.233 484.72 257.419 486.15 255.036C487.58 252.652 487.104 252.652 486.15 250.268C485.388 248.362 486.468 247.249 487.104 246.931ZM555.273 181.622C556.226 182.576 556.703 186.39 555.75 187.82C554.796 189.25 551.936 192.11 551.459 189.25C550.983 186.39 552.89 183.529 552.89 182.099C552.89 180.955 554.479 181.305 555.273 181.622ZM366.497 47.6675C369.357 47.6675 373.171 50.051 373.171 52.4345C373.171 54.8181 367.926 54.3414 365.066 54.3414C362.206 54.3414 362.206 50.051 362.683 49.0976C363.064 48.3349 365.384 47.8264 366.497 47.6675ZM357.916 44.3305C358.71 44.4894 360.299 44.9979 360.299 45.7606C360.299 46.714 360.776 50.051 358.869 50.051C356.962 50.051 357.439 47.6675 356.962 47.1908C356.581 46.8094 357.439 45.125 357.916 44.3305ZM333.604 21.9252C336.464 21.9252 338.848 25.2622 339.324 26.2156C339.801 27.169 342.184 27.6457 341.708 25.7389C341.231 23.8321 338.371 23.8321 339.324 22.4019C340.278 20.9718 341.231 19.065 342.661 19.5417C344.091 20.0184 345.998 23.3553 346.475 25.2622C346.952 27.169 350.765 32.4128 351.719 31.4594C352.672 30.506 353.149 29.5526 351.242 27.6457C349.335 25.7389 346.952 23.3553 347.905 21.9252C348.858 20.4951 350.765 20.4951 352.195 20.4951C353.625 20.4951 357.916 20.4951 357.916 21.9252C357.916 23.3553 359.346 27.6457 360.299 27.6457C361.253 27.6457 360.299 32.4128 357.916 32.4128C355.532 32.4128 355.056 34.3196 355.056 35.2731C355.056 36.2265 352.672 36.2265 349.812 36.7032C346.952 37.1799 345.521 38.61 345.998 40.5168C346.475 42.4237 349.812 43.8538 345.045 43.8538C340.278 43.8538 335.034 42.9004 334.08 40.5168C333.127 38.1333 334.557 36.2265 332.65 33.8429C330.743 31.4594 328.36 30.0293 328.36 27.6457C328.36 25.2622 328.36 22.8786 329.313 22.4019C330.076 22.0206 332.491 21.9252 333.604 21.9252ZM366.973 21.9252C367.45 21.4485 373.171 21.4485 374.601 21.9252C376.031 22.4019 380.321 20.0184 380.321 21.9252C380.321 23.8321 381.275 28.5991 377.461 28.5991C373.647 28.5991 373.647 27.169 370.31 26.6923C366.973 26.2156 366.02 25.7389 366.02 24.7855C366.02 24.0227 366.656 22.5608 366.973 21.9252ZM189.161 22.4019C190.591 22.4019 192.021 25.2622 192.021 26.2156C192.021 27.169 193.928 25.2622 193.928 24.3088C193.928 23.3553 196.312 22.4019 196.788 24.7855C197.265 27.169 199.649 29.0758 200.602 29.0758C201.556 29.0758 203.939 27.6457 203.939 30.0293C203.939 32.4128 204.416 34.7963 201.556 36.2265C198.695 37.6566 196.788 38.1333 195.835 40.5168C194.882 42.9004 193.928 43.8538 192.498 43.3771C191.068 42.9004 190.115 38.1333 190.591 36.2265C191.068 34.3196 191.068 31.4594 189.638 30.0293C188.208 28.5991 187.254 25.7389 187.254 24.7855C187.254 24.0227 188.526 22.8786 189.161 22.4019ZM170.093 23.3553C172 23.3553 172.953 19.5417 172.476 19.065C172 18.5883 171.523 14.2979 173.906 15.728C176.29 17.1581 178.197 18.1116 178.197 19.5417C178.197 20.9718 178.197 23.3553 179.627 24.7855C181.057 26.2156 184.394 28.1224 184.394 30.0293C184.394 31.9361 184.871 35.7498 182.011 34.3196C179.15 32.8895 179.627 30.9827 176.767 31.4594C173.906 31.9361 172.953 32.8895 172 33.8429C171.046 34.7963 169.139 36.7032 168.186 35.2731C167.233 33.8429 167.709 31.4594 165.802 31.4594C163.896 31.4594 161.035 33.8429 160.559 31.4594C160.082 29.0758 160.559 22.4019 161.512 21.4485C162.465 20.4951 165.326 16.2047 167.233 16.2047C169.139 16.2047 170.093 20.0184 169.616 21.4485C169.235 22.5926 169.775 23.1964 170.093 23.3553ZM153.408 23.3553C155.315 23.3553 157.698 23.8321 157.698 24.7855C157.698 25.7389 158.652 28.1224 157.222 28.5991C155.792 29.0758 154.361 31.4594 153.408 30.0293C152.455 28.5991 152.931 27.6457 151.501 27.169C150.071 26.6923 150.071 25.2622 151.024 24.3088C151.787 23.546 152.931 23.3553 153.408 23.3553ZM150.548 1.90347C151.978 1.90347 152.931 5.24043 154.361 5.71714C155.792 6.19385 160.082 4.76372 160.559 6.67056C161.035 8.57739 163.419 10.9609 162.465 13.8212C161.512 16.6814 160.082 16.6814 159.605 18.1116C159.129 19.5417 158.652 22.4019 156.268 21.4485C153.885 20.4951 152.931 20.0184 151.024 20.0184C149.118 20.0184 145.781 18.5883 146.734 16.2047C147.688 13.8212 147.688 13.3445 146.734 11.4376C145.781 9.53081 147.211 8.57739 147.688 7.14727C148.164 5.71714 148.641 2.85689 148.641 1.90347C148.641 1.14074 149.912 1.58567 150.548 1.90347ZM29.9406 53.8647C30.894 51.9578 39.4748 47.1908 39.4748 50.5277C39.4748 53.8647 36.1378 55.2948 36.1378 53.8647C36.1378 52.4345 33.2776 51.9578 33.2776 53.8647C33.2776 55.7715 35.1844 55.2948 35.1844 56.2482C35.1844 57.2016 33.7543 56.7249 31.3707 57.2016C29.4639 57.583 29.6228 55.1359 29.9406 53.8647ZM38.9981 56.2482C38.9981 57.2016 38.9981 59.1085 38.0447 59.1085C37.0912 59.1085 34.7077 59.5852 37.0912 61.492C39.4748 63.3988 40.9049 63.8755 41.8583 62.9221C42.8117 61.9687 43.7652 60.5386 42.8117 59.5852C41.8583 58.6317 41.8583 55.7715 42.8117 56.2482C43.7652 56.7249 46.1487 56.2482 46.1487 54.8181C46.1487 53.388 47.1021 53.8647 47.5788 52.9113C48.0555 51.9578 48.0555 50.051 46.1487 49.0976C44.2419 48.1442 44.2419 47.1908 44.2419 46.2373C44.2419 45.2839 42.335 44.8072 41.8583 46.714C41.3816 48.6209 43.2884 51.0044 41.3816 51.9578C39.4748 52.9113 39.4748 51.9578 39.4748 53.8647C39.4748 55.3901 39.157 56.0893 38.9981 56.2482ZM61.8801 37.6566C63.7869 38.1333 63.7869 37.6566 63.7869 40.0401C63.7869 42.4237 64.7403 43.3771 64.7403 43.8538C64.7403 44.3305 64.2636 46.2373 62.8335 43.8538C61.4034 41.4703 61.4034 41.947 60.4499 40.9935C59.4965 40.0401 59.0198 37.1799 59.9732 37.1799C60.736 37.1799 61.5623 37.4977 61.8801 37.6566ZM57.113 42.4237C60.4499 43.8538 60.4499 44.3305 61.8801 45.7606C63.3102 47.1908 68.0773 49.0976 64.2636 48.6209C60.4499 48.1442 59.4965 46.714 57.5897 47.1908C55.6829 47.6675 55.2061 45.7606 55.6829 43.8538C56.0642 42.3283 56.7952 42.2648 57.113 42.4237ZM59.0198 49.0976C59.4965 49.0976 62.3568 47.6675 62.3568 49.0976C62.3568 50.5277 63.7869 51.0044 61.4034 51.4811C59.0198 51.9578 58.0664 51.9578 58.5431 51.0044C58.9245 50.2417 59.0198 49.4154 59.0198 49.0976ZM67.6006 50.5277C69.9841 51.4811 71.8909 50.5277 71.8909 51.4811C71.8909 52.4345 71.8909 53.388 70.9375 54.8181C69.9841 56.2482 72.3676 57.6783 69.9841 57.6783C67.6006 57.6783 66.6471 56.2482 65.217 56.7249C63.7869 57.2016 62.3568 58.6317 63.3102 56.2482C64.2636 53.8647 64.7403 53.8647 64.7403 52.9113C64.7403 51.9578 64.7403 50.051 65.6937 50.051C66.4565 50.051 67.2828 50.3688 67.6006 50.5277ZM73.7978 55.2948C74.7512 55.2948 76.658 54.8181 76.1813 56.7249C75.7046 58.6317 73.7978 59.1085 73.7978 60.0619C73.7978 61.0153 72.1552 59.5852 72.8444 58.155C73.3957 57.0109 73.7097 55.7715 73.7978 55.2948ZM70.4608 38.61C70.4608 40.5168 71.8909 41.947 72.3676 41.947C72.8444 41.947 72.8444 43.3771 72.3676 44.3305C71.8909 45.2839 70.4608 43.3771 70.4608 44.8072C70.4608 46.2373 72.3676 51.4811 74.2745 51.4811C76.1813 51.4811 77.1347 51.9578 78.0881 51.4811C79.0416 51.0044 77.1347 48.1442 76.1813 47.6675C75.2279 47.1908 74.7512 45.7606 76.1813 45.2839C77.6114 44.8072 79.995 44.8072 79.5183 43.8538C79.0416 42.9004 78.3122 42.9004 77.1347 41.947C75.9573 40.9935 77.1347 40.0401 75.2279 39.0867C73.3211 38.1333 72.8444 36.7032 71.8909 37.1799C71.1282 37.5612 70.6197 38.2922 70.4608 38.61ZM78.0881 34.3196C79.5183 33.3662 81.4251 32.4128 82.3785 33.3662C83.3319 34.3196 85.1899 36.7032 84.976 37.6566C84.7621 38.61 83.8086 39.0867 83.3319 40.5168C82.8552 41.947 80.9484 42.4237 79.995 41.947C79.0416 41.4703 78.5649 40.9935 77.6114 40.0401C76.658 39.0867 76.658 38.1333 76.658 37.1799C76.658 36.4171 77.6114 34.9552 78.0881 34.3196ZM99.0633 81.5137C100.493 81.037 103.83 84.374 103.83 86.2808C103.83 88.1877 105.737 90.5712 103.354 92.478C100.97 94.3849 98.1099 93.9082 95.2496 97.2451C92.3894 100.582 87.1456 108.686 87.1456 111.546C87.1456 114.407 86.6689 113.93 84.2853 113.453C81.9018 112.976 81.4251 112.976 81.4251 117.267C81.4251 121.557 80.4717 122.511 79.995 126.324C79.5183 130.138 79.5183 130.138 77.1347 129.661C74.7512 129.185 72.8444 128.708 73.3211 129.661C73.7978 130.615 78.0881 130.138 78.0881 131.568C78.0881 132.998 77.6114 144.916 78.5649 145.869C79.5183 146.823 90.4826 153.973 89.5291 156.357C88.5757 158.74 87.1456 159.694 85.2388 157.787C83.3319 155.88 83.8086 155.88 82.3785 155.88C80.9484 155.88 83.3319 158.74 79.995 157.787C76.658 156.834 73.7978 156.357 73.3211 154.45C72.8444 152.543 75.2279 151.59 72.3676 151.59C69.5074 151.59 66.1704 153.02 65.6937 151.113C65.217 149.206 62.8335 144.916 65.6937 144.439C68.554 143.963 69.0307 143.009 68.554 141.579C68.0773 140.149 65.217 141.102 65.217 139.672C65.217 138.242 63.3102 137.289 65.217 136.812C67.1239 136.335 69.0307 135.858 68.0773 134.905C67.1239 133.952 64.2636 133.475 65.6937 132.522C67.1239 131.568 70.9375 130.615 70.9375 129.661C70.9375 128.708 66.1704 129.185 66.1704 127.278C66.1704 125.371 69.5074 122.987 69.5074 122.511C69.5074 122.034 68.554 119.174 68.554 117.744C68.554 116.313 71.4142 117.744 70.9375 116.313C70.4608 114.883 68.554 114.407 68.554 112.023C68.554 109.64 69.0307 107.733 69.9841 108.209C70.9375 108.686 74.7512 107.733 74.7512 107.256C74.7512 106.779 78.0881 95.815 76.658 95.3383C75.2279 94.8616 76.1813 92.0013 78.0881 92.9547C79.995 93.9082 82.3785 94.8616 82.8552 93.9082C83.3319 92.9547 85.2388 90.5712 86.6689 91.5246C88.099 92.478 89.0524 92.478 89.5291 92.478C90.0058 92.478 94.2962 88.1877 94.2962 86.7575C94.2962 85.3274 94.2962 82.4672 95.2496 81.9905C96.0124 81.6091 98.1099 81.5137 99.0633 81.5137ZM96.2031 156.357C98.1099 157.31 96.2031 158.264 98.1099 159.217C100.017 160.171 101.924 160.171 101.924 161.601C101.924 163.031 101.924 168.275 100.493 167.321C99.0633 166.368 99.0633 162.554 97.1565 161.601C95.2496 160.647 93.8195 160.647 93.8195 159.217C93.8195 157.787 93.8195 156.357 94.7729 156.357C95.5357 156.357 96.0442 156.357 96.2031 156.357ZM537.158 590.638V619.241C536.046 620.194 533.726 621.815 533.344 620.671C532.868 619.241 532.868 612.567 530.961 614.474C529.054 616.38 522.38 618.287 525.24 616.38C528.101 614.474 528.577 611.613 530.961 610.183C533.344 608.753 528.101 607.8 526.671 607.8C525.24 607.8 522.38 612.09 522.857 607.8C523.334 603.509 523.81 600.172 519.997 599.696C516.183 599.219 510.462 599.219 508.556 597.789C506.649 596.359 505.219 593.975 504.265 594.452C503.312 594.928 500.928 596.359 500.928 594.928C500.928 593.498 496.161 592.545 498.068 591.592C499.975 590.638 505.219 590.161 506.172 589.685C507.126 589.208 509.986 594.452 510.462 594.452C510.939 594.452 510.462 592.068 512.846 590.638C515.23 589.208 519.043 589.208 519.997 587.778C520.95 586.348 519.52 583.964 523.334 585.394C527.147 586.824 530.961 587.778 533.344 587.778C535.251 587.778 536.681 589.685 537.158 590.638ZM507.126 603.986C509.032 603.986 509.986 608.276 508.079 609.23C506.172 610.183 506.172 609.23 504.265 607.8C502.358 606.369 504.265 604.939 505.219 604.939C505.981 604.939 506.808 604.304 507.126 603.986ZM499.021 578.244C500.928 578.72 499.975 581.581 500.928 581.581C501.882 581.581 507.126 580.151 507.126 581.104C507.126 582.057 505.219 583.964 505.219 585.871C505.219 587.778 501.405 588.731 500.928 587.301C500.452 585.871 498.545 586.824 498.068 587.778C497.591 588.731 495.685 587.778 495.685 585.394C495.685 583.011 493.778 583.964 492.348 583.011C490.917 582.057 491.871 580.151 494.254 580.151C496.161 580.151 498.227 578.879 499.021 578.244ZM476.139 567.756C476.521 568.137 477.57 569.186 478.046 569.663C478.364 569.027 479.19 567.756 479.953 567.756C480.907 567.756 482.813 569.186 481.86 571.093C480.907 573 479.476 574.43 479.476 576.337C479.476 578.244 478.046 578.244 477.093 576.337C476.139 574.43 474.709 572.046 474.233 573.953C473.756 575.86 473.279 568.71 474.233 568.233C474.995 567.851 475.822 567.756 476.139 567.756ZM444.677 571.093C447.06 571.57 448.014 573.953 448.967 573C449.921 572.046 451.351 570.14 453.257 571.093C455.164 572.046 457.548 573.477 458.025 573C458.501 572.523 461.362 570.616 461.838 571.093C462.315 571.57 465.175 573.477 461.838 574.907C455.641 575.383 456.118 574.907 453.734 575.383C451.351 575.86 449.921 573.477 448.014 574.907C446.107 576.337 444.677 573.477 443.247 575.383C441.817 577.29 438.003 578.244 439.91 581.104C441.817 583.964 441.817 586.348 443.247 584.918C444.677 583.487 442.77 581.581 445.63 581.581C448.49 581.581 449.921 579.674 451.827 578.244C453.734 576.814 456.118 578.244 456.118 579.197C456.118 580.151 455.164 583.964 453.257 583.011C451.351 582.057 450.874 583.964 450.874 584.918C450.874 585.871 448.49 585.871 448.014 586.348C447.537 586.824 450.874 592.545 449.921 594.452C448.967 596.359 447.537 597.789 444.677 595.882C441.817 593.975 444.677 590.638 441.817 591.592C438.956 592.545 439.91 596.359 439.91 597.312C439.91 598.265 437.049 600.649 435.143 597.312C433.236 593.975 436.096 591.115 436.096 587.301C436.096 583.487 438.956 579.197 437.526 576.337C436.382 574.049 439.274 573.477 440.863 573.477L444.677 571.093ZM327.407 550.118C329.313 551.071 329.313 552.501 330.267 552.501C331.22 552.501 335.511 552.501 336.464 553.932C337.417 555.362 340.754 558.699 342.184 559.175C343.615 559.652 345.998 563.466 345.998 564.419C345.998 565.373 351.719 563.942 351.719 565.373C351.719 566.517 353.943 569.663 355.056 571.093V573C355.691 573 357.439 573.286 359.346 574.43C361.73 575.86 361.73 578.244 361.73 579.197C361.73 580.151 361.253 582.057 363.16 582.534C365.067 583.011 367.45 581.104 367.45 582.534C367.45 583.964 367.927 588.255 368.403 588.255C368.88 588.255 370.31 589.208 371.264 588.255C372.217 587.301 374.124 585.871 375.077 585.871C376.031 585.871 379.844 590.161 376.984 591.592C374.124 593.022 375.077 595.882 375.077 597.789C375.077 599.696 376.031 603.986 373.171 603.509C370.31 603.033 364.59 604.463 364.113 603.986C363.636 603.509 359.823 594.452 357.439 593.975C355.056 593.498 350.289 591.115 350.289 589.208C350.289 587.301 347.905 581.104 346.952 580.151C345.998 579.197 343.615 575.86 343.615 574.43C343.615 573 342.184 571.57 339.801 569.186C337.417 566.803 337.894 564.419 336.464 562.512C335.034 560.605 329.79 561.559 328.36 559.175C326.93 556.792 323.593 552.978 323.593 551.071C323.593 549.546 326.135 549.8 327.407 550.118ZM334.557 568.233C335.511 569.186 337.894 572.046 337.417 573.477C336.941 574.907 335.511 577.767 334.557 574.43C333.604 571.093 332.174 571.093 331.22 570.14C330.457 569.377 333.127 568.551 334.557 568.233ZM339.801 574.43C340.754 575.383 341.708 576.814 342.184 578.244C342.661 579.674 341.708 581.581 343.138 582.057C344.568 582.534 343.615 584.918 343.615 585.394C343.615 585.871 339.801 586.824 339.801 585.394C339.801 583.964 337.417 582.057 336.941 581.581C336.464 581.104 338.848 580.151 338.848 579.197C338.848 578.244 337.417 576.814 337.894 576.337C338.275 575.955 339.324 574.907 339.801 574.43ZM345.521 586.348C346.475 586.348 347.428 586.824 346.952 588.255C346.475 589.685 345.045 588.731 344.568 589.685C344.091 590.638 343.615 589.685 343.615 588.731C343.615 587.969 344.886 586.824 345.521 586.348ZM375.554 606.846C378.414 606.369 382.705 605.416 383.658 606.846C384.612 608.276 384.612 610.183 386.042 610.183C387.472 610.183 391.762 611.137 392.239 610.183C392.716 609.23 396.053 609.23 397.483 609.706C398.913 610.183 402.25 610.66 402.726 610.183C403.108 609.802 405.428 610.978 406.54 611.613C407.017 610.66 408.256 608.944 409.4 609.706C410.83 610.66 412.261 614.473 409.4 613.52C406.54 612.567 404.157 611.137 404.157 612.567C404.157 613.997 403.68 615.427 406.54 615.427C409.4 615.427 412.261 615.904 412.261 616.857C412.261 617.81 409.4 619.717 407.494 617.81C405.587 615.904 399.389 616.38 397.483 616.38C395.576 616.38 389.855 612.567 386.995 612.567C384.135 612.567 378.414 615.427 376.984 613.997C375.554 612.567 375.077 609.706 373.171 609.23C371.645 608.848 374.124 607.482 375.554 606.846ZM416.074 616.38C417.504 615.427 418.458 616.38 417.504 617.81C416.551 619.241 416.074 619.241 414.644 619.241C413.5 619.241 413.85 616.698 414.167 615.427L416.074 616.38ZM423.702 617.81C425.45 617.969 429.231 618.001 430.376 616.857C431.806 615.427 432.759 616.38 432.282 618.287C431.806 620.194 430.852 620.671 427.992 620.671C425.132 620.671 421.795 620.194 422.748 619.241C423.511 618.478 423.702 617.969 423.702 617.81ZM439.91 616.38C442.293 616.38 444.677 618.764 445.63 618.764C446.584 618.764 448.49 619.241 448.49 618.764C448.49 618.287 449.444 615.904 450.874 616.857C452.304 617.81 453.257 617.81 451.827 619.717C450.397 621.624 448.967 619.717 446.584 620.671C444.2 621.624 442.293 621.147 440.386 619.717C438.48 618.287 438.003 618.287 437.049 618.287C436.096 618.287 435.619 616.38 437.049 616.38C438.194 616.38 439.433 616.38 439.91 616.38ZM436.096 620.671C437.049 620.671 437.049 620.194 438.003 621.624C438.956 623.054 439.433 623.531 441.34 623.531C443.247 623.531 444.677 626.868 441.34 626.391C438.003 625.915 438.48 623.531 436.573 623.531C434.666 623.531 431.806 624.961 432.282 623.531C432.664 622.387 434.984 621.147 436.096 620.671ZM457.071 622.578C458.978 622.101 461.838 621.147 461.838 620.194C461.838 619.241 465.175 617.334 465.652 618.287C466.129 619.241 471.372 619.717 469.942 621.624C468.512 623.531 466.129 620.671 464.222 622.101C462.315 623.531 465.175 623.054 462.315 625.438C459.455 627.821 456.594 628.775 455.641 627.345C454.878 626.201 456.277 623.69 457.071 622.578ZM459.931 615.427C461.838 615.904 462.792 616.38 461.362 617.81C459.931 619.241 458.025 619.717 457.071 620.194C456.118 620.671 456.118 619.717 456.594 618.287C456.976 617.143 458.978 615.904 459.931 615.427ZM400.82 565.373C404.633 564.896 406.54 565.373 407.97 563.466C409.4 561.559 409.877 552.501 412.261 553.932C414.644 555.362 415.121 559.175 416.074 558.222C417.028 557.269 417.028 551.071 418.458 551.071C419.888 551.071 419.888 548.211 420.365 546.781C420.841 545.351 427.992 542.967 428.469 544.874C428.945 546.781 424.655 548.688 428.469 549.164C432.282 549.641 435.143 547.258 434.189 550.595C433.236 553.932 431.329 552.025 431.806 553.932C432.282 555.838 432.759 557.269 428.945 556.792C425.132 556.315 425.132 557.269 426.085 560.605C427.039 563.942 430.376 561.082 430.376 564.419C430.376 567.756 426.085 567.279 428.945 569.186C431.806 571.093 433.712 573.477 431.806 573.953C429.899 574.43 426.085 570.616 426.085 574.43C426.085 578.244 424.655 580.151 423.702 582.534C422.748 584.918 420.365 583.964 420.841 587.778C421.318 591.592 422.748 595.882 417.504 595.882C412.261 595.882 413.214 593.975 409.4 593.498C405.587 593.022 399.866 594.452 397.483 593.975C395.099 593.498 394.622 588.255 395.099 585.394C395.576 582.534 392.716 581.104 389.855 580.151C386.995 579.197 388.902 572.046 389.855 569.186C390.809 566.326 395.099 569.186 397.959 570.616C400.248 571.76 400.82 567.597 400.82 565.373ZM435.619 530.573C438.48 528.189 439.91 526.282 439.91 525.329C439.91 524.376 442.77 520.562 444.2 520.562C445.63 520.562 444.2 522.946 444.2 524.376C444.2 525.806 442.77 527.713 441.817 529.619C440.863 531.526 436.096 533.91 435.619 534.387C435.143 534.863 431.329 538.2 431.329 536.293C431.329 534.768 434.189 531.844 435.619 530.573ZM447.06 514.841C448.49 515.795 448.967 517.702 449.444 519.609C449.921 521.515 452.304 523.422 452.781 521.992C453.257 520.562 453.734 519.609 453.257 516.272C452.781 512.935 451.351 511.028 449.921 511.028C448.49 511.028 448.014 510.551 447.06 511.028C446.298 511.409 446.742 513.729 447.06 514.841ZM443.723 493.866C443.247 491.483 442.77 485.762 443.723 485.286C444.677 484.809 446.107 483.855 447.06 485.286C448.014 486.716 450.874 488.146 451.351 487.669C451.827 487.192 454.211 490.053 452.781 492.913C451.637 495.201 451.668 497.044 451.827 497.68C451.51 497.839 450.779 498.443 450.397 499.587C449.921 501.017 449.921 504.831 451.351 504.831C452.781 504.831 454.688 502.924 456.594 503.4C458.501 503.877 460.885 504.831 460.885 506.261C460.885 507.691 461.838 511.981 462.315 512.458C462.792 512.935 464.222 514.365 463.268 515.318C462.315 516.272 465.652 515.318 466.605 516.748C467.559 518.178 467.082 521.039 466.129 521.992C465.366 522.755 464.54 525.488 464.222 526.759C463.268 527.554 461.171 528.761 460.408 527.236C459.455 525.329 459.455 525.806 457.548 525.329C455.641 524.852 454.211 524.376 454.688 521.992C455.164 519.609 455.164 519.132 456.594 517.702C457.739 516.558 458.66 513.729 458.978 512.458C458.819 511.822 458.12 510.456 456.594 510.074C455.069 509.693 453.416 508.644 452.781 508.168C450.238 508.009 444.963 507.405 444.2 506.261C443.247 504.831 441.34 501.97 441.34 499.587C441.34 497.203 442.293 497.68 443.247 495.773C444.2 493.866 428.945 486.239 443.723 493.866ZM458.501 527.236C456.594 528.666 456.118 529.143 457.071 530.573C458.025 532.003 459.455 529.619 460.408 533.433C461.171 536.484 460.09 537.882 459.455 538.2C458.819 537.723 457.453 537.056 457.071 538.2C456.594 539.63 455.164 541.537 456.118 541.537C457.071 541.537 458.501 541.537 459.455 541.537C460.408 541.537 463.268 537.723 463.268 539.154C463.268 540.584 464.222 542.014 465.175 542.491C465.938 542.872 466.446 543.285 466.605 543.444C466.288 544.238 466.033 545.828 467.559 545.828C469.084 545.828 470.737 543.603 471.372 542.491C472.803 543.444 475.853 544.969 476.616 543.444C477.57 541.537 478.046 540.107 476.616 538.2C475.186 536.293 475.186 535.34 475.186 533.433C475.186 531.526 473.279 529.619 471.849 530.573C470.419 531.526 465.652 534.387 467.559 536.293C469.466 538.2 468.035 538.2 466.605 538.2C465.175 538.2 462.315 537.723 462.315 536.293C462.315 534.863 462.315 533.91 462.315 532.48C462.315 531.05 463.745 530.096 462.792 529.619C462.029 529.238 459.614 527.872 458.501 527.236ZM469.466 523.899C471.372 523.899 471.372 523.422 471.372 525.329C471.372 527.236 469.466 528.189 469.466 529.619C469.466 531.05 465.175 531.526 465.652 528.666C466.033 526.378 468.353 524.535 469.466 523.899ZM452.781 542.491C450.874 542.491 449.921 544.874 451.827 545.351C453.734 545.828 454.688 546.304 455.164 544.874C455.641 543.444 456.594 541.537 455.164 541.537C454.02 541.537 453.099 542.173 452.781 542.491ZM462.315 543.444C463.268 543.444 464.698 544.874 465.175 545.828C465.652 546.781 466.129 547.734 467.082 547.734C468.035 547.734 468.035 550.118 467.082 550.118C466.129 550.118 462.315 548.688 462.315 547.734C462.315 546.781 459.931 546.304 458.978 546.781C458.025 547.258 458.501 543.444 459.455 543.444C460.217 543.444 461.679 543.444 462.315 543.444Z" stroke="black"/>
</svg>
