<svg width="461" height="408" viewBox="0 0 461 408" fill="none" xmlns="http://www.w3.org/2000/svg">
<path d="M243.229 305.567C247.043 302.23 250.38 297.939 257.054 299.369C262.393 300.514 263.41 296.986 263.251 295.079C262.774 292.854 261.726 288.119 261.344 286.975C260.868 285.545 259.437 281.731 261.344 280.778C262.87 280.015 265.158 275.057 266.111 272.674C267.065 273.468 268.972 275.439 268.972 276.964V286.975C268.018 288.405 266.111 291.456 266.111 292.219C266.111 293.172 276.599 297.939 278.982 295.079C281.366 292.219 282.796 299.369 284.703 299.369C286.61 299.369 287.087 292.219 290.9 292.219C293.951 292.219 299.799 289.994 302.341 288.882C304.248 289.994 308.729 292.219 311.399 292.219C314.736 292.219 319.979 294.602 319.503 290.789C319.026 286.975 311.399 287.452 311.399 284.115C311.399 280.812 315.602 272.372 314.301 270.813C314.039 270.563 313.997 270.505 314.259 270.767C314.273 270.782 314.287 270.797 314.301 270.813C315.467 271.925 320.981 276.829 323.316 274.104C326.177 270.767 320.933 266 319.503 264.093C318.073 262.186 320.933 258.849 323.316 258.373C325.7 257.896 336.187 261.709 338.571 256.466C340.955 251.222 343.338 248.362 337.141 248.362C330.944 248.362 325.223 251.222 323.316 252.175C321.409 253.129 307.108 251.222 307.585 242.641C308.062 234.06 303.771 231.677 307.585 228.817C311.399 225.956 319.503 221.666 319.503 219.282C319.503 216.899 323.793 204.028 314.259 207.365C306.632 210.034 306.632 216.422 307.585 219.282C307.267 222.302 304.439 229.198 295.667 232.63C284.703 236.921 300.434 252.652 298.051 258.373C295.667 264.093 294.237 268.86 294.237 270.767C294.237 272.674 297.097 280.778 290.9 280.778C284.703 280.778 286.61 286.975 284.703 288.882C282.796 290.789 276.122 287.452 276.122 284.115C276.122 280.778 275.646 277.918 273.262 272.674C270.878 267.43 274.692 258.373 268.972 258.373C263.251 258.373 258.484 273.15 252.764 270.767C247.043 268.383 250.38 250.745 247.996 248.362C245.613 245.978 243.229 238.827 247.996 237.874C252.764 236.921 255.147 234.537 257.054 232.63C258.961 230.723 266.111 228.817 267.542 228.817C268.972 228.817 270.402 218.329 273.262 215.469C276.122 212.609 273.262 201.168 276.122 200.214C278.982 199.261 289.47 187.82 287.086 185.436C284.703 183.053 297.097 175.902 302.341 174.949C306.536 174.186 313.305 167.003 316.166 163.508C320.456 162.236 329.609 160.457 331.897 163.508C334.185 166.559 336.346 170.182 337.141 171.612C339.048 173.36 343.338 176.855 345.245 176.855C347.628 176.855 357.639 178.762 360.023 179.716C362.406 180.669 386.242 191.157 379.091 200.214C371.941 209.272 357.639 200.214 351.442 200.214C345.245 200.214 358.116 213.562 360.023 215.469C361.93 217.376 369.08 225.956 372.417 223.573C375.754 221.189 369.08 215.469 367.173 215.469C365.267 215.469 361.93 211.178 367.173 211.178C372.417 211.178 373.847 213.562 377.661 215.469C381.475 217.376 379.091 211.178 379.091 207.365C379.091 204.314 384.812 201.326 387.672 200.214L393.392 202.598V192.11C393.392 191.157 381.951 179.716 387.672 179.716C393.392 179.716 401.496 184.483 401.02 186.866C400.543 189.25 394.823 194.017 401.02 194.97C407.217 195.924 403.88 187.82 407.217 185.436C410.554 183.053 416.751 184.959 421.041 176.855C424.474 170.372 425.014 176.061 424.855 179.716C426.126 181.305 429.05 183.529 430.576 179.716C432.482 174.949 446.784 168.275 444.877 171.612C442.97 174.949 466.805 227.386 457.748 237.874C448.691 248.362 437.25 264.57 441.063 270.767C444.877 276.964 445.354 297.463 447.26 304.613C449.167 311.764 440.587 304.136 438.68 306.52C436.773 308.904 434.389 307.474 434.389 311.764C434.389 316.054 435.343 319.868 431.529 318.915C427.715 317.961 428.669 310.334 426.285 314.624C424.378 318.056 426.762 325.271 428.192 328.449C430.258 328.766 434.389 329.879 434.389 331.786C434.389 333.692 437.25 337.347 438.68 338.936C435.184 340.049 428.192 342.75 428.192 344.657C428.192 347.04 428.669 353.238 431.529 354.191C433.817 354.954 434.389 359.276 434.389 361.342C436.614 361.659 441.063 362.676 441.063 364.202C441.063 366.109 439.156 369.446 436.773 368.969C434.389 368.492 426.762 367.062 420.565 368.969C415.607 370.494 410.872 368.651 409.124 367.539C408.965 364.361 406.454 356.86 397.683 352.284C386.718 346.564 387.672 343.703 391.486 341.32C395.299 338.936 398.636 331.786 391.486 333.692C384.335 335.599 379.091 347.994 373.847 344.657C368.604 341.32 361.453 336.553 360.023 338.936C358.593 341.32 358.593 345.133 358.593 346.087C358.593 347.04 354.779 345.133 354.302 347.04C353.826 348.947 357.639 350.854 356.686 352.284C355.732 353.714 350.965 352.761 350.965 355.144C350.965 357.528 349.059 367.539 350.965 368.969C352.872 370.399 349.059 374.213 347.152 373.259C345.245 372.306 341.431 368.492 339.524 370.876C337.618 373.259 337.141 375.166 332.85 374.213L332.62 374.161C328.492 373.243 326.653 372.834 326.653 375.643C326.653 378.503 329.99 382.317 329.99 383.747C329.99 385.177 332.85 387.561 332.85 390.897C332.85 394.234 333.327 403.769 329.99 402.338C326.653 400.908 326.653 396.618 324.746 396.141C322.84 395.665 322.84 392.804 322.363 390.897C321.886 388.991 319.503 382.793 317.596 382.317C315.689 381.84 309.969 378.98 309.969 373.259C309.969 367.539 310.445 363.248 303.771 361.342C297.097 359.435 298.051 358.958 298.528 362.772C299.004 366.585 291.377 358.005 291.377 355.144C291.377 352.284 287.086 346.564 286.133 350.854C285.18 355.144 285.656 346.087 282.796 346.087C279.936 346.087 279.936 346.564 281.366 350.854C282.796 355.144 284.226 358.005 286.133 358.481C288.04 358.958 288.517 362.295 289.947 365.632C292.807 365.632 298.528 365.823 298.528 366.585V370.876C301.864 372.465 308.252 376.024 307.108 377.55C305.678 379.456 302.341 375.643 301.388 375.643C300.434 375.643 302.341 382.317 302.341 383.747C302.341 384.891 301.07 388.991 300.434 390.897H292.33C294.714 389.785 299.29 387.179 298.528 385.654C297.574 383.747 295.191 377.55 293.284 377.55C291.758 377.55 292.013 375.325 292.33 374.213C287.722 372.941 278.124 369.636 276.599 366.585C274.692 362.772 268.972 353.238 265.158 354.191C261.344 355.144 257.054 361.342 253.717 361.342C250.38 361.342 246.09 357.528 243.229 358.481C240.369 359.435 240.369 366.109 240.369 368.969C240.369 371.829 234.172 370.876 231.788 374.213C229.405 377.55 225.591 378.98 226.545 382.317C227.498 385.654 229.405 385.177 227.975 387.561C226.831 389.467 225.591 392.804 225.114 394.234C224.002 394.234 221.396 394.425 219.871 395.188C217.964 396.141 210.813 394.711 207.953 396.141C205.093 397.571 205.569 399.955 203.186 399.478C200.802 399.001 199.849 397.095 197.465 396.141C195.082 395.188 194.128 397.095 191.745 396.141C189.838 395.378 188.726 388.832 188.408 385.654C187.296 385.177 185.166 383.842 185.548 382.317C186.024 380.41 191.268 368.492 190.315 367.539C189.552 366.776 188.09 362.136 187.455 359.911H191.745L193.652 356.574C194.923 357.21 197.942 358.481 199.849 358.481C202.232 358.481 219.394 362.295 220.824 359.911C222.254 357.528 220.824 347.517 220.824 345.133C220.824 343.227 217.964 341.479 216.534 340.843V335.123C215.262 335.917 212.243 337.029 210.337 335.123C207.953 332.739 207 328.449 210.337 328.449C213.006 328.449 217.805 329.402 219.871 329.879C219.235 327.495 218.345 322.728 219.871 322.728H227.975C229.405 322.728 236.079 320.821 235.602 317.484C235.221 314.815 238.621 314.147 240.369 314.147L243.229 305.567Z" fill="#127575"/>
<path d="M266.588 368.969C269.448 368.969 268.972 365.632 268.018 362.772C266.588 362.772 263.537 363.344 262.774 365.632C261.821 368.492 263.728 368.969 266.588 368.969Z" fill="#127575"/>
<path d="M268.495 373.736C270.02 374.117 268.813 378.344 268.018 380.41C268.177 380.41 268.59 380.696 268.972 381.84C269.448 383.27 265.158 384.7 264.681 383.27C264.205 381.84 263.251 375.166 264.205 374.689C265.158 374.213 266.588 373.259 268.495 373.736Z" fill="#127575"/>
<path d="M290.424 391.851C288.993 392.328 286.133 389.944 283.75 389.467V392.804C283.75 393.758 286.61 397.571 288.04 398.525C289.47 399.478 293.76 398.048 294.714 396.141C295.667 394.234 291.854 391.374 290.424 391.851Z" fill="#127575"/>
<path d="M346.198 404.245C345.436 404.245 341.431 402.021 339.524 400.908C338.253 401.067 335.425 401.576 334.281 402.338C333.137 403.101 333.486 404.563 333.804 405.199C334.44 405.358 336.187 405.485 338.094 404.722C340.478 403.769 340.478 406.629 344.292 407.106C348.105 407.582 347.152 404.245 346.198 404.245Z" fill="#127575"/>
<path d="M382.905 347.04H373.847C372.417 346.246 369.271 344.657 368.127 344.657C366.983 344.657 367.65 346.246 368.127 347.04C368.604 347.994 369.748 350.377 370.51 352.284C371.464 354.668 373.371 355.144 374.324 353.714C375.278 352.284 377.661 352.284 380.998 350.854C384.335 349.424 384.335 347.04 382.905 347.04Z" fill="#127575"/>
<path d="M302.818 275.057C302.818 272.674 304.248 271.72 304.725 270.29C303.454 270.131 300.72 270.004 299.958 270.767C299.004 271.72 299.004 275.534 299.958 276.964C300.911 278.394 302.818 277.441 302.818 275.057Z" fill="#127575"/>
<path d="M276.599 288.882C276.599 287.452 271.355 287.928 269.925 287.928C269.448 288.564 268.495 290.026 268.495 290.789C268.495 291.742 270.402 290.789 274.215 291.265C278.029 291.742 276.599 290.312 276.599 288.882Z" fill="#127575"/>
<path d="M230.835 315.101C229.309 315.864 223.208 316.372 220.347 316.531C219.553 316.69 217.582 317.103 216.057 317.484C214.15 317.961 207.476 322.728 207 322.728C206.523 322.728 203.186 324.158 203.663 320.345C204.139 316.531 219.394 314.147 215.104 314.147C210.813 314.147 205.569 309.38 206.523 308.904C207.476 308.427 213.197 305.09 209.86 304.613C207.19 304.232 206.841 302.547 207 301.753L216.534 300.8L216.057 296.032L215.58 294.602C214.468 293.331 212.148 290.503 211.767 289.359C211.385 288.214 209.701 290.471 208.906 291.742C208.112 291.424 206.523 290.598 206.523 289.835C206.523 288.882 208.43 286.975 208.43 286.498C208.43 286.022 207.476 283.638 207 283.638C206.523 283.638 202.709 286.022 201.279 284.591C200.135 283.447 203.027 280.937 204.616 279.824C205.093 279.507 205.379 278.68 202.709 277.918C199.372 276.964 198.896 274.104 200.326 272.197C201.47 270.672 203.98 272.833 205.093 274.104C204.934 271.72 205.379 266.763 208.43 266C212.243 265.046 212.72 267.907 212.243 268.86C211.862 269.623 211.131 272.038 210.813 273.15C211.767 272.674 214.436 272.006 217.487 273.15C221.301 274.581 217.487 276.964 216.534 277.918C215.771 278.68 214.309 281.731 213.673 283.161C214.468 283.638 216.534 284.591 218.441 284.591C220.824 284.591 219.394 289.359 219.871 290.312C220.347 291.265 227.975 296.509 227.975 297.463C227.975 298.416 227.975 302.706 228.928 302.706C229.882 302.706 230.835 302.23 234.172 303.183C236.841 303.946 236.238 306.679 235.602 307.95L232.742 308.904C232.742 309.38 232.932 310.524 233.695 311.287C234.649 312.241 232.742 314.147 230.835 315.101Z" fill="#127575"/>
<path d="M202.709 296.032C204.139 294.602 203.663 290.789 202.232 288.882C200.961 288.087 198.228 286.498 197.465 286.498C196.512 286.498 191.745 286.975 190.315 287.928C189.171 288.691 192.063 290.789 193.652 291.742C191.904 292.06 187.931 292.696 186.024 292.696C183.641 292.696 185.548 298.893 185.548 300.323C185.548 301.753 188.408 300.323 189.838 300.323C191.268 300.323 186.978 304.613 186.978 306.043C186.978 307.473 182.687 309.38 183.641 311.287C184.594 313.194 190.315 311.287 191.268 309.857C192.222 308.427 193.175 307.473 197.465 307.95C201.756 308.427 200.802 304.613 200.802 301.753C200.802 298.893 201.279 297.463 202.709 296.032Z" fill="#127575"/>
<path d="M352.396 401.385C355.256 400.432 353.349 398.525 351.442 398.525C350.648 398.843 349.059 399.764 349.059 400.908C349.059 402.338 349.535 401.385 352.396 401.385Z" fill="#127575"/>
<path d="M264.681 225.956C266.111 223.096 263.251 223.096 261.344 223.573C261.344 224.049 261.249 225.289 260.868 226.433C260.391 227.863 263.251 228.817 264.681 225.956Z" fill="#127575"/>
<path d="M281.843 184.483C279.459 184.483 277.076 187.82 276.122 189.727V191.633C276.122 193.063 279.459 191.157 281.843 188.296C284.226 185.436 283.75 187.82 284.703 186.39C285.656 184.959 284.226 184.483 281.843 184.483Z" fill="#127575"/>
<path d="M290.424 176.855C290.424 175.425 288.04 176.379 286.133 176.379C285.339 177.809 283.845 180.86 284.226 181.622C284.703 182.576 286.61 182.576 286.61 180.669C286.61 178.762 290.424 178.286 290.424 176.855Z" fill="#127575"/>
<path d="M296.144 172.565C295.826 173.042 294.714 173.709 292.807 172.565C292.33 173.36 291.377 175.139 291.377 175.902C291.377 176.855 294.237 176.379 297.097 175.425C299.386 174.663 297.415 173.201 296.144 172.565Z" fill="#127575"/>
<path d="M303.295 171.135C303.295 170.181 302.818 168.275 300.434 168.751C299.481 169.387 297.574 170.849 297.574 171.612C297.574 172.565 299.481 173.518 300.434 173.518C301.388 173.518 303.295 172.088 303.295 171.135Z" fill="#127575"/>
<path d="M410.077 174.949C409.124 173.677 406.645 171.23 404.357 171.612C403.562 172.724 401.973 175.139 401.973 175.902C401.973 176.855 404.357 178.286 405.787 176.855C406.931 175.711 409.124 175.107 410.077 174.949Z" fill="#127575"/>
<path d="M146.934 210.225C147.093 207.841 146.744 203.074 144.074 203.074C144.074 203.869 143.979 205.553 143.597 205.935C143.121 206.411 142.167 205.458 138.354 205.458C134.54 205.458 130.25 213.562 132.633 211.178C135.017 208.795 144.074 212.608 144.074 214.515C144.074 216.422 133.587 215.945 134.54 217.376C135.303 218.52 141.214 219.124 144.074 219.282C142.326 221.03 139.498 224.526 142.167 224.526C145.504 224.526 151.225 229.77 154.085 229.77C156.945 229.77 158.375 224.526 161.236 224.526C164.096 224.526 165.526 223.573 167.433 221.666C169.34 219.759 172.677 220.713 174.583 218.329C176.49 215.945 174.583 212.608 172.677 211.178C170.77 209.748 172.677 207.365 170.293 205.458C167.909 203.551 162.189 208.795 160.282 210.225C158.375 211.655 155.515 206.888 153.132 205.458C150.748 204.028 149.795 207.365 149.795 211.178C149.795 214.992 148.364 213.085 146.934 212.608C145.79 212.227 146.458 210.861 146.934 210.225Z" fill="#127575"/>
<path d="M88.2992 203.074C87.5364 201.167 85.4389 205.14 84.4855 207.365L77.8117 205.935V212.608L73.5213 212.609C74.9515 214.833 76.9536 219.282 73.5213 219.282C69.231 219.282 70.6611 222.619 71.1378 224.526C71.6145 226.433 69.231 230.247 64.9406 229.77C60.6502 229.293 62.0803 233.584 62.5571 235.967C63.0338 238.351 61.1269 240.258 60.6502 244.071C60.1735 247.885 60.6502 247.885 57.79 247.885C55.5018 247.885 54.6119 250.427 54.453 251.699C53.6585 251.063 51.7834 249.696 50.6393 249.315C49.2092 248.838 52.0695 244.071 52.0695 242.164C52.0695 240.258 48.7325 242.164 47.3024 244.071C46.1583 245.597 41.7408 244.707 39.6751 244.071C41.5819 242.641 44.5375 239.686 41.1052 239.304C36.8148 238.827 36.3381 235.967 36.3381 232.63V227.386C34.2724 227.863 30.1409 228.34 30.1409 226.433C30.1409 224.05 33.0011 222.619 32.0477 221.666C31.0943 220.713 32.0477 217.376 32.0477 215.469C32.0477 213.562 36.3381 214.992 36.3381 212.609C36.3381 210.225 33.0011 211.655 32.0477 211.655C31.0943 211.655 29.1875 207.365 30.1409 204.504C31.0943 201.644 33.0011 204.504 33.0011 201.167C33.0011 197.831 36.3381 196.877 36.3381 195.924C36.3381 194.97 33.9546 197.831 32.0477 194.494C30.1409 191.157 33.9546 189.727 38.7216 189.727C43.4887 189.727 42.5353 184.006 41.1052 177.332C39.6751 170.658 44.9188 174.949 47.3024 172.565C49.6859 170.181 43.9654 157.31 45.8723 153.973C47.7791 150.636 44.9188 149.683 42.5353 148.253C40.1518 146.823 36.3381 152.067 33.9546 152.067C31.571 152.067 36.3381 148.73 33.9546 146.346C31.571 143.963 33.9546 142.532 36.3381 142.056C38.7216 141.579 41.1052 133.475 41.1052 129.185C41.1052 124.894 37.2915 123.941 36.3381 120.127C35.3847 116.313 37.2915 116.313 37.2915 112.977C37.2915 109.64 33.4779 110.593 32.0478 107.733C30.6178 104.872 39.1984 106.303 39.6751 104.872C40.1518 103.442 29.1875 96.2917 26.8039 94.8616C24.4204 93.4315 22.9904 94.8616 20.6067 96.2917C18.2231 97.7218 14.4095 93.4315 12.026 93.4315C9.64244 93.4315 11.5493 96.2917 5.82878 94.8616C0.108279 93.4315 6.78219 89.1411 8.21244 86.7576C9.64268 84.374 4.87548 84.8507 2.01507 83.4206C-0.845341 81.9905 2.96849 78.1768 4.87548 77.2234C6.78247 76.27 12.0259 81.9905 15.8396 81.9905C19.6533 81.9905 18.2231 75.3166 18.2231 73.8864C18.2231 72.4563 9.64256 72.933 8.21244 73.8864C6.78231 74.8399 3.44536 61.492 4.87548 59.1085C6.3056 56.7249 16.7932 59.5852 16.7932 57.6784C16.7932 55.7715 21.5603 55.7715 22.9904 57.6784C24.4205 59.5852 30.6177 58.6318 32.0478 55.7715C33.478 52.9113 38.7218 49.0976 42.0587 47.6675C45.3957 46.2374 42.0586 41.947 39.675 44.3305C37.2915 46.7141 33.0011 42.9004 33.4778 40.0402C33.9545 37.1799 39.1983 37.1799 39.675 35.7498C40.1517 34.3196 45.8722 28.5992 45.8722 31.9361C45.8722 35.2731 49.6859 32.8895 51.5927 32.8895C53.4996 32.8895 56.8365 28.5992 53.9763 25.2622C51.116 21.9252 60.1735 17.6349 58.7434 18.5883C57.5993 19.351 58.2667 23.3554 58.7434 25.2622C59.5379 26.3745 61.6036 28.8852 63.5104 30.0293C65.8939 31.4594 64.9405 27.6457 62.557 25.2622C60.1735 22.8787 62.0803 18.5883 63.5104 18.5883C64.9405 18.5883 71.6144 18.5883 76.3815 16.6815C80.1952 15.156 81.4664 17.3171 81.6253 18.5883C78.765 23.3554 73.4259 33.2815 74.9513 34.8496C76.8582 36.8096 79.7184 28.5992 80.1951 25.2622C80.6719 21.9252 83.0554 26.6923 85.9156 30.0293C88.7759 33.3662 91.6361 30.0293 91.6361 28.5992C91.6361 27.1691 92.1128 16.6815 96.4032 16.6815C100.694 16.6815 98.31 20.4951 96.4032 25.2622C94.4964 30.0293 96.4032 32.8895 101.17 31.9361C105.937 30.9827 104.984 34.3197 107.844 32.8895C110.704 31.4594 104.507 26.6923 102.124 21.9252C100.217 18.1116 101.965 16.8404 103.077 16.6815C104.031 18.4294 106.319 21.2579 107.844 18.5883C109.751 15.2513 112.135 16.2047 114.041 16.6815C115.948 17.1582 114.041 21.9252 115.948 25.2622C117.855 28.5992 122.622 23.8321 120.715 21.9252C118.808 20.0184 119.285 15.2513 118.332 15.2513C117.378 15.2513 111.181 12.8678 113.088 7.14729C114.995 1.42679 121.192 10.0075 122.622 12.8678C124.052 15.728 127.866 10.0075 127.866 9.05412C127.866 8.10071 130.726 5.24046 133.11 4.28704C135.493 3.33362 134.54 6.19387 140.737 2.38021C146.934 -1.43346 144.551 4.28704 152.655 4.28704C160.759 4.28704 158.852 10.0075 155.992 10.0075C153.131 10.0075 148.841 10.961 148.841 12.8678C148.841 14.7746 154.085 15.728 155.992 14.2979C157.899 12.8678 166.003 11.9144 163.619 14.2979C161.236 16.6815 161.236 20.4951 165.049 18.5883C168.863 16.6815 176.013 22.8787 177.444 25.2622C178.874 27.6457 176.013 26.6923 172.677 26.6923C169.34 26.6923 166.956 28.5992 166.003 30.0293C165.049 31.4594 156.468 29.5526 148.841 28.5992C141.214 27.6458 135.017 34.8496 135.493 37.1799C135.97 39.5103 142.644 34.3197 143.121 32.8895C143.597 31.4594 149.318 34.8496 152.655 32.8895C155.992 30.9295 160.282 33.3662 158.852 34.8496C157.422 36.3329 150.748 36.7032 154.085 40.0402C157.422 43.3771 163.619 35.2731 166.956 34.3197C170.293 33.3663 169.34 37.1799 169.34 39.0868C169.34 40.9936 167.433 43.3771 163.619 43.3771C159.805 43.3771 151.701 53.8647 154.085 56.725C156.468 59.5852 160.282 48.1442 163.619 48.1442C166.956 48.1442 177.444 45.7607 178.397 43.3771C179.35 40.9936 185.548 37.1799 190.315 40.0402C195.082 42.9004 192.222 43.8538 193.652 49.0976C194.796 53.2927 190.95 50.8456 188.885 49.0976C188.408 51.0045 187.454 55.1995 187.454 56.725C187.454 58.6318 173.153 51.4812 172.677 54.8181C172.2 58.1551 181.734 60.5386 181.734 61.9687C181.734 63.3989 177.444 61.9688 175.06 60.5386C172.677 59.1085 165.049 65.3057 168.386 67.2125C171.723 69.1194 174.107 64.829 177.444 65.3057C180.781 65.7824 176.013 71.5029 171.246 74.8399C166.479 78.1768 168.386 87.711 168.386 89.6178C168.386 91.5247 163.619 88.6644 163.619 90.5712C163.619 92.4781 166.956 91.048 166.003 94.8616C165.049 98.6753 166.003 96.2917 170.293 100.582C174.583 104.872 167.433 106.303 166.003 105.826C164.572 105.349 162.189 103.919 160.282 107.256C158.375 110.593 163.619 114.883 165.049 115.837C166.479 116.79 166.479 123.941 163.619 123.941C160.759 123.941 158.852 119.174 158.852 121.081C158.852 122.987 160.282 126.801 163.619 128.231C166.956 129.661 165.526 134.905 163.619 135.382C161.712 135.859 163.619 131.091 157.899 130.615C152.178 130.138 152.178 136.335 155.992 136.335C159.805 136.335 160.282 142.532 155.992 143.009C151.701 143.486 153.132 141.579 146.934 139.195C140.737 136.812 140.737 145.393 140.737 147.776C140.737 150.16 142.644 151.59 146.934 154.45C151.225 157.31 149.795 163.031 149.795 165.414C149.795 167.798 152.178 167.321 152.178 170.181C152.178 173.042 149.795 170.181 146.934 170.181C144.074 170.181 142.167 159.217 139.307 157.787C136.447 156.357 130.726 159.694 134.54 159.217C138.354 158.74 138.354 161.124 137.4 164.461C136.447 167.798 125.006 170.181 125.959 172.565C126.913 174.949 134.54 169.228 144.074 172.565C153.608 175.902 144.074 177.809 140.737 179.716C137.4 181.622 140.737 188.296 125.959 187.82C111.181 187.343 103.554 198.784 103.554 201.167C103.554 203.551 100.217 205.458 96.8799 204.504C93.543 203.551 92.5896 207.365 90.206 207.365C87.8225 207.365 89.2526 205.458 88.2992 203.074Z" fill="#127575"/>
<path d="M42.5353 158.74C42.5353 156.834 36.3381 156.357 33.9546 156.357C33.6368 156.834 33.1918 157.978 33.9546 158.74C34.908 159.694 33.9546 162.077 38.7216 162.077C43.4887 162.077 43.9654 165.891 43.9654 164.461C43.9654 163.031 42.5353 160.647 42.5353 158.74Z" fill="#127575"/>
<path d="M41.1052 168.751C41.1052 165.891 37.2915 165.414 36.3381 163.508C34.908 163.508 31.857 163.889 31.0943 165.414C30.1409 167.321 30.1409 168.751 36.3381 171.612C38.7216 171.612 41.1052 171.612 41.1052 168.751Z" fill="#127575"/>
<path d="M33.0011 179.716C34.908 178.762 36.3381 178.286 36.3381 179.716C36.3381 179.852 36.3424 179.949 36.349 180.017C36.383 180.367 36.4774 179.933 36.349 180.017C36.2411 180.087 35.9757 180.523 35.3847 182.099C33.9546 185.913 31.571 188.773 30.1409 187.82C28.9968 187.057 29.6642 184.324 30.1409 183.053L33.0011 179.716Z" fill="#127575"/>
<path d="M149.318 144.916C148.841 142.532 147.411 142.532 144.551 142.532C144.233 143.804 143.788 146.727 144.551 148.253C145.504 150.16 144.551 151.59 146.934 151.59C149.318 151.59 149.795 152.543 152.655 153.973C155.515 155.404 153.132 151.59 152.178 150.16C151.225 148.73 149.795 147.299 149.318 144.916Z" fill="#127575"/>
<path d="M172.2 123.941C172.677 122.511 170.293 122.511 168.386 122.034L166.956 123.941C166.638 124.259 166.003 125.18 166.003 126.324C166.003 127.754 168.386 128.231 168.386 127.278C168.386 126.324 171.723 125.371 172.2 123.941Z" fill="#127575"/>
<path d="M177.444 77.7001C180.304 73.8864 177.444 73.4097 175.537 74.3631C174.901 75.4755 173.344 78.2722 172.2 80.5604C170.77 83.4206 174.583 81.5138 177.444 77.7001Z" fill="#127575"/>
<path d="M265.635 73.4097C263.347 74.5538 261.821 69.4372 261.344 66.7358C260.232 66.7358 257.817 67.4032 257.054 70.0728C256.101 73.4097 257.531 75.7933 261.344 79.1302C265.158 82.4672 261.344 84.374 265.635 87.711C269.925 91.0479 268.972 80.0836 269.925 79.1302C270.879 78.1768 272.785 70.5495 268.972 70.0728C265.158 69.5961 268.495 71.9796 265.635 73.4097Z" fill="#127575"/>
<path d="M277.076 67.6892C276.599 66.2591 277.076 61.9687 273.262 61.9687C272.785 63.5578 272.118 67.5287 273.262 70.7004C274.692 74.6649 273.262 73.4097 274.692 75.7933C276.122 78.1768 273.262 80.0836 271.832 82.4672C270.402 84.8507 275.646 86.7576 273.262 86.7576C270.879 86.7576 267.065 92.4781 269.925 92.4781C272.785 92.4781 275.169 94.3849 275.646 95.3383C276.122 96.2917 268.972 97.2451 271.832 100.582C274.692 103.919 280.889 108.209 280.889 106.779C280.889 105.349 280.413 99.152 282.796 94.3849C285.18 89.6178 284.226 90.5712 282.796 87.711C281.366 84.8507 284.703 81.0371 284.226 75.7933C283.75 70.5495 282.32 68.6426 279.459 67.6892C277.171 66.9265 278.506 70.5495 279.459 72.4563C278.824 71.344 277.457 68.8333 277.076 67.6892Z" fill="#127575"/>
<path d="M288.517 80.5604C290.424 80.0836 290.9 79.1302 292.33 79.1302C293.761 79.1302 295.667 81.0371 293.284 83.8973C291.871 85.5932 291.798 87.2891 291.377 87.9913L296.144 85.8041C296.621 88.6644 297.098 90.0945 298.528 89.6178C299.958 89.1411 303.771 88.1877 303.295 89.6178C302.818 91.0479 300.911 90.5712 300.911 92.4781C300.911 94.3849 302.818 95.3383 299.958 95.3383C297.098 95.3383 293.284 90.5712 293.284 92.4781C293.284 94.3849 291.377 96.2917 290.424 94.3849C289.545 92.6277 289.476 89.7274 290.963 88.3175C290.657 88.3762 290.205 88.201 289.47 87.711C286.61 85.8041 287.563 85.3274 288.517 83.8973C289.279 82.7532 288.835 81.196 288.517 80.5604Z" fill="#127575"/>
<path d="M294.714 73.4097C292.807 74.1725 291.059 71.5029 290.424 70.0728C288.676 70.0728 284.989 69.7868 284.226 68.6426C283.273 67.2125 290.424 66.7358 288.517 66.7358C286.61 66.7358 280.889 64.829 280.889 63.8756V59.5852C280.889 58.6318 280.889 51.9579 282.796 52.4346C284.703 52.9113 284.226 56.7249 287.563 56.7249C290.233 56.7249 291.218 60.2208 291.377 61.9687C292.013 59.7441 293.57 55.2948 294.714 55.2948C296.144 55.2948 297.574 57.6784 298.528 57.6784C299.481 57.6784 302.341 59.5852 305.202 59.5852C308.062 59.5852 307.108 61.9687 305.202 63.8756C303.295 65.7824 305.202 67.6892 305.202 70.0728C305.202 72.4563 301.865 70.0728 299.958 70.0728C298.051 70.0728 297.098 72.4563 294.714 73.4097Z" fill="#127575"/>
<path d="M291.377 87.9913C291.798 87.2891 291.871 85.5932 293.284 83.8973C295.667 81.0371 293.761 79.1302 292.33 79.1302C290.9 79.1302 290.424 80.0836 288.517 80.5604C288.835 81.196 289.279 82.7532 288.517 83.8973C287.563 85.3274 286.61 85.8041 289.47 87.711C290.635 88.4872 291.088 88.4735 291.377 87.9913ZM291.377 87.9913C289.47 89.2251 289.47 92.4781 290.424 94.3849C291.377 96.2917 293.284 94.3849 293.284 92.4781C293.284 90.5712 297.097 95.3383 299.958 95.3383C302.818 95.3383 300.911 94.3849 300.911 92.4781C300.911 90.5712 302.818 91.0479 303.295 89.6178C303.771 88.1877 299.958 89.1411 298.528 89.6178C297.097 90.0945 296.621 88.6644 296.144 85.8041L291.377 87.9913ZM243.229 305.567C247.043 302.23 250.38 297.939 257.054 299.369C262.393 300.514 263.41 296.986 263.251 295.079C262.774 292.854 261.726 288.119 261.344 286.975C260.868 285.545 259.437 281.731 261.344 280.778C262.87 280.015 265.158 275.057 266.111 272.674C267.065 273.468 268.972 275.439 268.972 276.964C268.972 278.49 268.972 284.274 268.972 286.975C268.018 288.405 266.111 291.456 266.111 292.219C266.111 293.172 276.599 297.939 278.982 295.079C281.366 292.219 282.796 299.369 284.703 299.369C286.61 299.369 287.087 292.219 290.9 292.219C293.951 292.219 299.799 289.994 302.341 288.882C304.248 289.994 308.729 292.219 311.399 292.219C314.736 292.219 319.979 294.602 319.503 290.789C319.026 286.975 311.399 287.452 311.399 284.115C311.399 280.778 315.689 272.197 314.259 270.767C312.829 269.337 320.456 277.441 323.316 274.104C326.177 270.767 320.933 266 319.503 264.093C318.073 262.186 320.933 258.849 323.316 258.373C325.7 257.896 336.187 261.709 338.571 256.466C340.955 251.222 343.338 248.362 337.141 248.362C330.944 248.362 325.223 251.222 323.316 252.175C321.409 253.129 307.108 251.222 307.585 242.641C308.062 234.06 303.771 231.677 307.585 228.817C311.399 225.956 319.503 221.666 319.503 219.282C319.503 216.899 323.793 204.028 314.259 207.365C306.632 210.034 306.632 216.422 307.585 219.282C307.267 222.302 304.439 229.198 295.667 232.63C284.703 236.921 300.434 252.652 298.051 258.373C295.667 264.093 294.237 268.86 294.237 270.767C294.237 272.674 297.097 280.778 290.9 280.778C284.703 280.778 286.61 286.975 284.703 288.882C282.796 290.789 276.122 287.452 276.122 284.115C276.122 280.778 275.646 277.918 273.262 272.674C270.878 267.43 274.692 258.373 268.972 258.373C263.251 258.373 258.484 273.15 252.764 270.767C247.043 268.383 250.38 250.745 247.996 248.362C245.613 245.978 243.229 238.827 247.996 237.874C252.764 236.921 255.147 234.537 257.054 232.63C258.961 230.723 266.111 228.817 267.541 228.817C268.972 228.817 270.402 218.329 273.262 215.469C276.122 212.609 273.262 201.168 276.122 200.214C278.982 199.261 289.47 187.82 287.087 185.436C284.703 183.053 297.097 175.902 302.341 174.949C306.536 174.186 313.305 167.003 316.166 163.508C320.456 162.236 329.609 160.457 331.897 163.508C334.185 166.559 336.346 170.181 337.141 171.612C339.048 173.36 343.338 176.855 345.245 176.855C347.628 176.855 357.639 178.762 360.023 179.716C362.406 180.669 386.242 191.157 379.091 200.214C371.941 209.272 357.639 200.214 351.442 200.214C345.245 200.214 358.116 213.562 360.023 215.469C361.93 217.376 369.08 225.956 372.417 223.573C375.754 221.189 369.08 215.469 367.173 215.469C365.267 215.469 361.93 211.178 367.173 211.178C372.417 211.178 373.847 213.562 377.661 215.469C381.475 217.376 379.091 211.178 379.091 207.365C379.091 204.314 384.812 201.326 387.672 200.214L393.392 202.598C393.392 199.42 393.392 192.873 393.392 192.11C393.392 191.157 381.951 179.716 387.672 179.716C393.392 179.716 401.496 184.483 401.02 186.866C400.543 189.25 394.823 194.017 401.02 194.97C407.217 195.924 403.88 187.82 407.217 185.436C410.554 183.053 416.751 184.959 421.041 176.855C424.474 170.372 425.014 176.061 424.855 179.716C426.126 181.305 429.05 183.529 430.576 179.716C432.482 174.949 446.784 168.275 444.877 171.612C442.97 174.949 466.805 227.386 457.748 237.874C448.691 248.362 437.25 264.57 441.063 270.767C444.877 276.964 445.354 297.463 447.26 304.613C449.167 311.764 440.587 304.137 438.68 306.52C436.773 308.904 434.389 307.474 434.389 311.764C434.389 316.054 435.343 319.868 431.529 318.915C427.715 317.961 428.669 310.334 426.285 314.624C424.378 318.056 426.762 325.271 428.192 328.449C430.258 328.766 434.389 329.879 434.389 331.786C434.389 333.692 437.25 337.347 438.68 338.936C435.184 340.049 428.192 342.75 428.192 344.657C428.192 347.04 428.669 353.238 431.529 354.191C433.817 354.954 434.389 359.276 434.389 361.342C436.614 361.659 441.063 362.676 441.063 364.202C441.063 366.109 439.156 369.446 436.773 368.969C434.389 368.492 426.762 367.062 420.565 368.969C415.607 370.494 410.872 368.651 409.124 367.539C408.965 364.361 406.454 356.86 397.683 352.284C386.718 346.564 387.672 343.703 391.486 341.32C395.299 338.936 398.636 331.786 391.486 333.692C384.335 335.599 379.091 347.994 373.847 344.657C368.604 341.32 361.453 336.553 360.023 338.936C358.593 341.32 358.593 345.133 358.593 346.087C358.593 347.04 354.779 345.133 354.302 347.04C353.826 348.947 357.639 350.854 356.686 352.284C355.732 353.714 350.965 352.761 350.965 355.144C350.965 357.528 349.059 367.539 350.965 368.969C352.872 370.399 349.059 374.213 347.152 373.259C345.245 372.306 341.431 368.492 339.524 370.876C337.618 373.259 337.141 375.166 332.85 374.213C328.56 373.259 326.653 372.782 326.653 375.643C326.653 378.503 329.99 382.317 329.99 383.747C329.99 385.177 332.85 387.56 332.85 390.897C332.85 394.234 333.327 403.769 329.99 402.338C326.653 400.908 326.653 396.618 324.746 396.141C322.84 395.665 322.84 392.804 322.363 390.897C321.886 388.991 319.503 382.793 317.596 382.317C315.689 381.84 309.968 378.98 309.968 373.259C309.968 367.539 310.445 363.248 303.771 361.342C297.097 359.435 298.051 358.958 298.528 362.772C299.004 366.585 291.377 358.005 291.377 355.144C291.377 352.284 287.087 346.564 286.133 350.854C285.18 355.144 285.656 346.087 282.796 346.087C279.936 346.087 279.936 346.564 281.366 350.854C282.796 355.144 284.226 358.005 286.133 358.481C288.04 358.958 288.517 362.295 289.947 365.632C292.807 365.632 298.528 365.823 298.528 366.585C298.528 367.348 298.528 369.763 298.528 370.876C301.864 372.465 308.252 376.024 307.108 377.55C305.678 379.456 302.341 375.643 301.388 375.643C300.434 375.643 302.341 382.317 302.341 383.747C302.341 384.891 301.07 388.991 300.434 390.897H292.33C294.714 389.785 299.29 387.179 298.528 385.654C297.574 383.747 295.191 377.55 293.284 377.55C291.758 377.55 292.013 375.325 292.33 374.213C287.722 372.941 278.124 369.636 276.599 366.585C274.692 362.772 268.972 353.238 265.158 354.191C261.344 355.144 257.054 361.342 253.717 361.342C250.38 361.342 246.09 357.528 243.229 358.481C240.369 359.435 240.369 366.109 240.369 368.969C240.369 371.829 234.172 370.876 231.788 374.213C229.405 377.55 225.591 378.98 226.545 382.317C227.498 385.654 229.405 385.177 227.975 387.56C226.831 389.467 225.591 392.804 225.114 394.234C224.002 394.234 221.396 394.425 219.871 395.188C217.964 396.141 210.813 394.711 207.953 396.141C205.093 397.571 205.569 399.955 203.186 399.478C200.802 399.001 199.849 397.095 197.465 396.141C195.082 395.188 194.128 397.095 191.745 396.141C189.838 395.379 188.726 388.832 188.408 385.654C187.296 385.177 185.166 383.842 185.548 382.317C186.024 380.41 191.268 368.492 190.315 367.539C189.552 366.776 188.09 362.136 187.455 359.911H191.745L193.652 356.574C194.923 357.21 197.942 358.481 199.849 358.481C202.232 358.481 219.394 362.295 220.824 359.911C222.254 357.528 220.824 347.517 220.824 345.133C220.824 343.227 217.964 341.479 216.534 340.843V335.123C215.263 335.917 212.243 337.029 210.337 335.123C207.953 332.739 207 328.449 210.337 328.449C213.006 328.449 217.805 329.402 219.871 329.879C219.235 327.495 218.345 322.728 219.871 322.728C221.778 322.728 226.545 322.728 227.975 322.728C229.405 322.728 236.079 320.821 235.602 317.484C235.221 314.815 238.621 314.147 240.369 314.147L243.229 305.567ZM268.018 362.772C268.972 365.632 269.448 368.969 266.588 368.969C263.728 368.969 261.821 368.492 262.774 365.632C263.537 363.344 266.588 362.772 268.018 362.772ZM268.018 380.41C268.813 378.344 270.02 374.117 268.495 373.736C266.588 373.259 265.158 374.213 264.205 374.689C263.251 375.166 264.205 381.84 264.681 383.27C265.158 384.7 269.448 383.27 268.972 381.84C268.59 380.696 268.177 380.41 268.018 380.41ZM283.75 389.467C286.133 389.944 288.993 392.328 290.424 391.851C291.854 391.374 295.667 394.234 294.714 396.141C293.76 398.048 289.47 399.478 288.04 398.525C286.61 397.571 283.75 393.758 283.75 392.804C283.75 392.042 283.75 390.262 283.75 389.467ZM339.524 400.908C341.431 402.021 345.436 404.245 346.198 404.245C347.152 404.245 348.105 407.582 344.292 407.106C340.478 406.629 340.478 403.769 338.094 404.722C336.187 405.485 334.44 405.358 333.804 405.199C333.486 404.563 333.137 403.101 334.281 402.338C335.425 401.576 338.253 401.067 339.524 400.908ZM373.847 347.04C376.39 347.04 381.761 347.04 382.905 347.04C384.335 347.04 384.335 349.424 380.998 350.854C377.661 352.284 375.278 352.284 374.324 353.714C373.371 355.144 371.464 354.668 370.51 352.284C369.748 350.377 368.604 347.994 368.127 347.04C367.65 346.246 366.983 344.657 368.127 344.657C369.271 344.657 372.417 346.246 373.847 347.04ZM304.725 270.29C304.248 271.72 302.818 272.674 302.818 275.057C302.818 277.441 300.911 278.394 299.958 276.964C299.004 275.534 299.004 271.72 299.958 270.767C300.72 270.004 303.454 270.131 304.725 270.29ZM269.925 287.928C271.355 287.928 276.599 287.452 276.599 288.882C276.599 290.312 278.029 291.742 274.215 291.265C270.402 290.789 268.495 291.742 268.495 290.789C268.495 290.026 269.448 288.564 269.925 287.928ZM220.347 316.531C223.208 316.372 229.309 315.864 230.835 315.101C232.742 314.147 234.649 312.241 233.695 311.287C232.932 310.524 232.742 309.38 232.742 308.904L235.602 307.95C236.238 306.679 236.841 303.946 234.172 303.183C230.835 302.23 229.882 302.706 228.928 302.706C227.975 302.706 227.975 298.416 227.975 297.463C227.975 296.509 220.347 291.265 219.871 290.312C219.394 289.359 220.824 284.591 218.441 284.591C216.534 284.591 214.468 283.638 213.673 283.161C214.309 281.731 215.771 278.68 216.534 277.918C217.487 276.964 221.301 274.581 217.487 273.15C214.436 272.006 211.767 272.674 210.813 273.15C211.131 272.038 211.862 269.623 212.243 268.86C212.72 267.907 212.243 265.046 208.43 266C205.379 266.763 204.934 271.72 205.093 274.104C203.98 272.833 201.47 270.672 200.326 272.197C198.896 274.104 199.372 276.964 202.709 277.918C205.379 278.68 205.093 279.507 204.616 279.824C203.027 280.937 200.135 283.447 201.279 284.591C202.709 286.022 206.523 283.638 207 283.638C207.476 283.638 208.43 286.022 208.43 286.498C208.43 286.975 206.523 288.882 206.523 289.835C206.523 290.598 208.112 291.424 208.906 291.742C209.701 290.471 211.385 288.214 211.767 289.359C212.148 290.503 214.468 293.331 215.58 294.602L216.057 296.032L216.534 300.8L207 301.753C206.841 302.547 207.19 304.232 209.86 304.613C213.197 305.09 207.476 308.427 206.523 308.904C205.569 309.38 210.813 314.147 215.104 314.147C219.394 314.147 204.139 316.531 203.663 320.345C203.186 324.158 206.523 322.728 207 322.728C207.476 322.728 214.15 317.961 216.057 317.484C217.582 317.103 219.553 316.69 220.347 316.531ZM202.232 288.882C203.663 290.789 204.139 294.602 202.709 296.032C201.279 297.463 200.802 298.893 200.802 301.753C200.802 304.613 201.756 308.427 197.465 307.95C193.175 307.473 192.222 308.427 191.268 309.857C190.315 311.287 184.594 313.194 183.641 311.287C182.687 309.38 186.978 307.473 186.978 306.043C186.978 304.613 191.268 300.323 189.838 300.323C188.408 300.323 185.548 301.753 185.548 300.323C185.548 298.893 183.641 292.696 186.024 292.696C187.931 292.696 191.904 292.06 193.652 291.742C192.063 290.789 189.171 288.691 190.315 287.928C191.745 286.975 196.512 286.498 197.465 286.498C198.228 286.498 200.961 288.087 202.232 288.882ZM351.442 398.525C353.349 398.525 355.256 400.432 352.396 401.385C349.535 401.385 349.059 402.338 349.059 400.908C349.059 399.764 350.648 398.843 351.442 398.525ZM261.344 223.573C263.251 223.096 266.111 223.096 264.681 225.956C263.251 228.817 260.391 227.863 260.868 226.433C261.249 225.289 261.344 224.049 261.344 223.573ZM276.122 189.727C277.076 187.82 279.459 184.483 281.843 184.483C284.226 184.483 285.656 184.959 284.703 186.39C283.75 187.82 284.226 185.436 281.843 188.296C279.459 191.157 276.122 193.063 276.122 191.633C276.122 190.489 276.122 189.885 276.122 189.727ZM286.133 176.379C288.04 176.379 290.424 175.425 290.424 176.855C290.424 178.286 286.61 178.762 286.61 180.669C286.61 182.576 284.703 182.576 284.226 181.622C283.845 180.86 285.339 177.809 286.133 176.379ZM292.807 172.565C294.714 173.709 295.826 173.042 296.144 172.565C297.415 173.201 299.386 174.663 297.097 175.425C294.237 176.379 291.377 176.855 291.377 175.902C291.377 175.139 292.33 173.36 292.807 172.565ZM300.434 168.751C302.818 168.275 303.295 170.181 303.295 171.135C303.295 172.088 301.388 173.518 300.434 173.518C299.481 173.518 297.574 172.565 297.574 171.612C297.574 170.849 299.481 169.387 300.434 168.751ZM404.357 171.612C406.645 171.23 409.124 173.677 410.077 174.949C409.124 175.107 406.931 175.711 405.787 176.855C404.357 178.286 401.973 176.855 401.973 175.902C401.973 175.139 403.562 172.724 404.357 171.612ZM144.074 203.074C146.744 203.074 147.093 207.841 146.934 210.225C146.458 210.861 145.79 212.227 146.934 212.608C148.364 213.085 149.795 214.992 149.795 211.178C149.795 207.365 150.748 204.028 153.132 205.458C155.515 206.888 158.375 211.655 160.282 210.225C162.189 208.795 167.909 203.551 170.293 205.458C172.677 207.365 170.77 209.748 172.677 211.178C174.583 212.608 176.49 215.945 174.583 218.329C172.677 220.713 169.34 219.759 167.433 221.666C165.526 223.573 164.096 224.526 161.236 224.526C158.375 224.526 156.945 229.77 154.085 229.77C151.225 229.77 145.504 224.526 142.167 224.526C139.498 224.526 142.326 221.03 144.074 219.282C141.214 219.124 135.303 218.52 134.54 217.376C133.587 215.945 144.074 216.422 144.074 214.515C144.074 212.608 135.017 208.795 132.633 211.178C130.25 213.562 134.54 205.458 138.354 205.458C142.167 205.458 143.121 206.411 143.597 205.935C143.979 205.553 144.074 203.869 144.074 203.074ZM84.4855 207.365C85.4389 205.14 87.5364 201.167 88.2992 203.074C89.2526 205.458 87.8225 207.365 90.206 207.365C92.5896 207.365 93.543 203.551 96.8799 204.504C100.217 205.458 103.554 203.551 103.554 201.167C103.554 198.784 111.181 187.343 125.959 187.82C140.737 188.296 137.4 181.622 140.737 179.716C144.074 177.809 153.608 175.902 144.074 172.565C134.54 169.228 126.913 174.949 125.959 172.565C125.006 170.181 136.447 167.798 137.4 164.461C138.354 161.124 138.354 158.74 134.54 159.217C130.726 159.694 136.447 156.357 139.307 157.787C142.167 159.217 144.074 170.181 146.934 170.181C149.795 170.181 152.178 173.042 152.178 170.181C152.178 167.321 149.795 167.798 149.795 165.414C149.795 163.031 151.225 157.31 146.934 154.45C142.644 151.59 140.737 150.16 140.737 147.776C140.737 145.393 140.737 136.812 146.934 139.195C153.132 141.579 151.701 143.486 155.992 143.009C160.282 142.532 159.805 136.335 155.992 136.335C152.178 136.335 152.178 130.138 157.899 130.615C163.619 131.091 161.712 135.859 163.619 135.382C165.526 134.905 166.956 129.661 163.619 128.231C160.282 126.801 158.852 122.987 158.852 121.081C158.852 119.174 160.759 123.941 163.619 123.941C166.479 123.941 166.479 116.79 165.049 115.837C163.619 114.883 158.375 110.593 160.282 107.256C162.189 103.919 164.572 105.349 166.003 105.826C167.433 106.303 174.583 104.872 170.293 100.582C166.003 96.2917 165.049 98.6753 166.003 94.8616C166.956 91.0479 163.619 92.4781 163.619 90.5712C163.619 88.6644 168.386 91.5247 168.386 89.6178C168.386 87.711 166.479 78.1768 171.246 74.8399C176.013 71.5029 180.781 65.7824 177.444 65.3057C174.107 64.829 171.723 69.1194 168.386 67.2125C165.049 65.3057 172.677 59.1085 175.06 60.5386C177.444 61.9688 181.734 63.3989 181.734 61.9687C181.734 60.5386 172.2 58.1551 172.677 54.8181C173.153 51.4812 187.454 58.6318 187.454 56.725C187.454 55.1995 188.408 51.0045 188.885 49.0976C190.95 50.8456 194.796 53.2927 193.652 49.0976C192.222 43.8538 195.082 42.9004 190.315 40.0402C185.548 37.1799 179.35 40.9936 178.397 43.3771C177.444 45.7607 166.956 48.1442 163.619 48.1442C160.282 48.1442 156.468 59.5852 154.085 56.725C151.701 53.8647 159.805 43.3771 163.619 43.3771C167.433 43.3771 169.34 40.9936 169.34 39.0868C169.34 37.1799 170.293 33.3663 166.956 34.3197C163.619 35.2731 157.422 43.3771 154.085 40.0402C150.748 36.7032 157.422 36.3329 158.852 34.8496C160.282 33.3662 155.992 30.9295 152.655 32.8895C149.318 34.8496 143.597 31.4594 143.121 32.8895C142.644 34.3197 135.97 39.5103 135.493 37.1799C135.017 34.8496 141.214 27.6458 148.841 28.5992C156.468 29.5526 165.049 31.4594 166.003 30.0293C166.956 28.5992 169.34 26.6923 172.677 26.6923C176.013 26.6923 178.874 27.6457 177.444 25.2622C176.013 22.8787 168.863 16.6815 165.049 18.5883C161.236 20.4951 161.236 16.6815 163.619 14.2979C166.003 11.9144 157.899 12.8678 155.992 14.2979C154.085 15.728 148.841 14.7746 148.841 12.8678C148.841 10.961 153.131 10.0075 155.992 10.0075C158.852 10.0075 160.759 4.28704 152.655 4.28704C144.551 4.28704 146.934 -1.43346 140.737 2.38021C134.54 6.19387 135.493 3.33362 133.11 4.28704C130.726 5.24046 127.866 8.10071 127.866 9.05412C127.866 10.0075 124.052 15.728 122.622 12.8678C121.192 10.0075 114.995 1.42679 113.088 7.14729C111.181 12.8678 117.378 15.2513 118.332 15.2513C119.285 15.2513 118.808 20.0184 120.715 21.9252C122.622 23.8321 117.855 28.5992 115.948 25.2622C114.041 21.9252 115.948 17.1582 114.041 16.6815C112.135 16.2047 109.751 15.2513 107.844 18.5883C106.319 21.2579 104.031 18.4294 103.077 16.6815C101.965 16.8404 100.217 18.1116 102.124 21.9252C104.507 26.6923 110.704 31.4594 107.844 32.8895C104.984 34.3197 105.937 30.9827 101.17 31.9361C96.4032 32.8895 94.4964 30.0293 96.4032 25.2622C98.31 20.4951 100.694 16.6815 96.4032 16.6815C92.1128 16.6815 91.6361 27.1691 91.6361 28.5992C91.6361 30.0293 88.7759 33.3662 85.9156 30.0293C83.0554 26.6923 80.6718 21.9252 80.1951 25.2622C79.7184 28.5992 76.8582 36.8096 74.9514 34.8496C73.4259 33.2815 78.765 23.3554 81.6253 18.5883C81.4664 17.3171 80.1952 15.156 76.3815 16.6815C71.6145 18.5883 64.9405 18.5883 63.5104 18.5883C62.0803 18.5883 60.1735 22.8787 62.557 25.2622C64.9405 27.6457 65.8939 31.4594 63.5104 30.0293C61.6036 28.8852 59.5379 26.3745 58.7434 25.2622C58.2667 23.3554 57.5993 19.351 58.7434 18.5883C60.1735 17.6349 51.116 21.9252 53.9763 25.2622C56.8365 28.5992 53.4996 32.8895 51.5927 32.8895C49.6859 32.8895 45.8722 35.2731 45.8722 31.9361C45.8722 28.5992 40.1517 34.3196 39.675 35.7498C39.1983 37.1799 33.9545 37.1799 33.4778 40.0402C33.0011 42.9004 37.2915 46.7141 39.675 44.3305C42.0586 41.947 45.3957 46.2374 42.0587 47.6675C38.7218 49.0976 33.478 52.9113 32.0478 55.7715C30.6177 58.6318 24.4205 59.5852 22.9904 57.6784C21.5603 55.7715 16.7932 55.7715 16.7932 57.6784C16.7932 59.5852 6.3056 56.7249 4.87548 59.1085C3.44536 61.492 6.78231 74.8399 8.21244 73.8864C9.64256 72.933 18.2231 72.4563 18.2231 73.8864C18.2231 75.3166 19.6533 81.9905 15.8396 81.9905C12.0259 81.9905 6.78247 76.27 4.87548 77.2234C2.96849 78.1768 -0.845341 81.9905 2.01507 83.4206C4.87548 84.8507 9.64268 84.374 8.21244 86.7576C6.78219 89.1411 0.108279 93.4315 5.82878 94.8616C11.5493 96.2917 9.64244 93.4315 12.026 93.4315C14.4095 93.4315 18.2231 97.7218 20.6067 96.2917C22.9904 94.8616 24.4204 93.4315 26.8039 94.8616C29.1875 96.2917 40.1518 103.442 39.6751 104.872C39.1984 106.303 30.6178 104.872 32.0478 107.733C33.4779 110.593 37.2915 109.64 37.2915 112.977C37.2915 116.313 35.3847 116.313 36.3381 120.127C37.2915 123.941 41.1052 124.894 41.1052 129.185C41.1052 133.475 38.7216 141.579 36.3381 142.056C33.9546 142.532 31.571 143.963 33.9546 146.346C36.3381 148.73 31.571 152.067 33.9546 152.067C36.3381 152.067 40.1518 146.823 42.5353 148.253C44.9188 149.683 47.7791 150.636 45.8723 153.973C43.9654 157.31 49.6859 170.181 47.3024 172.565C44.9188 174.949 39.6751 170.658 41.1052 177.332C42.5353 184.006 43.4887 189.727 38.7216 189.727C33.9546 189.727 30.1409 191.157 32.0477 194.494C33.9546 197.831 36.3381 194.97 36.3381 195.924C36.3381 196.877 33.0011 197.831 33.0011 201.167C33.0011 204.504 31.0943 201.644 30.1409 204.504C29.1875 207.365 31.0943 211.655 32.0477 211.655C33.0011 211.655 36.3381 210.225 36.3381 212.609C36.3381 214.992 32.0477 213.562 32.0477 215.469C32.0477 217.376 31.0943 220.713 32.0477 221.666C33.0011 222.619 30.1409 224.05 30.1409 226.433C30.1409 228.34 34.2724 227.863 36.3381 227.386C36.3381 228.022 36.3381 229.961 36.3381 232.63C36.3381 235.967 36.8148 238.827 41.1052 239.304C44.5375 239.686 41.5819 242.641 39.6751 244.071C41.7408 244.707 46.1583 245.597 47.3024 244.071C48.7325 242.164 52.0695 240.258 52.0695 242.164C52.0695 244.071 49.2092 248.838 50.6393 249.315C51.7834 249.696 53.6585 251.063 54.453 251.699C54.6119 250.427 55.5018 247.885 57.79 247.885C60.6502 247.885 60.1735 247.885 60.6502 244.071C61.1269 240.258 63.0338 238.351 62.5571 235.967C62.0803 233.584 60.6502 229.293 64.9406 229.77C69.231 230.247 71.6145 226.433 71.1378 224.526C70.6611 222.619 69.231 219.282 73.5213 219.282C76.9536 219.282 74.9515 214.833 73.5213 212.609L77.8117 212.608V205.935L84.4855 207.365ZM33.9546 156.357C36.3381 156.357 42.5353 156.834 42.5353 158.74C42.5353 160.647 43.9654 163.031 43.9654 164.461C43.9654 165.891 43.4887 162.077 38.7216 162.077C33.9546 162.077 34.908 159.694 33.9546 158.74C33.1918 157.978 33.6368 156.834 33.9546 156.357ZM36.3381 163.508C37.2915 165.414 41.1052 165.891 41.1052 168.751C41.1052 171.612 38.7216 171.612 36.3381 171.612C30.1409 168.751 30.1409 167.321 31.0943 165.414C31.857 163.889 34.908 163.508 36.3381 163.508ZM33.0011 179.716C34.908 178.762 36.3381 178.286 36.3381 179.716C36.3381 181.146 36.8148 178.286 35.3847 182.099C33.9546 185.913 31.571 188.773 30.1409 187.82C28.9968 187.057 29.6642 184.324 30.1409 183.053L33.0011 179.716ZM144.551 142.532C147.411 142.532 148.841 142.532 149.318 144.916C149.795 147.3 151.225 148.73 152.178 150.16C153.132 151.59 155.515 155.404 152.655 153.973C149.795 152.543 149.318 151.59 146.934 151.59C144.551 151.59 145.504 150.16 144.551 148.253C143.788 146.727 144.233 143.804 144.551 142.532ZM168.386 122.034C170.293 122.511 172.677 122.511 172.2 123.941C171.723 125.371 168.386 126.324 168.386 127.278C168.386 128.231 166.003 127.754 166.003 126.324C166.003 125.18 166.638 124.259 166.956 123.941L168.386 122.034ZM175.537 74.3631C177.444 73.4097 180.304 73.8864 177.444 77.7001C174.583 81.5138 170.77 83.4206 172.2 80.5604C173.344 78.2722 174.901 75.4755 175.537 74.3631ZM261.344 66.7358C261.821 69.4372 263.347 74.5538 265.635 73.4097C268.495 71.9796 265.158 69.5961 268.972 70.0728C272.785 70.5495 270.879 78.1768 269.925 79.1302C268.972 80.0836 269.925 91.0479 265.635 87.711C261.344 84.374 265.158 82.4672 261.344 79.1302C257.531 75.7933 256.101 73.4097 257.054 70.0728C257.817 67.4032 260.232 66.7358 261.344 66.7358ZM273.262 61.9687C277.076 61.9687 276.599 66.2591 277.076 67.6892C277.457 68.8333 278.824 71.344 279.459 72.4563C278.506 70.5495 277.171 66.9265 279.459 67.6892C282.32 68.6426 283.75 70.5495 284.226 75.7933C284.703 81.0371 281.366 84.8507 282.796 87.711C284.226 90.5712 285.18 89.6178 282.796 94.3849C280.413 99.152 280.889 105.349 280.889 106.779C280.889 108.209 274.692 103.919 271.832 100.582C268.972 97.2451 276.122 96.2917 275.646 95.3383C275.169 94.3849 272.785 92.4781 269.925 92.4781C267.065 92.4781 270.879 86.7576 273.262 86.7576C275.646 86.7576 270.402 84.8507 271.832 82.4672C273.262 80.0836 276.122 78.1768 274.692 75.7933C273.262 73.4097 274.692 74.6649 273.262 70.7004C272.118 67.5287 272.785 63.5578 273.262 61.9687ZM290.424 70.0728C291.059 71.5029 292.807 74.1725 294.714 73.4097C297.097 72.4563 298.051 70.0728 299.958 70.0728C301.865 70.0728 305.202 72.4563 305.202 70.0728C305.202 67.6892 303.295 65.7824 305.202 63.8756C307.108 61.9687 308.062 59.5852 305.202 59.5852C302.341 59.5852 299.481 57.6784 298.528 57.6784C297.574 57.6784 296.144 55.2948 294.714 55.2948C293.57 55.2948 292.013 59.7441 291.377 61.9687C291.218 60.2208 290.233 56.7249 287.563 56.7249C284.226 56.7249 284.703 52.9113 282.796 52.4346C280.889 51.9579 280.889 58.6318 280.889 59.5852C280.889 60.5386 280.889 62.9221 280.889 63.8756C280.889 64.829 286.61 66.7358 288.517 66.7358C290.424 66.7358 283.273 67.2125 284.226 68.6426C284.989 69.7867 288.676 70.0728 290.424 70.0728Z" stroke="black"/>
</svg>
