<svg width="264" height="277" viewBox="0 0 264 277" fill="none" xmlns="http://www.w3.org/2000/svg">
<path d="M172.667 35.9612C170.76 35.9612 168.377 31.6708 167.9 30.2407C167.9 29.1284 167.614 26.8084 166.47 26.427C165.04 25.9503 165.04 26.9037 164.087 26.9037C163.133 26.9037 159.796 26.9037 159.319 26.427C158.938 26.0456 156.936 25.6325 155.982 25.4736C155.347 26.427 153.98 28.3338 153.599 28.3338C153.122 28.3338 153.599 30.2407 153.599 31.6708C153.599 33.1009 151.215 34.531 149.785 33.5776C148.355 32.6242 145.018 32.6242 143.588 32.6242C142.444 32.6242 142.158 31.0352 142.158 30.2407V1.63817C143.111 1.32036 145.209 0.684753 145.972 0.684753C146.925 0.684753 148.832 3.06831 150.739 2.5916C152.646 2.11489 155.982 3.54502 155.982 4.49843C155.982 5.45185 159.796 8.3121 162.656 8.3121C165.517 8.3121 163.61 12.1258 164.563 14.0326C165.517 15.9394 170.76 16.4161 172.667 17.3696C174.574 18.323 175.528 19.7531 175.528 20.7065C175.528 21.6599 170.76 20.7065 170.76 22.6133C170.76 24.5202 175.528 28.3338 177.911 30.2407C180.295 32.1475 181.248 35.0078 182.678 35.0078C184.108 35.0078 186.969 35.9612 186.969 37.3913C186.969 38.8214 186.015 38.8214 184.585 38.8214C183.155 38.8214 188.399 41.205 186.969 41.205C185.538 41.205 182.201 40.7283 180.295 38.8214C178.388 36.9146 174.574 35.9612 172.667 35.9612Z" fill="#F4B24D"/>
<path d="M187.922 14.0326C186.492 14.986 181.725 14.0326 179.341 13.5559C178.864 13.5559 177.816 13.7466 177.434 14.5093C176.958 15.4627 178.864 16.4161 181.248 16.4161C183.632 16.4161 182.678 17.3696 184.585 17.8462C186.492 18.3229 186.969 19.2764 188.399 19.2764C189.829 19.2764 191.259 17.3696 191.259 15.9394C191.259 14.5093 193.642 14.0326 194.596 13.5559C195.549 13.0792 196.026 9.74221 196.026 8.3121C196.026 6.88198 194.119 8.3121 192.689 8.3121C191.259 8.3121 191.736 12.1257 191.259 13.0792C190.782 14.0326 189.352 13.0792 187.922 14.0326Z" fill="#F4B24D"/>
<path d="M100.208 47.8789C97.3474 47.8789 93.5337 48.8323 90.6734 51.6925C89.0845 53.5994 85.9066 57.699 85.9066 58.8431C85.9066 60.2733 87.8134 58.8431 87.8134 60.75C87.8134 62.6568 86.86 62.1801 85.9066 63.1335C84.9532 64.0869 83.5231 61.7034 82.5696 61.2267C81.6162 60.75 79.7094 62.1801 76.3724 60.75C73.0355 59.3198 75.8957 56.4596 72.5588 56.4596C69.2218 56.4596 61.5945 66.4705 60.6411 67.4239C59.6876 68.3773 58.7342 67.4239 56.3507 66.9472C54.4439 66.5658 53.9671 68.0595 53.9671 68.854C55.0795 69.0129 57.1134 69.8074 56.3507 71.7143C55.3973 74.0978 57.7808 73.1444 57.3041 74.5745C56.8274 76.0046 53.0137 72.6677 50.6302 72.191C48.2467 71.7143 48.7234 78.8649 46.8165 83.632C44.9288 88.3514 30.4259 89.8002 25.5106 90.2913L25.3647 90.3059C20.5976 90.7826 15.8305 93.1661 13.9237 94.5963C12.0168 96.0264 7.72618 103.654 5.81909 105.084C3.91201 106.514 4.8662 109.374 4.8662 111.758C4.8662 114.141 7.72622 115.095 7.72622 118.908C7.72622 122.722 5.81909 120.338 2.48214 120.815C-0.854821 121.292 2.95884 125.106 5.81909 126.059C8.67934 127.012 8.67934 137.5 9.63276 141.314C10.5862 145.127 8.67963 155.138 7.72622 157.522C6.7728 159.905 3.91255 162.289 5.34268 167.533C6.7728 172.776 16.307 172.3 18.6905 172.3C21.074 172.3 28.2247 165.626 31.0849 165.149C33.9452 164.672 38.7123 166.579 41.0958 166.579C43.4793 166.579 44.4328 161.335 45.3862 159.905C46.3396 158.475 50.1532 159.905 51.5834 159.905C53.0135 159.905 52.0601 157.045 53.4902 156.092C54.9203 155.138 62.5477 157.045 65.8846 156.092C69.2216 155.138 68.2682 155.138 71.1284 153.231C73.9887 151.325 76.8489 151.325 80.1859 153.231C83.5228 155.138 82.5694 157.045 85.4296 158.475C88.2899 159.905 88.7666 156.568 91.1502 157.045C93.5337 157.522 95.4405 166.579 95.4405 169.439C95.4405 172.3 96.8707 174.207 98.3008 175.16C99.7309 176.113 99.2542 173.253 99.2542 172.3C99.2542 171.346 101.161 169.916 102.114 168.009C103.068 166.102 105.451 168.009 107.358 167.056C109.265 166.102 107.835 165.149 108.788 163.719C109.742 162.289 111.649 160.859 113.555 162.766C115.462 164.672 111.649 168.486 109.742 169.916C107.835 171.346 105.451 177.543 106.405 178.497C107.358 179.45 108.312 175.637 110.695 175.16C113.079 174.683 113.555 178.02 113.555 180.88C113.555 183.741 112.125 187.554 111.649 188.984C111.172 190.415 111.649 191.368 113.555 192.798C115.462 194.228 116.416 198.042 116.892 199.949C117.369 201.856 121.183 201.379 123.566 202.332C125.95 203.286 125.473 204.239 127.38 205.193C129.287 206.146 129.764 203.762 130.24 202.809C130.717 201.856 130.717 198.995 134.054 198.519C137.391 198.042 136.914 201.856 136.914 202.809C136.914 203.762 138.344 207.099 140.251 207.576C142.158 208.053 140.728 206.146 140.728 205.193C140.728 204.239 143.111 206.146 144.065 204.239C145.018 202.332 146.448 199.949 149.309 198.042C152.169 196.135 154.076 198.042 156.936 197.565C159.796 197.089 158.843 197.089 159.796 193.752C160.75 190.415 160.75 185.648 163.61 183.264C166.47 180.88 168.377 174.683 169.33 170.87C170.284 167.056 175.051 165.149 176.958 163.719C178.864 162.289 182.678 154.661 183.155 151.325C183.632 147.988 186.015 143.697 187.445 140.36C188.875 137.023 187.445 130.349 187.445 128.443C187.445 126.536 190.305 126.059 191.259 124.152C192.212 122.245 191.259 120.815 191.259 119.385C191.259 117.955 186.492 116.525 186.492 115.571C186.492 114.618 185.538 112.711 183.632 111.758C181.725 110.804 182.201 109.374 181.248 106.991C180.295 104.607 181.248 101.747 179.341 100.317C177.434 98.8866 175.528 101.27 174.574 100.317C173.621 99.3633 174.097 92.6894 173.144 91.2593C172.191 89.8292 163.61 85.5388 162.18 84.1087C160.75 82.6785 162.18 74.0978 162.18 73.1444C162.18 72.191 160.75 70.2841 159.319 69.3307C157.889 68.3773 159.319 59.7966 158.366 58.3664C157.413 56.9363 153.599 58.3664 152.169 57.413C150.739 56.4596 152.169 50.7391 152.169 49.309C152.169 47.8789 149.785 47.8789 149.309 46.4487C148.832 45.0186 147.878 43.1118 146.925 42.1584C145.972 41.2049 144.541 42.6351 145.018 44.5419C145.495 46.4487 143.111 59.7966 143.588 63.1335C144.065 66.4705 137.868 76.0046 134.531 76.0046C131.194 76.0046 126.903 72.191 125.473 70.2841C124.043 68.3773 116.416 65.9938 114.032 64.5636C111.649 63.1335 114.032 59.3198 115.462 59.3198C116.892 59.3198 119.753 57.8897 118.323 55.9829C116.892 54.0761 116.416 52.646 116.416 50.7391C116.416 48.8323 119.753 50.7391 121.183 48.8323C122.613 46.9254 120.229 45.972 118.323 46.4487C116.416 46.9254 103.068 47.8789 100.208 47.8789Z" fill="#F4B24D"/>
<path d="M133.101 219.971C131.194 219.017 131.194 217.587 129.287 217.587C128.651 217.428 127.285 217.206 126.904 217.587C126.427 218.064 124.997 219.017 126.427 222.354C127.857 225.691 129.287 225.691 127.38 228.551C125.473 231.411 125.95 232.365 127.38 236.655C128.81 240.946 133.101 238.085 134.054 236.655C135.007 235.225 135.484 234.272 138.821 234.272C142.158 234.272 141.205 232.365 141.205 230.458C141.205 228.551 144.065 225.691 144.065 222.831C144.065 219.971 141.205 220.924 139.775 220.447C138.344 219.971 137.391 221.401 136.914 221.401C136.437 221.401 135.008 220.924 133.101 219.971Z" fill="#F4B24D"/>
<path d="M239.883 217.587C237.5 217.11 237.023 218.064 236.546 219.971C237.023 220.447 237.977 221.687 237.977 222.831C237.977 224.261 241.79 227.121 241.79 228.551C241.79 229.981 236.546 233.318 234.64 235.225C232.733 237.132 237.5 235.225 237.977 236.655C238.453 238.085 241.79 239.039 241.79 236.655C241.79 234.272 247.511 229.981 248.464 228.551C249.418 227.121 249.894 219.017 251.324 219.971C252.754 220.924 254.661 219.971 255.615 217.587C256.568 215.203 257.522 217.587 259.428 216.157C261.335 214.727 263.719 210.436 261.812 208.529C259.905 206.623 261.335 210.436 255.615 212.343C249.894 214.25 251.324 212.343 249.894 210.436C248.464 208.529 252.754 200.425 251.324 199.472C249.894 198.519 248.464 200.902 248.464 202.809C248.464 204.716 246.557 200.425 246.081 199.472C245.604 198.519 247.987 191.845 248.464 189.938C248.941 188.031 243.22 183.264 242.744 186.124C242.267 188.984 241.313 195.658 241.79 197.565C242.267 199.472 244.65 201.379 244.65 205.193C244.65 209.006 242.267 218.064 239.883 217.587Z" fill="#F4B24D"/>
<path d="M228.442 231.411C228.442 229.981 227.012 228.551 225.105 229.505C224.788 231.729 224.152 236.465 224.152 237.609C224.152 239.039 218.908 239.516 217.955 239.516C217.001 239.516 215.571 244.283 215.095 246.666C214.618 249.05 206.514 250.957 203.177 251.91C199.84 252.863 197.933 256.677 196.98 257.154C196.217 257.535 194.119 261.444 193.166 263.351C191.259 264.94 187.445 268.499 187.445 270.025C187.445 271.932 189.829 270.978 191.259 270.978C192.689 270.978 193.643 274.315 193.643 275.269C193.643 276.222 196.503 275.269 198.886 275.269C201.27 275.269 200.317 271.455 200.793 270.502C201.27 269.548 203.654 270.502 205.084 270.502C206.514 270.502 205.084 269.071 206.037 267.165C206.99 265.258 208.897 265.734 210.327 264.781C211.758 263.828 210.804 256.2 211.281 255.247C211.758 254.294 218.431 254.294 219.862 254.294C221.292 254.294 220.338 250.957 220.338 249.526C220.338 248.096 231.779 240.946 232.256 239.516C232.733 238.085 232.733 233.795 231.779 234.272C230.826 234.748 230.349 236.179 228.919 236.179C227.489 236.179 228.442 232.842 228.442 231.411Z" fill="#F4B24D"/>
<path d="M172.667 35.9612C170.76 35.9612 168.377 31.6708 167.9 30.2407C167.9 29.1284 167.614 26.8084 166.47 26.427C165.04 25.9503 165.04 26.9037 164.087 26.9037C163.133 26.9037 159.796 26.9037 159.319 26.427C158.938 26.0456 156.936 25.6325 155.982 25.4736C155.347 26.427 153.98 28.3338 153.599 28.3338C153.122 28.3338 153.599 30.2407 153.599 31.6708C153.599 33.1009 151.215 34.531 149.785 33.5776C148.355 32.6242 145.018 32.6242 143.588 32.6242C142.444 32.6242 142.158 31.0352 142.158 30.2407V1.63817C143.111 1.32036 145.209 0.684753 145.972 0.684753C146.925 0.684753 148.832 3.06831 150.739 2.5916C152.646 2.11489 155.982 3.54502 155.982 4.49843C155.982 5.45185 159.796 8.3121 162.656 8.3121C165.517 8.3121 163.61 12.1258 164.563 14.0326C165.517 15.9394 170.76 16.4161 172.667 17.3696C174.574 18.323 175.528 19.7531 175.528 20.7065C175.528 21.6599 170.76 20.7065 170.76 22.6133C170.76 24.5202 175.528 28.3338 177.911 30.2407C180.295 32.1475 181.248 35.0078 182.678 35.0078C184.108 35.0078 186.969 35.9612 186.969 37.3913C186.969 38.8214 186.015 38.8214 184.585 38.8214C183.155 38.8214 188.399 41.205 186.969 41.205C185.538 41.205 182.201 40.7283 180.295 38.8214C178.388 36.9146 174.574 35.9612 172.667 35.9612Z" stroke="black"/>
<path d="M187.922 14.0326C186.492 14.986 181.725 14.0326 179.341 13.5559C178.864 13.5559 177.816 13.7466 177.434 14.5093C176.958 15.4627 178.864 16.4161 181.248 16.4161C183.632 16.4161 182.678 17.3696 184.585 17.8462C186.492 18.3229 186.969 19.2764 188.399 19.2764C189.829 19.2764 191.259 17.3696 191.259 15.9394C191.259 14.5093 193.642 14.0326 194.596 13.5559C195.549 13.0792 196.026 9.74221 196.026 8.3121C196.026 6.88198 194.119 8.3121 192.689 8.3121C191.259 8.3121 191.736 12.1257 191.259 13.0792C190.782 14.0326 189.352 13.0792 187.922 14.0326Z" stroke="black"/>
<path d="M100.208 47.8789C97.3474 47.8789 93.5337 48.8323 90.6734 51.6925C89.0845 53.5994 85.9066 57.699 85.9066 58.8431C85.9066 60.2733 87.8134 58.8431 87.8134 60.75C87.8134 62.6568 86.86 62.1801 85.9066 63.1335C84.9532 64.0869 83.5231 61.7034 82.5696 61.2267C81.6162 60.75 79.7094 62.1801 76.3724 60.75C73.0355 59.3198 75.8957 56.4596 72.5588 56.4596C69.2218 56.4596 61.5945 66.4705 60.6411 67.4239C59.6876 68.3773 58.7342 67.4239 56.3507 66.9472C54.4439 66.5658 53.9671 68.0595 53.9671 68.854C55.0795 69.0129 57.1134 69.8074 56.3507 71.7143C55.3973 74.0978 57.7808 73.1444 57.3041 74.5745C56.8274 76.0046 53.0137 72.6677 50.6302 72.191C48.2467 71.7143 48.7234 78.8649 46.8165 83.632C44.9288 88.3514 30.4259 89.8002 25.5106 90.2913L25.3647 90.3059C20.5976 90.7826 15.8305 93.1661 13.9237 94.5963C12.0168 96.0264 7.72618 103.654 5.81909 105.084C3.91201 106.514 4.8662 109.374 4.8662 111.758C4.8662 114.141 7.72622 115.095 7.72622 118.908C7.72622 122.722 5.81909 120.338 2.48214 120.815C-0.854821 121.292 2.95884 125.106 5.81909 126.059C8.67934 127.012 8.67934 137.5 9.63276 141.314C10.5862 145.127 8.67963 155.138 7.72622 157.522C6.7728 159.905 3.91255 162.289 5.34268 167.533C6.7728 172.776 16.307 172.3 18.6905 172.3C21.074 172.3 28.2247 165.626 31.0849 165.149C33.9452 164.672 38.7123 166.579 41.0958 166.579C43.4793 166.579 44.4328 161.335 45.3862 159.905C46.3396 158.475 50.1532 159.905 51.5834 159.905C53.0135 159.905 52.0601 157.045 53.4902 156.092C54.9203 155.138 62.5477 157.045 65.8846 156.092C69.2216 155.138 68.2682 155.138 71.1284 153.231C73.9887 151.325 76.8489 151.325 80.1859 153.231C83.5228 155.138 82.5694 157.045 85.4296 158.475C88.2899 159.905 88.7666 156.568 91.1502 157.045C93.5337 157.522 95.4405 166.579 95.4405 169.439C95.4405 172.3 96.8707 174.207 98.3008 175.16C99.7309 176.113 99.2542 173.253 99.2542 172.3C99.2542 171.346 101.161 169.916 102.114 168.009C103.068 166.102 105.451 168.009 107.358 167.056C109.265 166.102 107.835 165.149 108.788 163.719C109.742 162.289 111.649 160.859 113.555 162.766C115.462 164.672 111.649 168.486 109.742 169.916C107.835 171.346 105.451 177.543 106.405 178.497C107.358 179.45 108.312 175.637 110.695 175.16C113.079 174.683 113.555 178.02 113.555 180.88C113.555 183.741 112.125 187.554 111.649 188.984C111.172 190.415 111.649 191.368 113.555 192.798C115.462 194.228 116.416 198.042 116.892 199.949C117.369 201.856 121.183 201.379 123.566 202.332C125.95 203.286 125.473 204.239 127.38 205.193C129.287 206.146 129.764 203.762 130.24 202.809C130.717 201.856 130.717 198.995 134.054 198.519C137.391 198.042 136.914 201.856 136.914 202.809C136.914 203.762 138.344 207.099 140.251 207.576C142.158 208.053 140.728 206.146 140.728 205.193C140.728 204.239 143.111 206.146 144.065 204.239C145.018 202.332 146.448 199.949 149.309 198.042C152.169 196.135 154.076 198.042 156.936 197.565C159.796 197.089 158.843 197.089 159.796 193.752C160.75 190.415 160.75 185.648 163.61 183.264C166.47 180.88 168.377 174.683 169.33 170.87C170.284 167.056 175.051 165.149 176.958 163.719C178.864 162.289 182.678 154.661 183.155 151.325C183.632 147.988 186.015 143.697 187.445 140.36C188.875 137.023 187.445 130.349 187.445 128.443C187.445 126.536 190.305 126.059 191.259 124.152C192.212 122.245 191.259 120.815 191.259 119.385C191.259 117.955 186.492 116.525 186.492 115.571C186.492 114.618 185.538 112.711 183.632 111.758C181.725 110.804 182.201 109.374 181.248 106.991C180.295 104.607 181.248 101.747 179.341 100.317C177.434 98.8866 175.528 101.27 174.574 100.317C173.621 99.3633 174.097 92.6894 173.144 91.2593C172.191 89.8292 163.61 85.5388 162.18 84.1087C160.75 82.6785 162.18 74.0978 162.18 73.1444C162.18 72.191 160.75 70.2841 159.319 69.3307C157.889 68.3773 159.319 59.7966 158.366 58.3664C157.413 56.9363 153.599 58.3664 152.169 57.413C150.739 56.4596 152.169 50.7391 152.169 49.309C152.169 47.8789 149.785 47.8789 149.309 46.4487C148.832 45.0186 147.878 43.1118 146.925 42.1584C145.972 41.2049 144.541 42.6351 145.018 44.5419C145.495 46.4487 143.111 59.7966 143.588 63.1335C144.065 66.4705 137.868 76.0046 134.531 76.0046C131.194 76.0046 126.903 72.191 125.473 70.2841C124.043 68.3773 116.416 65.9938 114.032 64.5636C111.649 63.1335 114.032 59.3198 115.462 59.3198C116.892 59.3198 119.753 57.8897 118.323 55.9829C116.892 54.0761 116.416 52.646 116.416 50.7391C116.416 48.8323 119.753 50.7391 121.183 48.8323C122.613 46.9254 120.229 45.972 118.323 46.4487C116.416 46.9254 103.068 47.8789 100.208 47.8789Z" stroke="black"/>
<path d="M133.101 219.971C131.194 219.017 131.194 217.587 129.287 217.587C128.651 217.428 127.285 217.206 126.904 217.587C126.427 218.064 124.997 219.017 126.427 222.354C127.857 225.691 129.287 225.691 127.38 228.551C125.473 231.411 125.95 232.365 127.38 236.655C128.81 240.946 133.101 238.085 134.054 236.655C135.007 235.225 135.484 234.272 138.821 234.272C142.158 234.272 141.205 232.365 141.205 230.458C141.205 228.551 144.065 225.691 144.065 222.831C144.065 219.971 141.205 220.924 139.775 220.447C138.344 219.971 137.391 221.401 136.914 221.401C136.437 221.401 135.008 220.924 133.101 219.971Z" stroke="black"/>
<path d="M239.883 217.587C237.5 217.11 237.023 218.064 236.546 219.971C237.023 220.447 237.977 221.687 237.977 222.831C237.977 224.261 241.79 227.121 241.79 228.551C241.79 229.981 236.546 233.318 234.64 235.225C232.733 237.132 237.5 235.225 237.977 236.655C238.453 238.085 241.79 239.039 241.79 236.655C241.79 234.272 247.511 229.981 248.464 228.551C249.418 227.121 249.894 219.017 251.324 219.971C252.754 220.924 254.661 219.971 255.615 217.587C256.568 215.203 257.522 217.587 259.428 216.157C261.335 214.727 263.719 210.436 261.812 208.529C259.905 206.623 261.335 210.436 255.615 212.343C249.894 214.25 251.324 212.343 249.894 210.436C248.464 208.529 252.754 200.425 251.324 199.472C249.894 198.519 248.464 200.902 248.464 202.809C248.464 204.716 246.557 200.425 246.081 199.472C245.604 198.519 247.987 191.845 248.464 189.938C248.941 188.031 243.22 183.264 242.744 186.124C242.267 188.984 241.313 195.658 241.79 197.565C242.267 199.472 244.65 201.379 244.65 205.193C244.65 209.006 242.267 218.064 239.883 217.587Z" stroke="black"/>
<path d="M228.442 231.411C228.442 229.981 227.012 228.551 225.105 229.505C224.788 231.729 224.152 236.465 224.152 237.609C224.152 239.039 218.908 239.516 217.955 239.516C217.001 239.516 215.571 244.283 215.095 246.666C214.618 249.05 206.514 250.957 203.177 251.91C199.84 252.863 197.933 256.677 196.98 257.154C196.217 257.535 194.119 261.444 193.166 263.351C191.259 264.94 187.445 268.499 187.445 270.025C187.445 271.932 189.829 270.978 191.259 270.978C192.689 270.978 193.643 274.315 193.643 275.269C193.643 276.222 196.503 275.269 198.886 275.269C201.27 275.269 200.317 271.455 200.793 270.502C201.27 269.548 203.654 270.502 205.084 270.502C206.514 270.502 205.084 269.071 206.037 267.165C206.99 265.258 208.897 265.734 210.327 264.781C211.758 263.828 210.804 256.2 211.281 255.247C211.758 254.294 218.431 254.294 219.862 254.294C221.292 254.294 220.338 250.957 220.338 249.526C220.338 248.096 231.779 240.946 232.256 239.516C232.733 238.085 232.733 233.795 231.779 234.272C230.826 234.748 230.349 236.179 228.919 236.179C227.489 236.179 228.442 232.842 228.442 231.411Z" stroke="black"/>
</svg>
