<svg width="220" height="365" viewBox="0 0 220 365" fill="none" xmlns="http://www.w3.org/2000/svg">
<path d="M199.639 130.413C199.639 128.029 200.116 123.739 199.639 120.879C200.116 120.72 201.26 120.497 202.023 120.879C202.976 121.356 204.407 120.879 205.36 120.402C206.313 119.925 205.837 113.252 210.604 110.391C215.371 107.531 218.231 100.857 218.708 96.5667C219.184 92.2764 217.278 87.986 216.324 86.5559C215.371 85.1257 210.604 84.649 209.174 84.649C207.743 84.649 202.023 77.4984 200.593 76.0683C199.163 74.6382 192.966 73.6847 191.059 74.1614C189.152 74.6382 185.338 72.2546 183.908 71.3012C182.478 70.3478 178.188 70.8245 176.757 71.3012C175.327 71.7779 174.374 75.1149 173.42 75.1149C172.467 75.1149 172.944 69.3944 172.944 68.9177C172.944 68.4409 162.456 63.1972 161.503 63.1972C160.549 63.1972 159.596 63.6739 157.689 64.1506C155.782 64.6273 155.782 66.0574 154.829 67.9642C153.875 69.8711 149.108 69.3944 147.678 68.9177C146.248 68.4409 150.538 67.0108 151.492 66.5341C152.445 66.0574 154.829 65.104 155.306 63.1972C155.782 61.2903 151.492 61.2903 150.062 61.2903C148.632 61.2903 147.678 61.2903 145.771 61.767C143.865 62.2437 144.341 65.104 142.911 65.5807C141.481 66.0574 141.004 61.2903 142.434 60.3369C143.865 59.3835 148.155 56.0465 148.155 53.1863C148.155 50.326 146.248 49.3726 144.341 47.4658C142.434 45.559 142.911 38.885 142.911 37.9316C142.911 36.9782 140.051 38.4083 137.667 36.9782C135.284 35.5481 135.761 32.6878 134.33 32.6878C132.9 32.6878 128.61 32.6878 127.18 31.7344C125.75 30.781 124.32 29.8276 122.889 31.2577C121.459 32.6878 116.215 32.6878 114.785 32.6878C113.355 32.6878 103.344 20.7701 101.914 18.8633C100.484 16.9565 98.5773 18.8633 97.1472 18.8633C95.717 18.8633 96.1937 16.9565 96.1937 15.5263C96.1937 14.0962 92.3801 13.6195 89.9965 12.6661C87.613 11.7127 87.1363 7.89901 84.7527 7.4223C82.3692 6.94559 81.8925 10.2826 80.9391 11.236C79.9857 12.1894 76.6487 12.6661 75.2186 11.7127C73.7885 10.7593 71.4049 8.37572 69.9748 8.85243C68.5447 9.32913 64.2543 11.236 63.7776 10.2826C63.3009 9.32916 64.2543 6.46889 63.7776 6.94559C63.3009 7.4223 59.4872 6.94559 58.0571 6.94559C56.627 6.94559 58.0571 2.65522 58.0571 1.70182C58.0571 0.748424 55.1968 1.70182 54.2434 1.70182C53.29 1.70182 53.29 5.0388 52.8133 6.94559C52.3366 8.85239 50.9065 6.94559 49.953 6.94559C48.9996 6.94559 49.953 8.85243 48.9996 10.2826C48.0462 11.7127 48.9996 12.1894 50.9065 12.6661C52.8133 13.1428 50.9065 16.4798 48.9996 17.4332C47.0928 18.3866 46.1394 13.6195 46.6161 12.6661C47.0928 11.7127 48.0462 9.80584 47.5695 8.85243C47.0928 7.89901 47.5695 5.99218 48.0462 5.0388C48.5229 4.08542 49.953 2.65524 49.953 1.70182C49.953 0.748406 48.0462 1.22511 46.6161 1.70182C45.186 2.17853 45.186 3.13196 44.2325 5.0388C43.2791 6.94563 39.4655 4.56209 36.1285 5.0388C32.7915 5.51551 35.6518 7.89902 35.1751 10.2826C34.6984 12.6661 33.2683 9.80586 30.8847 10.2826C28.5012 10.7593 29.4546 12.1894 29.4546 15.0496C29.4546 17.9099 26.5943 16.4798 24.6875 17.9099C22.7807 19.34 24.6875 21.2469 24.6875 22.677C24.6875 24.1071 21.3505 23.1537 19.9204 23.6304C18.4903 24.1071 16.5835 25.5372 16.5835 26.0139C16.5835 26.4906 18.4903 27.4441 20.8738 28.8742C23.2574 30.3043 21.3505 32.2111 19.9204 34.118C18.4903 36.0248 19.9204 37.9316 19.9204 40.7919C19.9204 43.6521 21.8272 42.222 23.7341 42.6987C25.641 43.1754 20.3971 48.4192 19.9204 49.8493C19.5391 50.9934 15.3122 50.326 13.2465 49.8493C13.2465 51.1206 13.0558 53.8537 12.293 54.6164C11.3396 55.5698 7.0493 58.4301 7.0493 60.3369C7.0493 62.2438 5.14247 63.6739 4.18922 64.6273C3.23596 65.5807 4.18922 70.8245 4.18922 73.208C4.18922 75.5916 7.0493 74.6382 7.0493 77.0217C7.0493 79.4052 1.80568 80.8354 1.80568 83.6956C1.80568 85.9838 3.3947 87.5093 4.18922 87.986C2.75909 89.0983 0.28021 91.323 1.80568 91.323C3.33114 91.323 8.47945 93.8654 10.8629 95.1366C10.704 96.4078 10.7676 99.0456 12.293 99.427C14.1999 99.9037 14.1999 101.334 14.1999 104.194C14.1999 107.054 16.5834 111.821 21.8272 116.588C27.071 121.356 28.0244 126.599 28.0244 128.029C28.0244 129.46 28.5011 131.843 31.8381 132.797C35.175 133.75 37.5586 137.087 38.512 138.517C39.4654 139.947 40.4188 139.947 43.7558 139.947C47.0927 139.947 51.8598 143.761 51.8598 145.668C51.8598 147.574 56.1502 148.051 57.1036 149.958C58.057 151.865 54.7201 159.492 54.7201 161.399C54.7201 163.306 57.1036 173.317 57.1036 176.654C57.1036 179.991 56.1502 198.582 54.7201 199.536C53.29 200.489 54.7201 204.779 56.1502 207.163C57.5803 209.547 55.6735 212.884 54.7201 215.267C53.7667 217.651 56.6269 221.464 58.057 226.708C59.4872 231.952 55.6735 241.009 53.7667 244.823C51.8598 248.637 51.8598 255.311 53.7667 257.217C55.6735 259.124 53.7667 268.658 53.7667 271.995C53.7667 275.332 58.5337 273.902 60.4406 274.856C62.3474 275.809 59.9639 286.773 59.9639 288.203C59.9639 289.634 62.8241 291.54 63.3008 292.494C63.7775 293.447 60.9173 294.401 59.9639 296.307C59.0105 298.214 61.8707 302.981 61.8707 306.318C61.8707 308.988 59.6461 311.244 58.5337 312.039C59.6461 311.562 62.2521 310.799 63.7775 311.562C65.6844 312.516 60.4406 315.853 59.9639 316.806C59.4872 317.759 58.5337 325.863 58.5337 327.77C58.5337 329.296 60.7584 324.91 61.8707 322.526L62.8241 332.537L66.6379 333.491C66.3201 334.603 66.2566 336.923 68.5448 337.304C71.405 337.781 72.8351 338.734 71.405 340.641C69.9748 342.548 69.0214 343.025 69.9748 344.455C70.9283 345.885 70.9283 346.362 71.405 346.362C71.8817 346.362 75.6953 348.269 76.6487 349.699C77.6022 351.129 80.9391 353.036 82.8459 354.466C84.7528 355.896 83.7994 360.186 87.1364 361.616C89.8061 362.761 88.5665 360.504 87.613 359.233C89.5199 359.551 93.8103 359.805 95.717 358.28C98.1003 356.373 100.961 358.28 105.251 358.28C109.542 358.28 108.111 355.419 106.205 355.419C104.298 355.419 100.484 355.419 99.5307 354.466C98.5773 353.512 94.7637 349.699 92.3801 349.699C89.9966 349.699 91.9034 343.978 91.4267 343.025C90.95 342.071 89.0433 342.548 89.0433 341.118C89.0433 339.688 89.0433 338.734 87.1364 335.398C85.2296 332.061 85.7061 326.817 87.1364 326.34C88.5667 325.863 90.9499 323.48 90.4732 319.666C89.9965 315.853 92.38 315.376 93.3337 314.422C94.2873 313.469 95.2403 309.179 95.717 306.318C96.1937 303.458 91.4266 306.795 89.0433 306.318C86.6599 305.842 89.9967 303.458 87.1364 301.551C84.2762 299.644 88.0898 296.784 89.0433 294.401C89.9967 292.017 95.2405 294.877 96.6706 292.971C98.1007 291.064 93.3337 286.773 93.3337 283.913C93.3337 281.053 95.7172 282.96 98.5774 281.053C101.438 279.146 100.484 275.332 99.0541 275.332C97.624 275.332 96.1938 275.809 93.3337 275.332C90.4735 274.856 93.3337 272.472 93.3337 271.042C93.3337 269.612 92.3802 266.752 93.3337 266.275C94.2871 265.798 99.5309 269.612 103.344 270.089C107.158 270.565 104.298 265.321 104.298 260.554C104.298 255.787 101.914 257.217 103.344 255.311C104.774 253.404 110.018 256.264 113.355 256.264C116.692 256.264 125.273 251.974 125.273 250.067C125.273 248.16 126.703 243.393 126.703 241.963C126.703 240.533 124.32 241.486 122.889 240.056C121.745 238.912 124.002 236.719 125.273 235.766C124.478 235.448 122.508 234.812 120.983 234.812C119.076 234.812 120.983 231.952 122.889 230.998C124.796 230.045 127.657 233.382 130.993 233.382C134.33 233.382 139.574 230.522 140.051 228.138C140.432 226.231 141.799 224.483 142.434 223.848C143.706 223.053 146.248 220.892 146.248 218.604C146.248 216.316 143.706 217.651 142.434 218.604C143.706 215.744 146.248 210.405 146.248 211.93C146.248 213.837 145.771 216.22 148.632 215.267C151.492 214.314 151.969 211.453 152.922 208.116C153.875 204.779 158.643 199.059 158.643 197.629C158.643 196.199 159.119 191.432 158.643 189.525C158.261 187.999 160.073 183.169 161.026 180.944C162.615 180.626 165.984 179.705 166.747 178.561C167.7 177.13 169.607 174.27 172.944 174.747C176.281 175.224 177.711 170.456 180.571 169.98C183.431 169.503 186.292 169.98 189.629 168.55C192.966 167.12 192.012 163.783 192.966 159.969C193.919 156.155 195.349 157.109 197.733 155.679C200.116 154.248 198.209 151.388 197.733 148.528C197.256 145.668 198.209 145.668 199.639 143.284C201.07 140.901 199.639 132.797 199.639 130.413Z" fill="#B7E8EB"/>
<path d="M128.133 331.584C127.656 330.63 125.273 331.584 124.32 333.491C123.843 333.967 122.889 335.016 122.889 335.397C122.889 335.874 120.983 336.351 120.983 336.828C120.983 337.304 121.936 337.781 122.889 338.734C123.843 339.688 125.75 340.165 125.75 337.781C125.75 335.397 127.18 336.351 128.133 334.444C129.087 332.537 128.61 332.537 128.133 331.584Z" fill="#B7E8EB"/>
<path d="M134.807 331.584C133.377 331.107 131.947 330.63 130.993 331.107C130.517 331.584 129.849 332.728 130.993 333.491C132.424 334.444 129.563 335.397 129.563 337.304C129.563 339.211 130.04 338.734 133.377 339.688C136.714 340.641 136.237 335.874 135.284 335.874C134.33 335.874 134.33 337.304 132.424 337.304C130.517 337.304 132.9 335.397 133.377 333.967C133.854 332.537 137.667 333.967 137.667 333.014C137.667 332.061 136.237 332.061 134.807 331.584Z" fill="#B7E8EB"/>
<path d="M99.054 359.233C98.1006 359.233 96.6704 360.186 95.717 360.663C95.2403 360.345 94.0962 359.71 93.3335 359.71C92.3801 359.71 92.3801 360.663 90.4732 361.616C88.5664 362.57 90.4732 363.047 92.3801 362.57C94.287 362.093 93.3335 364 96.1937 364C99.054 364 98.5773 363.047 99.054 361.616C99.5307 360.186 100.007 359.233 99.054 359.233Z" fill="#B7E8EB"/>
<path d="M74.7419 351.606C75.6953 352.559 77.1254 354.466 77.1254 354.943C77.2843 355.26 77.4114 355.991 76.6487 356.373C75.6954 356.849 74.7419 355.419 73.3117 355.419C71.8816 355.419 71.405 354.466 70.9282 353.036C70.4515 351.606 69.9748 351.606 68.5448 351.606C67.1147 351.606 67.1145 350.175 65.6844 349.699C64.5403 349.317 65.2077 347.951 65.6844 347.315C66.1611 347.633 67.4006 348.173 68.5448 347.792C69.975 347.315 70.9282 348.269 71.405 349.699C71.8817 351.129 73.7885 350.652 74.7419 351.606Z" fill="#B7E8EB"/>
<path d="M63.7775 337.304C63.3008 336.828 63.3009 334.444 61.394 333.491C60.9173 333.65 59.7732 334.063 59.0105 334.444C58.0571 334.921 58.5337 337.304 59.9639 337.781C61.394 338.258 61.394 339.688 62.3475 341.118C63.3009 342.548 63.7775 342.548 65.6844 342.071C67.5913 341.595 65.6844 340.641 65.6844 339.688C65.6844 338.734 64.2543 337.781 63.7775 337.304Z" fill="#B7E8EB"/>
<path d="M56.627 277.716C56.627 275.332 55.6735 275.332 54.7201 276.762H53.7667V279.623V285.343C53.7667 286.773 56.627 284.866 56.1503 282.483C55.6735 280.099 56.627 280.099 56.627 277.716Z" fill="#B7E8EB"/>
<path d="M199.639 130.413C199.639 128.029 200.116 123.739 199.639 120.879C200.116 120.72 201.26 120.497 202.023 120.879C202.976 121.356 204.407 120.879 205.36 120.402C206.313 119.925 205.837 113.252 210.604 110.391C215.371 107.531 218.231 100.857 218.708 96.5667C219.184 92.2764 217.278 87.986 216.324 86.5559C215.371 85.1257 210.604 84.649 209.174 84.649C207.743 84.649 202.023 77.4984 200.593 76.0683C199.163 74.6382 192.966 73.6847 191.059 74.1614C189.152 74.6382 185.338 72.2546 183.908 71.3012C182.478 70.3478 178.188 70.8245 176.757 71.3012C175.327 71.7779 174.374 75.1149 173.42 75.1149C172.467 75.1149 172.944 69.3944 172.944 68.9177C172.944 68.4409 162.456 63.1972 161.503 63.1972C160.549 63.1972 159.596 63.6739 157.689 64.1506C155.782 64.6273 155.782 66.0574 154.829 67.9642C153.875 69.8711 149.108 69.3944 147.678 68.9177C146.248 68.4409 150.538 67.0108 151.492 66.5341C152.445 66.0574 154.829 65.104 155.306 63.1972C155.782 61.2903 151.492 61.2903 150.062 61.2903C148.632 61.2903 147.678 61.2903 145.771 61.767C143.865 62.2437 144.341 65.104 142.911 65.5807C141.481 66.0574 141.004 61.2903 142.434 60.3369C143.865 59.3835 148.155 56.0465 148.155 53.1863C148.155 50.326 146.248 49.3726 144.341 47.4658C142.434 45.559 142.911 38.885 142.911 37.9316C142.911 36.9782 140.051 38.4083 137.667 36.9782C135.284 35.5481 135.761 32.6878 134.33 32.6878C132.9 32.6878 128.61 32.6878 127.18 31.7344C125.75 30.781 124.32 29.8276 122.889 31.2577C121.459 32.6878 116.215 32.6878 114.785 32.6878C113.355 32.6878 103.344 20.7701 101.914 18.8633C100.484 16.9565 98.5773 18.8633 97.1472 18.8633C95.717 18.8633 96.1937 16.9565 96.1937 15.5263C96.1937 14.0962 92.3801 13.6195 89.9965 12.6661C87.613 11.7127 87.1363 7.89901 84.7527 7.4223C82.3692 6.94559 81.8925 10.2826 80.9391 11.236C79.9857 12.1894 76.6487 12.6661 75.2186 11.7127C73.7885 10.7593 71.4049 8.37572 69.9748 8.85243C68.5447 9.32913 64.2543 11.236 63.7776 10.2826C63.3009 9.32916 64.2543 6.46889 63.7776 6.94559C63.3009 7.4223 59.4872 6.94559 58.0571 6.94559C56.627 6.94559 58.0571 2.65522 58.0571 1.70182C58.0571 0.748424 55.1968 1.70182 54.2434 1.70182C53.29 1.70182 53.29 5.0388 52.8133 6.94559C52.3366 8.85239 50.9065 6.94559 49.953 6.94559C48.9996 6.94559 49.953 8.85243 48.9996 10.2826C48.0462 11.7127 48.9996 12.1894 50.9065 12.6661C52.8133 13.1428 50.9065 16.4798 48.9996 17.4332C47.0928 18.3866 46.1394 13.6195 46.6161 12.6661C47.0928 11.7127 48.0462 9.80584 47.5695 8.85243C47.0928 7.89901 47.5695 5.99218 48.0462 5.0388C48.5229 4.08542 49.953 2.65524 49.953 1.70182C49.953 0.748406 48.0462 1.22511 46.6161 1.70182C45.186 2.17853 45.186 3.13196 44.2325 5.0388C43.2791 6.94563 39.4655 4.56209 36.1285 5.0388C32.7915 5.51551 35.6518 7.89902 35.1751 10.2826C34.6984 12.6661 33.2683 9.80586 30.8847 10.2826C28.5012 10.7593 29.4546 12.1894 29.4546 15.0496C29.4546 17.9099 26.5943 16.4798 24.6875 17.9099C22.7807 19.34 24.6875 21.2469 24.6875 22.677C24.6875 24.1071 21.3505 23.1537 19.9204 23.6304C18.4903 24.1071 16.5835 25.5372 16.5835 26.0139C16.5835 26.4906 18.4903 27.4441 20.8738 28.8742C23.2574 30.3043 21.3505 32.2111 19.9204 34.118C18.4903 36.0248 19.9204 37.9316 19.9204 40.7919C19.9204 43.6521 21.8272 42.222 23.7341 42.6987C25.641 43.1754 20.3971 48.4192 19.9204 49.8493C19.5391 50.9934 15.3122 50.326 13.2465 49.8493C13.2465 51.1206 13.0558 53.8537 12.293 54.6164C11.3396 55.5698 7.0493 58.4301 7.0493 60.3369C7.0493 62.2438 5.14247 63.6739 4.18922 64.6273C3.23596 65.5807 4.18922 70.8245 4.18922 73.208C4.18922 75.5916 7.0493 74.6382 7.0493 77.0217C7.0493 79.4052 1.80568 80.8354 1.80568 83.6956C1.80568 85.9838 3.3947 87.5093 4.18922 87.986C2.75909 89.0983 0.28021 91.323 1.80568 91.323C3.33114 91.323 8.47945 93.8654 10.8629 95.1366C10.704 96.4078 10.7676 99.0456 12.293 99.427C14.1999 99.9037 14.1999 101.334 14.1999 104.194C14.1999 107.054 16.5834 111.821 21.8272 116.588C27.071 121.356 28.0244 126.599 28.0244 128.029C28.0244 129.46 28.5011 131.843 31.8381 132.797C35.175 133.75 37.5586 137.087 38.512 138.517C39.4654 139.947 40.4188 139.947 43.7558 139.947C47.0927 139.947 51.8598 143.761 51.8598 145.668C51.8598 147.574 56.1502 148.051 57.1036 149.958C58.057 151.865 54.7201 159.492 54.7201 161.399C54.7201 163.306 57.1036 173.317 57.1036 176.654C57.1036 179.991 56.1502 198.582 54.7201 199.536C53.29 200.489 54.7201 204.779 56.1502 207.163C57.5803 209.547 55.6735 212.884 54.7201 215.267C53.7667 217.651 56.6269 221.464 58.057 226.708C59.4872 231.952 55.6735 241.009 53.7667 244.823C51.8598 248.637 51.8598 255.311 53.7667 257.217C55.6735 259.124 53.7667 268.658 53.7667 271.995C53.7667 275.332 58.5337 273.902 60.4406 274.856C62.3474 275.809 59.9639 286.773 59.9639 288.203C59.9639 289.634 62.8241 291.54 63.3008 292.494C63.7775 293.447 60.9173 294.401 59.9639 296.307C59.0105 298.214 61.8707 302.981 61.8707 306.318C61.8707 308.988 59.6461 311.244 58.5337 312.039C59.6461 311.562 62.2521 310.799 63.7775 311.562C65.6844 312.516 60.4406 315.853 59.9639 316.806C59.4872 317.759 58.5337 325.863 58.5337 327.77C58.5337 329.296 60.7584 324.91 61.8707 322.526L62.8241 332.537L66.6379 333.491C66.3201 334.603 66.2566 336.923 68.5448 337.304C71.405 337.781 72.8351 338.734 71.405 340.641C69.9748 342.548 69.0214 343.025 69.9748 344.455C70.9283 345.885 70.9283 346.362 71.405 346.362C71.8817 346.362 75.6953 348.269 76.6487 349.699C77.6022 351.129 80.9391 353.036 82.8459 354.466C84.7528 355.896 83.7994 360.186 87.1364 361.616C89.8061 362.761 88.5665 360.504 87.613 359.233C89.5199 359.551 93.8103 359.805 95.717 358.28C98.1003 356.373 100.961 358.28 105.251 358.28C109.542 358.28 108.111 355.419 106.205 355.419C104.298 355.419 100.484 355.419 99.5307 354.466C98.5773 353.512 94.7637 349.699 92.3801 349.699C89.9966 349.699 91.9034 343.978 91.4267 343.025C90.95 342.071 89.0433 342.548 89.0433 341.118C89.0433 339.688 89.0433 338.734 87.1364 335.398C85.2296 332.061 85.7061 326.817 87.1364 326.34C88.5667 325.863 90.9499 323.48 90.4732 319.666C89.9965 315.853 92.38 315.376 93.3337 314.422C94.2873 313.469 95.2403 309.179 95.717 306.318C96.1937 303.458 91.4266 306.795 89.0433 306.318C86.6599 305.842 89.9967 303.458 87.1364 301.551C84.2762 299.644 88.0898 296.784 89.0433 294.401C89.9967 292.017 95.2405 294.877 96.6706 292.971C98.1007 291.064 93.3337 286.773 93.3337 283.913C93.3337 281.053 95.7172 282.96 98.5774 281.053C101.438 279.146 100.484 275.332 99.0541 275.332C97.624 275.332 96.1938 275.809 93.3337 275.332C90.4735 274.856 93.3337 272.472 93.3337 271.042C93.3337 269.612 92.3802 266.752 93.3337 266.275C94.2871 265.798 99.5309 269.612 103.344 270.089C107.158 270.565 104.298 265.321 104.298 260.554C104.298 255.787 101.914 257.217 103.344 255.311C104.774 253.404 110.018 256.264 113.355 256.264C116.692 256.264 125.273 251.974 125.273 250.067C125.273 248.16 126.703 243.393 126.703 241.963C126.703 240.533 124.32 241.486 122.889 240.056C121.745 238.912 124.002 236.719 125.273 235.766C124.478 235.448 122.508 234.812 120.983 234.812C119.076 234.812 120.983 231.952 122.889 230.998C124.796 230.045 127.657 233.382 130.993 233.382C134.33 233.382 139.574 230.522 140.051 228.138C140.432 226.231 141.799 224.483 142.434 223.848C143.706 223.053 146.248 220.892 146.248 218.604C146.248 216.316 143.706 217.651 142.434 218.604C143.706 215.744 146.248 210.405 146.248 211.93C146.248 213.837 145.771 216.22 148.632 215.267C151.492 214.314 151.969 211.453 152.922 208.116C153.875 204.779 158.643 199.059 158.643 197.629C158.643 196.199 159.119 191.432 158.643 189.525C158.261 187.999 160.073 183.169 161.026 180.944C162.615 180.626 165.984 179.705 166.747 178.561C167.7 177.13 169.607 174.27 172.944 174.747C176.281 175.224 177.711 170.456 180.571 169.98C183.431 169.503 186.292 169.98 189.629 168.55C192.966 167.12 192.012 163.783 192.966 159.969C193.919 156.155 195.349 157.109 197.733 155.679C200.116 154.248 198.209 151.388 197.733 148.528C197.256 145.668 198.209 145.668 199.639 143.284C201.07 140.901 199.639 132.797 199.639 130.413Z" stroke="black"/>
<path d="M128.133 331.584C127.656 330.63 125.273 331.584 124.32 333.491C123.843 333.967 122.889 335.016 122.889 335.397C122.889 335.874 120.983 336.351 120.983 336.828C120.983 337.304 121.936 337.781 122.889 338.734C123.843 339.688 125.75 340.165 125.75 337.781C125.75 335.397 127.18 336.351 128.133 334.444C129.087 332.537 128.61 332.537 128.133 331.584Z" stroke="black"/>
<path d="M134.807 331.584C133.377 331.107 131.947 330.63 130.993 331.107C130.517 331.584 129.849 332.728 130.993 333.491C132.424 334.444 129.563 335.397 129.563 337.304C129.563 339.211 130.04 338.734 133.377 339.688C136.714 340.641 136.237 335.874 135.284 335.874C134.33 335.874 134.33 337.304 132.424 337.304C130.517 337.304 132.9 335.397 133.377 333.967C133.854 332.537 137.667 333.967 137.667 333.014C137.667 332.061 136.237 332.061 134.807 331.584Z" stroke="black"/>
<path d="M99.054 359.233C98.1006 359.233 96.6704 360.186 95.717 360.663C95.2403 360.345 94.0962 359.71 93.3335 359.71C92.3801 359.71 92.3801 360.663 90.4732 361.616C88.5664 362.57 90.4732 363.047 92.3801 362.57C94.287 362.093 93.3335 364 96.1937 364C99.054 364 98.5773 363.047 99.054 361.616C99.5307 360.186 100.007 359.233 99.054 359.233Z" stroke="black"/>
<path d="M74.7419 351.606C75.6953 352.559 77.1254 354.466 77.1254 354.943C77.2843 355.26 77.4114 355.991 76.6487 356.373C75.6954 356.849 74.7419 355.419 73.3117 355.419C71.8816 355.419 71.405 354.466 70.9282 353.036C70.4515 351.606 69.9748 351.606 68.5448 351.606C67.1147 351.606 67.1145 350.175 65.6844 349.699C64.5403 349.317 65.2077 347.951 65.6844 347.315C66.1611 347.633 67.4006 348.173 68.5448 347.792C69.975 347.315 70.9282 348.269 71.405 349.699C71.8817 351.129 73.7885 350.652 74.7419 351.606Z" stroke="black"/>
<path d="M63.7775 337.304C63.3008 336.828 63.3009 334.444 61.394 333.491C60.9173 333.65 59.7732 334.063 59.0105 334.444C58.0571 334.921 58.5337 337.304 59.9639 337.781C61.394 338.258 61.394 339.688 62.3475 341.118C63.3009 342.548 63.7775 342.548 65.6844 342.071C67.5913 341.595 65.6844 340.641 65.6844 339.688C65.6844 338.734 64.2543 337.781 63.7775 337.304Z" stroke="black"/>
<path d="M56.627 277.716C56.627 275.332 55.6735 275.332 54.7201 276.762H53.7667V279.623V285.343C53.7667 286.773 56.627 284.866 56.1503 282.483C55.6735 280.099 56.627 280.099 56.627 277.716Z" stroke="black"/>
</svg>
