<svg width="25" height="25" viewBox="0 0 25 25" fill="none" xmlns="http://www.w3.org/2000/svg">
<mask id="mask0_291_621" style="mask-type:alpha" maskUnits="userSpaceOnUse" x="0" y="0" width="25" height="25">
<rect x="0.892578" y="0.841797" width="24" height="24" fill="#D9D9D9"/>
</mask>
<g mask="url(#mask0_291_621)">
<path d="M11.8926 9.8418V6.8418H8.89258V4.8418H11.8926V1.8418H13.8926V4.8418H16.8926V6.8418H13.8926V9.8418H11.8926ZM7.89258 22.8418C7.34258 22.8418 6.87174 22.646 6.48008 22.2543C6.08841 21.8626 5.89258 21.3918 5.89258 20.8418C5.89258 20.2918 6.08841 19.821 6.48008 19.4293C6.87174 19.0376 7.34258 18.8418 7.89258 18.8418C8.44258 18.8418 8.91341 19.0376 9.30508 19.4293C9.69674 19.821 9.89258 20.2918 9.89258 20.8418C9.89258 21.3918 9.69674 21.8626 9.30508 22.2543C8.91341 22.646 8.44258 22.8418 7.89258 22.8418ZM17.8926 22.8418C17.3426 22.8418 16.8717 22.646 16.4801 22.2543C16.0884 21.8626 15.8926 21.3918 15.8926 20.8418C15.8926 20.2918 16.0884 19.821 16.4801 19.4293C16.8717 19.0376 17.3426 18.8418 17.8926 18.8418C18.4426 18.8418 18.9134 19.0376 19.3051 19.4293C19.6967 19.821 19.8926 20.2918 19.8926 20.8418C19.8926 21.3918 19.6967 21.8626 19.3051 22.2543C18.9134 22.646 18.4426 22.8418 17.8926 22.8418ZM1.89258 4.8418V2.8418H5.16758L9.41758 11.8418H16.4176L20.3176 4.8418H22.5926L18.1926 12.7918C18.0092 13.1251 17.7634 13.3835 17.4551 13.5668C17.1467 13.7501 16.8092 13.8418 16.4426 13.8418H8.99258L7.89258 15.8418H19.8926V17.8418H7.89258C7.14258 17.8418 6.57174 17.5168 6.18008 16.8668C5.78841 16.2168 5.77591 15.5585 6.14258 14.8918L7.49258 12.4418L3.89258 4.8418H1.89258Z" fill="#003742"/>
</g>
</svg>
