<svg width="20" height="20" viewBox="0 0 20 20" fill="none" xmlns="http://www.w3.org/2000/svg">
<mask id="mask0_317_763" style="mask-type:alpha" maskUnits="userSpaceOnUse" x="0" y="0" width="20" height="20">
<rect width="20" height="20" fill="#D9D9D9"/>
</mask>
<g mask="url(#mask0_317_763)">
<path d="M5.25646 17.9166C4.8409 17.9166 4.4859 17.7695 4.19146 17.4752C3.89715 17.1807 3.75 16.8257 3.75 16.4102V8.58975C3.75 8.1742 3.89715 7.8192 4.19146 7.52475C4.4859 7.23045 4.8409 7.08329 5.25646 7.08329H6.25V5.41663C6.25 4.37607 6.61486 3.49093 7.34458 2.76121C8.07431 2.03149 8.95944 1.66663 10 1.66663C11.0406 1.66663 11.9257 2.03149 12.6554 2.76121C13.3851 3.49093 13.75 4.37607 13.75 5.41663V7.08329H14.7435C15.1591 7.08329 15.5141 7.23045 15.8085 7.52475C16.1028 7.8192 16.25 8.1742 16.25 8.58975V16.4102C16.25 16.8257 16.1028 17.1807 15.8085 17.4752C15.5141 17.7695 15.1591 17.9166 14.7435 17.9166H5.25646ZM5.25646 16.6666H14.7435C14.8184 16.6666 14.8799 16.6426 14.9279 16.5945C14.976 16.5465 15 16.485 15 16.4102V8.58975C15 8.51489 14.976 8.45343 14.9279 8.40538C14.8799 8.35732 14.8184 8.33329 14.7435 8.33329H5.25646C5.1816 8.33329 5.12014 8.35732 5.07208 8.40538C5.02403 8.45343 5 8.51489 5 8.58975V16.4102C5 16.485 5.02403 16.5465 5.07208 16.5945C5.12014 16.6426 5.1816 16.6666 5.25646 16.6666ZM10 13.9583C10.4049 13.9583 10.7492 13.8165 11.0329 13.5329C11.3165 13.2491 11.4583 12.9048 11.4583 12.5C11.4583 12.0951 11.3165 11.7508 11.0329 11.467C10.7492 11.1834 10.4049 11.0416 10 11.0416C9.59514 11.0416 9.25083 11.1834 8.96708 11.467C8.68347 11.7508 8.54167 12.0951 8.54167 12.5C8.54167 12.9048 8.68347 13.2491 8.96708 13.5329C9.25083 13.8165 9.59514 13.9583 10 13.9583ZM7.5 7.08329H12.5V5.41663C12.5 4.72218 12.2569 4.1319 11.7708 3.64579C11.2847 3.15968 10.6944 2.91663 10 2.91663C9.30556 2.91663 8.71528 3.15968 8.22917 3.64579C7.74306 4.1319 7.5 4.72218 7.5 5.41663V7.08329Z" fill="#003742"/>
</g>
</svg>
