<svg width="120" height="120" viewBox="0 0 120 120" fill="none" xmlns="http://www.w3.org/2000/svg">
<g clip-path="url(#clip0_82_994)">
<path d="M60 120C26.8629 120 -1.44847e-06 93.1371 0 60C1.44846e-06 26.8629 26.8629 -1.44847e-06 60 0C93.1371 1.44847e-06 120 26.8629 120 60C120 93.1371 93.1371 120 60 120Z" fill="white"/>
<path d="M60 116C29.072 116 4 90.9279 4 60C4 29.072 29.0721 4 60 4C90.9279 4 116 29.0721 116 60C116 90.9279 90.9279 116 60 116Z" fill="#003742"/>
<mask id="mask0_82_994" style="mask-type:alpha" maskUnits="userSpaceOnUse" x="8" y="8" width="104" height="104">
<path d="M60 112C31.2812 112 8 88.7188 8 60C8 31.2812 31.2812 8 60 8C88.7188 8 112 31.2812 112 60C112 88.7188 88.7188 112 60 112Z" fill="#3D9EB1"/>
</mask>
<g mask="url(#mask0_82_994)">
<path d="M60 112C31.2812 112 8 88.7188 8 60C8 31.2812 31.2812 8 60 8C88.7188 8 112 31.2812 112 60C112 88.7188 88.7188 112 60 112Z" fill="#3D9EB1"/>
<path d="M111.5 46.5H8.5" stroke="#003742" stroke-width="4"/>
<path d="M8.5 54H40.5" stroke="#E9FBFF" stroke-width="4" stroke-miterlimit="2.03203" stroke-linecap="round"/>
<path d="M-2 64H30" stroke="#E9FBFF" stroke-width="4" stroke-miterlimit="2.03203" stroke-linecap="round"/>
<path d="M-12.5 74H19.5" stroke="#E9FBFF" stroke-width="4" stroke-miterlimit="2.03203" stroke-linecap="round"/>
<path d="M31 74H49" stroke="#E9FBFF" stroke-width="4" stroke-miterlimit="2.03203" stroke-linecap="round"/>
<path d="M21 84H43" stroke="#E9FBFF" stroke-width="4" stroke-miterlimit="2.03203" stroke-linecap="round"/>
<path d="M56 84H72" stroke="#E9FBFF" stroke-width="4" stroke-miterlimit="2.03203" stroke-linecap="round"/>
<path d="M73 94H89" stroke="#E9FBFF" stroke-width="4" stroke-miterlimit="2.03203" stroke-linecap="round"/>
<path d="M41 94H57" stroke="#E9FBFF" stroke-width="4" stroke-miterlimit="2.03203" stroke-linecap="round"/>
<path d="M28 104H44" stroke="#E9FBFF" stroke-width="4" stroke-miterlimit="2.03203" stroke-linecap="round"/>
<path d="M59 104H75" stroke="#E9FBFF" stroke-width="4" stroke-miterlimit="2.03203" stroke-linecap="round"/>
<path d="M88 104H104" stroke="#E9FBFF" stroke-width="4" stroke-miterlimit="2.03203" stroke-linecap="round"/>
<path d="M9 94H25" stroke="#E9FBFF" stroke-width="4" stroke-miterlimit="2.03203" stroke-linecap="round"/>
<path d="M85 84H107" stroke="#E9FBFF" stroke-width="4" stroke-miterlimit="2.03203" stroke-linecap="round"/>
<path d="M61 74H93" stroke="#E9FBFF" stroke-width="4" stroke-miterlimit="2.03203" stroke-linecap="round"/>
<path d="M106 74H113" stroke="#E9FBFF" stroke-width="4" stroke-miterlimit="2.03203" stroke-linecap="round"/>
<path d="M39 64H55" stroke="#E9FBFF" stroke-width="4" stroke-miterlimit="2.03203" stroke-linecap="round"/>
<path d="M65 64H84" stroke="#E9FBFF" stroke-width="4" stroke-miterlimit="2.03203" stroke-linecap="round"/>
<path d="M93 64H112" stroke="#E9FBFF" stroke-width="4" stroke-miterlimit="2.03203" stroke-linecap="round"/>
<path d="M54 54H80" stroke="#E9FBFF" stroke-width="4" stroke-miterlimit="2.03203" stroke-linecap="round"/>
<path d="M94 54H114" stroke="#E9FBFF" stroke-width="4" stroke-miterlimit="2.03203" stroke-linecap="round"/>
</g>
<mask id="mask1_82_994" style="mask-type:alpha" maskUnits="userSpaceOnUse" x="10" y="8" width="100" height="37">
<path d="M60 44.5003H10.5C10.5 39.5 25.5 8.00025 60 8.00025C88.7188 8.00025 105.5 29.5 109.5 44.5003C109.5 44.5003 88.7188 44.5003 60 44.5003Z" fill="url(#paint0_linear_82_994)"/>
</mask>
<g mask="url(#mask1_82_994)">
<path d="M60 44.5003H10.5C10.5 39.5 25.5 8.00025 60 8.00025C88.7188 8.00025 105.5 29.5 109.5 44.5003C109.5 44.5003 88.7188 44.5003 60 44.5003Z" fill="url(#paint1_linear_82_994)"/>
<path d="M60 64C72.7025 64 83 53.7025 83 41C83 28.2975 72.7025 18 60 18C47.2975 18 37 28.2975 37 41C37 53.7025 47.2975 64 60 64Z" fill="#FFF6E3"/>
</g>
</g>
<defs>
<linearGradient id="paint0_linear_82_994" x1="11" y1="45" x2="92" y2="20.5" gradientUnits="userSpaceOnUse">
<stop stop-color="#FABA01"/>
<stop offset="1" stop-color="#F9B906"/>
</linearGradient>
<linearGradient id="paint1_linear_82_994" x1="11" y1="45" x2="92" y2="20.5" gradientUnits="userSpaceOnUse">
<stop stop-color="#FABA01"/>
<stop offset="1" stop-color="#F9B906"/>
</linearGradient>
<clipPath id="clip0_82_994">
<rect width="120" height="120" fill="white"/>
</clipPath>
</defs>
</svg>
