<svg width="68" height="68" viewBox="0 0 68 68" fill="none" xmlns="http://www.w3.org/2000/svg">
<mask id="mask0_299_674" style="mask-type:alpha" maskUnits="userSpaceOnUse" x="0" y="0" width="68" height="68">
<rect width="67.292" height="67.292" fill="#D9D9D9"/>
</mask>
<g mask="url(#mask0_299_674)">
<path d="M24.706 61.3066L19.7025 52.8741L10.2018 50.7922L11.1291 41.0118L4.69153 33.6461L11.1291 26.2804L10.2018 16.5L19.7025 14.4181L24.706 5.9856L33.646 9.78128L42.586 5.9856L47.5895 14.4181L57.0902 16.5L56.1629 26.2804L62.6005 33.6461L56.1629 41.0118L57.0902 50.7922L47.5895 52.8741L42.586 61.3066L33.646 57.5109L24.706 61.3066ZM26.4962 55.9366L33.646 52.9063L40.882 55.9366L44.8613 49.2074L52.5719 47.4389L51.8709 39.5341L57.058 33.6461L51.8709 27.6718L52.5719 19.7671L44.8613 18.0848L40.7958 11.3556L33.646 14.3859L26.41 11.3556L22.4307 18.0848L14.7201 19.7671L15.4211 27.6718L10.234 33.6461L15.4211 39.5341L14.7201 47.5251L22.4307 49.2074L26.4962 55.9366ZM33.646 46.9103C34.2787 46.9103 34.8143 46.6912 35.2526 46.2528C35.6914 45.814 35.9108 45.2783 35.9108 44.6455C35.9108 44.0128 35.6914 43.4773 35.2526 43.0389C34.8143 42.6006 34.2787 42.3814 33.646 42.3814C33.0133 42.3814 32.4777 42.6006 32.0394 43.0389C31.6006 43.4773 31.3812 44.0128 31.3812 44.6455C31.3812 45.2783 31.6006 45.814 32.0394 46.2528C32.4777 46.6912 33.0133 46.9103 33.646 46.9103ZM31.5431 36.6658H35.7489V19.8428H31.5431V36.6658Z" fill="#063E2A"/>
</g>
</svg>
