<svg width="40" height="40" viewBox="0 0 40 40" fill="none" xmlns="http://www.w3.org/2000/svg">
<mask id="mask0_82_923" style="mask-type:alpha" maskUnits="userSpaceOnUse" x="0" y="0" width="40" height="40">
<rect width="40" height="40" fill="#D9D9D9"/>
</mask>
<g mask="url(#mask0_82_923)">
<path d="M11.8554 36.6388C10.9982 36.6388 10.2662 36.3336 9.65955 35.7233C9.05316 35.1128 8.74996 34.379 8.74996 33.5221C8.74996 32.6649 9.05524 31.9329 9.6658 31.3263C10.2761 30.7199 11.0098 30.4167 11.867 30.4167C12.7243 30.4167 13.4561 30.7219 14.0625 31.3325C14.6689 31.9428 14.972 32.6765 14.972 33.5338C14.972 34.391 14.6669 35.1228 14.0566 35.7292C13.4461 36.3356 12.7123 36.6388 11.8554 36.6388ZM28.522 36.6388C27.6648 36.6388 26.9329 36.3336 26.3262 35.7233C25.7198 35.1128 25.4166 34.379 25.4166 33.5221C25.4166 32.6649 25.7219 31.9329 26.3325 31.3263C26.9427 30.7199 27.6765 30.4167 28.5337 30.4167C29.3909 30.4167 30.1227 30.7219 30.7291 31.3325C31.3355 31.9428 31.6387 32.6765 31.6387 33.5338C31.6387 34.391 31.3336 35.1228 30.7233 35.7292C30.1127 36.3356 29.379 36.6388 28.522 36.6388ZM9.94455 9.41667L14.3333 18.5279H26.222L31.222 9.41667H9.94455ZM8.5833 6.63875H33.1408C33.7791 6.63875 34.2648 6.92819 34.5979 7.50708C34.9307 8.08569 34.9351 8.66667 34.6112 9.25L28.8887 19.5554C28.5832 20.0926 28.1822 20.5186 27.6858 20.8333C27.1894 21.1481 26.6459 21.3054 26.0554 21.3054H13.5L11.3333 25.3054H31.6387V28.0833H11.5833C10.3889 28.0833 9.51385 27.6413 8.9583 26.7571C8.40274 25.8726 8.39816 24.9258 8.94455 23.9167L11.472 19.2779L5.24996 6.11125H1.97205V3.33333H7.02788L8.5833 6.63875Z" fill="#003742"/>
</g>
</svg>
