<svg width="28" height="28" viewBox="0 0 28 28" fill="none" xmlns="http://www.w3.org/2000/svg">
<mask id="mask0_212_805" style="mask-type:alpha" maskUnits="userSpaceOnUse" x="0" y="0" width="28" height="28">
<rect width="28" height="28" fill="#D9D9D9"/>
</mask>
<g mask="url(#mask0_212_805)">
<path d="M12.8335 25.6666V20.8249L9.04183 24.5583L7.4085 22.9249L12.8335 17.4999V15.1666H10.5002L5.07516 20.5916L3.44183 18.9583L7.17516 15.1666H2.3335V12.8333H7.17516L3.44183 9.04159L5.07516 7.40825L10.5002 12.8333H12.8335V10.4999L7.4085 5.07492L9.04183 3.44159L12.8335 7.17492V2.33325H15.1668V7.17492L18.9585 3.44159L20.5918 5.07492L15.1668 10.4999V12.8333H17.5002L22.9252 7.40825L24.5585 9.04159L20.8252 12.8333H25.6668V15.1666H20.8252L24.5585 18.9583L22.9252 20.5916L17.5002 15.1666H15.1668V17.4999L20.5918 22.9249L18.9585 24.5583L15.1668 20.8249V25.6666H12.8335Z" fill="#003742"/>
</g>
</svg>
