<svg width="28" height="28" viewBox="0 0 28 28" fill="none" xmlns="http://www.w3.org/2000/svg">
<mask id="mask0_212_811" style="mask-type:alpha" maskUnits="userSpaceOnUse" x="0" y="0" width="28" height="28">
<rect width="28" height="28" fill="#D9D9D9"/>
</mask>
<g mask="url(#mask0_212_811)">
<path d="M12.8332 5.83341V1.16675H15.1665V5.83341H12.8332ZM20.5915 9.04175L18.9873 7.43758L22.254 4.08341L23.8873 5.74591L20.5915 9.04175ZM22.1665 15.1667V12.8334H26.8332V15.1667H22.1665ZM12.8332 26.8334V22.1667H15.1665V26.8334H12.8332ZM7.40817 8.98341L4.08317 5.74591L5.74567 4.11258L9.0415 7.40841L7.40817 8.98341ZM22.2248 23.9167L18.9873 20.5626L20.5623 18.9876L23.8873 22.1959L22.2248 23.9167ZM1.1665 15.1667V12.8334H5.83317V15.1667H1.1665ZM5.74567 23.9167L4.11234 22.2542L7.379 18.9876L8.22484 19.7751L9.07067 20.5917L5.74567 23.9167ZM13.9998 21.0001C12.0554 21.0001 10.4026 20.3195 9.0415 18.9584C7.68039 17.5973 6.99984 15.9445 6.99984 14.0001C6.99984 12.0556 7.68039 10.4029 9.0415 9.04175C10.4026 7.68064 12.0554 7.00008 13.9998 7.00008C15.9443 7.00008 17.5971 7.68064 18.9582 9.04175C20.3193 10.4029 20.9998 12.0556 20.9998 14.0001C20.9998 15.9445 20.3193 17.5973 18.9582 18.9584C17.5971 20.3195 15.9443 21.0001 13.9998 21.0001ZM13.9998 18.6667C15.2832 18.6667 16.3818 18.2098 17.2957 17.2959C18.2096 16.382 18.6665 15.2834 18.6665 14.0001C18.6665 12.7167 18.2096 11.6181 17.2957 10.7042C16.3818 9.79036 15.2832 9.33341 13.9998 9.33341C12.7165 9.33341 11.6179 9.79036 10.704 10.7042C9.79012 11.6181 9.33317 12.7167 9.33317 14.0001C9.33317 15.2834 9.79012 16.382 10.704 17.2959C11.6179 18.2098 12.7165 18.6667 13.9998 18.6667Z" fill="#003742"/>
</g>
</svg>
