<svg width="28" height="28" viewBox="0 0 28 28" fill="none" xmlns="http://www.w3.org/2000/svg">
<mask id="mask0_212_788" style="mask-type:alpha" maskUnits="userSpaceOnUse" x="0" y="0" width="28" height="28">
<rect width="28" height="28" fill="#D9D9D9"/>
</mask>
<g mask="url(#mask0_212_788)">
<path d="M12.95 10.4999C11.8806 10.4999 10.8306 10.6506 9.8 10.952C8.76944 11.2534 7.81667 11.7055 6.94167 12.3083L8.16667 23.3333H19.8333L21.1167 11.6666H20.3C19.5611 11.6666 18.8903 11.6131 18.2875 11.5062C17.6847 11.3992 16.8583 11.1902 15.8083 10.8791C15.3611 10.743 14.8944 10.6458 14.4083 10.5874C13.9222 10.5291 13.4361 10.4999 12.95 10.4999ZM6.65 9.77075C7.64167 9.24575 8.66736 8.84714 9.72708 8.57492C10.7868 8.3027 11.8708 8.16659 12.9792 8.16659C13.5625 8.16659 14.141 8.20547 14.7146 8.28325C15.2882 8.36103 15.8569 8.4777 16.4208 8.63325C17.3931 8.90547 18.1368 9.0902 18.6521 9.18742C19.1674 9.28464 19.7167 9.33325 20.3 9.33325H21.3792L21.875 4.66659H6.125L6.65 9.77075ZM8.1375 25.6666C7.53472 25.6666 7.01458 25.4721 6.57708 25.0833C6.13958 24.6944 5.89167 24.1985 5.83333 23.5958L3.5 2.33325H24.5L22.1667 23.5958C22.1083 24.1985 21.8604 24.6944 21.4229 25.0833C20.9854 25.4721 20.4653 25.6666 19.8625 25.6666H8.1375Z" fill="#003742"/>
</g>
</svg>
