<svg width="90" height="91" viewBox="0 0 90 91" fill="none" xmlns="http://www.w3.org/2000/svg">
<mask id="mask0_86_6748" style="mask-type:alpha" maskUnits="userSpaceOnUse" x="0" y="0" width="90" height="91">
<rect y="29" width="67.292" height="67.292" transform="rotate(-24.7688 0 29)" fill="#D9D9D9"/>
</mask>
<g mask="url(#mask0_86_6748)">
<path d="M53.3162 62.595C53.7404 62.3478 54.0293 62.013 54.1829 61.5907C54.3364 61.1683 54.3188 60.7526 54.1301 60.3436C53.91 59.8667 53.579 59.5608 53.137 59.4261C52.6951 59.2914 52.2405 59.3575 51.7734 59.6245C50.0924 60.5545 47.9624 60.919 45.3834 60.7179C42.8041 60.5164 40.604 59.1116 38.7831 56.5036C38.498 56.1087 38.1585 55.8515 37.7648 55.7321C37.3715 55.6125 36.9822 55.6416 36.5969 55.8194C36.1335 56.0332 35.8279 56.3852 35.68 56.8755C35.5318 57.3653 35.6388 57.8571 36.001 58.3509C38.3961 61.7314 41.2808 63.6072 44.6551 63.9781C48.029 64.3493 50.916 63.8882 53.3162 62.595ZM55.8021 69.6425C50.3509 72.1577 44.9424 72.3818 39.5766 70.3148C34.2108 68.2478 30.241 64.4253 27.6672 58.8472C25.8449 54.8977 25.4281 49.8396 26.4169 43.6728C27.4056 37.506 29.8228 30.1686 33.6684 21.6605C42.6371 24.256 49.7883 27.1785 55.1218 30.4282C60.4554 33.6778 64.0333 37.2774 65.8557 41.2269C68.4294 46.805 68.76 52.3066 66.8476 57.7319C64.9351 63.1571 61.2533 67.1273 55.8021 69.6425ZM54.0445 65.8216C58.4574 63.7855 61.4164 60.6061 62.9215 56.2833C64.4266 51.9606 64.1317 47.5291 62.0368 42.9889C60.6076 39.8914 57.7089 36.9831 53.3406 34.2638C48.9723 31.5446 43.1964 29.0374 36.013 26.7421C33.0977 33.697 31.2571 39.7185 30.4912 44.8067C29.7252 49.8949 30.0569 53.9877 31.4861 57.0852C33.5809 61.6254 36.7612 64.7255 41.0268 66.3857C45.2924 68.0458 49.6316 67.8578 54.0445 65.8216Z" fill="#063E2A"/>
</g>
</svg>
