<svg width="28" height="28" viewBox="0 0 28 28" fill="none" xmlns="http://www.w3.org/2000/svg">
<mask id="mask0_212_770" style="mask-type:alpha" maskUnits="userSpaceOnUse" x="0" y="0" width="28" height="28">
<rect width="28" height="28" fill="#D9D9D9"/>
</mask>
<g mask="url(#mask0_212_770)">
<path d="M12.95 18.6666C12.0361 18.6666 11.1465 18.7784 10.2812 19.002C9.41597 19.2256 8.58472 19.5513 7.7875 19.9791L8.16667 23.3333H19.8333L20.2125 19.8333C19.5125 19.8333 18.8611 19.7749 18.2583 19.6583C17.6556 19.5416 16.8389 19.3374 15.8083 19.0458C15.3611 18.9096 14.8944 18.8124 14.4083 18.7541C13.9222 18.6958 13.4361 18.6666 12.95 18.6666ZM7.525 17.4999C8.4 17.111 9.29444 16.8194 10.2083 16.6249C11.1222 16.4305 12.0458 16.3333 12.9792 16.3333C13.5625 16.3333 14.141 16.3721 14.7146 16.4499C15.2882 16.5277 15.8569 16.6444 16.4208 16.7999C17.3931 17.0721 18.1368 17.2569 18.6521 17.3541C19.1674 17.4513 19.7167 17.4999 20.3 17.4999H20.475L21.875 4.66659H6.125L7.525 17.4999ZM8.1375 25.6666C7.53472 25.6666 7.01458 25.4721 6.57708 25.0833C6.13958 24.6944 5.89167 24.1985 5.83333 23.5958L3.5 2.33325H24.5L22.1667 23.5958C22.1083 24.1985 21.8604 24.6944 21.4229 25.0833C20.9854 25.4721 20.4653 25.6666 19.8625 25.6666H8.1375Z" fill="#003742"/>
</g>
</svg>
