<svg width="28" height="28" viewBox="0 0 28 28" fill="none" xmlns="http://www.w3.org/2000/svg">
<mask id="mask0_212_779" style="mask-type:alpha" maskUnits="userSpaceOnUse" x="0" y="0" width="28" height="28">
<rect width="28" height="28" fill="#D9D9D9"/>
</mask>
<g mask="url(#mask0_212_779)">
<path d="M7.4375 16.6833L8.16667 23.3333H19.8333L20.5917 16.3333H20.3292C19.5903 16.3333 18.9146 16.2798 18.3021 16.1728C17.6896 16.0659 16.8583 15.8569 15.8083 15.5458C15.3611 15.4096 14.8944 15.3124 14.4083 15.2541C13.9222 15.1958 13.4361 15.1666 12.95 15.1666C11.9583 15.1666 11.0007 15.293 10.0771 15.5458C9.15347 15.7985 8.27361 16.1777 7.4375 16.6833ZM7.14583 14.1749C8.05972 13.7277 9.00764 13.3923 9.98958 13.1687C10.9715 12.9451 11.9681 12.8333 12.9792 12.8333C13.5625 12.8333 14.141 12.8721 14.7146 12.9499C15.2882 13.0277 15.8569 13.1444 16.4208 13.2999C17.3931 13.5721 18.1368 13.7569 18.6521 13.8541C19.1674 13.9513 19.7167 13.9999 20.3 13.9999H20.8542L21.875 4.66659H6.125L7.14583 14.1749ZM8.1375 25.6666C7.53472 25.6666 7.01458 25.4721 6.57708 25.0833C6.13958 24.6944 5.89167 24.1985 5.83333 23.5958L3.5 2.33325H24.5L22.1667 23.5958C22.1083 24.1985 21.8604 24.6944 21.4229 25.0833C20.9854 25.4721 20.4653 25.6666 19.8625 25.6666H8.1375Z" fill="#003742"/>
</g>
</svg>
